{
copyright = "Copyright (c) 2015, Cadson Demak (info@cadsondemak.com)";
customParameters = (
{
name = vendorID;
value = CDK;
},
{
name = description;
value = "Copyright (c) 2015, Cadson Demak (info@cadsondemak.com)";
},
{
name = license;

glyphs = (
{
glyphname = A;
lastChange = "2015-07-16 17:52:31 +0000";
layers = (
{
layerId = "F0FBE068-24F2-4D1F-B3A2-D9A3CAFE6F9A";
name = Regular;
paths = (
{
closed = 1;
nodes = (
"229 0 LINE SMOOTH",
"238 0 OFFCURVE",
"242 6 OFFCURVE",
"242 16 CURVE SMOOTH",
"242 30 OFFCURVE",
"234 39 OFFCURVE",
"208 45 CURVE SMOOTH",
"150 59 LINE",
"207 219 LINE",
"491 219 LINE",
"549 60 LINE",
"512 60 LINE SMOOTH",
"485 60 OFFCURVE",
"467 48 OFFCURVE",
"467 25 CURVE SMOOTH",
"467 10 OFFCURVE",
"475 0 OFFCURVE",
"488 0 CURVE SMOOTH",
"711 0 LINE SMOOTH",
"721 0 OFFCURVE",
"724 8 OFFCURVE",
"724 18 CURVE SMOOTH",
"724 34 OFFCURVE",
"715 43 OFFCURVE",
"692 49 CURVE SMOOTH",
"651 59 LINE",
"418 695 LINE",
"306 695 LINE",
"74 60 LINE",
"50 60 LINE SMOOTH",
"23 60 OFFCURVE",
"5 48 OFFCURVE",
"5 25 CURVE SMOOTH",
"5 10 OFFCURVE",
"12 0 OFFCURVE",
"25 0 CURVE SMOOTH"
);
},
{
closed = 1;
nodes = (
"349 611 LINE",
"467 284 LINE",
"231 284 LINE"
);
}
);
width = 728;
}
);
note = A;
unicode = 0041;
},
{
glyphname = Aacute;
lastChange = "2015-07-16 17:52:31 +0000";
layers = (
{
components = (
{
name = A;
}
);
layerId = "F0FBE068-24F2-4D1F-B3A2-D9A3CAFE6F9A";
name = Regular;
paths = (
{
closed = 1;
nodes = (
"478 898 LINE",
"405 945 LINE",
"311 788 LINE",
"366 752 LINE"
);
}
);
width = 728;
}
);
note = Aacute;
unicode = 00C1;
},
{
glyphname = Abreve;
lastChange = "2015-07-16 17:52:31 +0000";
layers = (
{
components = (
{
name = A;
}
);
layerId = "F0FBE068-24F2-4D1F-B3A2-D9A3CAFE6F9A";
name = Regular;
paths = (
{
closed = 1;
nodes = (
"425 747 OFFCURVE",
"487 782 OFFCURVE",
"513 874 CURVE",
"458 893 LINE",
"443 844 OFFCURVE",
"408 813 OFFCURVE",
"358 813 CURVE SMOOTH",
"309 813 OFFCURVE",
"274 844 OFFCURVE",
"258 893 CURVE",
"204 874 LINE",
"230 782 OFFCURVE",
"292 747 OFFCURVE",
"358 747 CURVE SMOOTH"
);
}
);
width = 728;
}
);
note = Abreve;
unicode = 0102;
},
{
glyphname = Abreveacute;
lastChange = "2015-07-16 17:52:31 +0000";
layers = (
{
components = (
{
name = A;
}
);
layerId = "F0FBE068-24F2-4D1F-B3A2-D9A3CAFE6F9A";
name = Regular;
paths = (
{
closed = 1;
nodes = (
"427 747 OFFCURVE",
"489 782 OFFCURVE",
"515 874 CURVE",
"460 893 LINE",
"445 844 OFFCURVE",
"410 813 OFFCURVE",
"360 813 CURVE SMOOTH",
"311 813 OFFCURVE",
"276 844 OFFCURVE",
"260 893 CURVE",
"206 874 LINE",
"232 782 OFFCURVE",
"294 747 OFFCURVE",
"360 747 CURVE SMOOTH"
);
},
{
closed = 1;
nodes = (
"471 1011 LINE",
"403 1054 LINE",
"321 912 LINE",
"371 880 LINE"
);
}
);
width = 728;
}
);
note = Abreveacute;
unicode = 1EAE;
},
{
glyphname = Abrevedotbelow;
lastChange = "2015-07-16 17:52:31 +0000";
layers = (
{
components = (
{
name = A;
}
);
layerId = "F0FBE068-24F2-4D1F-B3A2-D9A3CAFE6F9A";
name = Regular;
paths = (
{
closed = 1;
nodes = (
"386 -177 OFFCURVE",
"410 -153 OFFCURVE",
"410 -121 CURVE SMOOTH",
"410 -89 OFFCURVE",
"386 -66 OFFCURVE",
"355 -66 CURVE SMOOTH",
"325 -66 OFFCURVE",
"300 -89 OFFCURVE",
"300 -121 CURVE SMOOTH",
"300 -153 OFFCURVE",
"325 -177 OFFCURVE",
"355 -177 CURVE SMOOTH"
);
},
{
closed = 1;
nodes = (
"425 747 OFFCURVE",
"487 782 OFFCURVE",
"513 874 CURVE",
"458 893 LINE",
"443 844 OFFCURVE",
"408 813 OFFCURVE",
"358 813 CURVE SMOOTH",
"309 813 OFFCURVE",
"274 844 OFFCURVE",
"258 893 CURVE",
"204 874 LINE",
"230 782 OFFCURVE",
"292 747 OFFCURVE",
"358 747 CURVE SMOOTH"
);
}
);
width = 728;
}
);
note = Abrevedotbelow;
unicode = 1EB6;
},
{
glyphname = Abrevegrave;
lastChange = "2015-07-16 17:52:31 +0000";
layers = (
{
components = (
{
name = A;
}
);
layerId = "F0FBE068-24F2-4D1F-B3A2-D9A3CAFE6F9A";
name = Regular;
paths = (
{
closed = 1;
nodes = (
"423 747 OFFCURVE",
"485 782 OFFCURVE",
"511 874 CURVE",
"456 893 LINE",
"441 844 OFFCURVE",
"406 813 OFFCURVE",
"356 813 CURVE SMOOTH",
"307 813 OFFCURVE",
"272 844 OFFCURVE",
"256 893 CURVE",
"202 874 LINE",
"228 782 OFFCURVE",
"290 747 OFFCURVE",
"356 747 CURVE SMOOTH"
);
},
{
closed = 1;
nodes = (
"395 912 LINE",
"313 1054 LINE",
"245 1011 LINE",
"345 880 LINE"
);
}
);
width = 728;
}
);
note = Abrevegrave;
unicode = 1EB0;
},
{
glyphname = Abrevehookabove;
lastChange = "2015-07-16 17:52:31 +0000";
layers = (
{
components = (
{
name = A;
}
);
layerId = "F0FBE068-24F2-4D1F-B3A2-D9A3CAFE6F9A";
name = Regular;
paths = (
{
closed = 1;
nodes = (
"424 747 OFFCURVE",
"486 782 OFFCURVE",
"512 874 CURVE",
"457 893 LINE",
"442 844 OFFCURVE",
"407 813 OFFCURVE",
"357 813 CURVE SMOOTH",
"308 813 OFFCURVE",
"273 844 OFFCURVE",
"257 893 CURVE",
"203 874 LINE",
"229 782 OFFCURVE",
"291 747 OFFCURVE",
"357 747 CURVE SMOOTH"
);
},
{
closed = 1;
nodes = (
"379 880 LINE",
"385 925 LINE",
"422 939 OFFCURVE",
"445 964 OFFCURVE",
"445 998 CURVE SMOOTH",
"445 1038 OFFCURVE",
"411 1068 OFFCURVE",
"359 1068 CURVE SMOOTH",
"337 1068 OFFCURVE",
"310 1060 OFFCURVE",
"294 1054 CURVE",
"301 1016 LINE",
"318 1021 OFFCURVE",
"333 1025 OFFCURVE",
"350 1025 CURVE SMOOTH",
"371 1025 OFFCURVE",
"382 1015 OFFCURVE",
"382 997 CURVE SMOOTH",
"382 974 OFFCURVE",
"362 959 OFFCURVE",
"328 947 CURVE",
"333 880 LINE"
);
}
);
width = 728;
}
);
note = Abrevehookabove;
unicode = 1EB2;
},
{
glyphname = Abrevetilde;
lastChange = "2015-07-16 17:52:31 +0000";
layers = (
{
components = (
{
name = A;
}
);
layerId = "F0FBE068-24F2-4D1F-B3A2-D9A3CAFE6F9A";
name = Regular;
paths = (
{
closed = 1;
nodes = (
"427 747 OFFCURVE",
"489 782 OFFCURVE",
"515 874 CURVE",
"460 893 LINE",
"445 844 OFFCURVE",
"410 813 OFFCURVE",
"360 813 CURVE SMOOTH",
"311 813 OFFCURVE",
"276 844 OFFCURVE",
"260 893 CURVE",
"206 874 LINE",
"232 782 OFFCURVE",
"294 747 OFFCURVE",
"360 747 CURVE SMOOTH"
);
},
{
closed = 1;
nodes = (
"434 929 OFFCURVE",
"461 944 OFFCURVE",
"484 967 CURVE",
"457 1008 LINE",
"442 996 OFFCURVE",
"426 988 OFFCURVE",
"408 988 CURVE SMOOTH",
"378 988 OFFCURVE",
"348 1017 OFFCURVE",
"315 1017 CURVE SMOOTH",
"291 1017 OFFCURVE",
"261 1000 OFFCURVE",
"238 980 CURVE",
"265 938 LINE",
"280 950 OFFCURVE",
"295 959 OFFCURVE",
"315 959 CURVE SMOOTH",
"348 959 OFFCURVE",
"373 929 OFFCURVE",
"409 929 CURVE SMOOTH"
);
}
);
width = 728;
}
);
note = Abrevetilde;
unicode = 1EB4;
},
{
glyphname = Acaron;
lastChange = "2015-07-16 17:52:31 +0000";
layers = (
{
components = (
{
name = A;
}
);
layerId = "F0FBE068-24F2-4D1F-B3A2-D9A3CAFE6F9A";
name = Regular;
paths = (
{
closed = 1;
nodes = (
"377 752 LINE",
"489 895 LINE",
"445 932 LINE",
"352 830 LINE",
"260 932 LINE",
"216 895 LINE",
"328 752 LINE"
);
}
);
width = 728;
}
);
note = Acaron;
unicode = 01CD;
},
{
glyphname = Acircumflex;
lastChange = "2015-07-16 17:52:31 +0000";
layers = (
{
components = (
{
name = A;
}
);
layerId = "F0FBE068-24F2-4D1F-B3A2-D9A3CAFE6F9A";
name = Regular;
paths = (
{
closed = 1;
nodes = (
"353 854 LINE",
"446 752 LINE",
"490 789 LINE",
"378 932 LINE",
"329 932 LINE",
"217 789 LINE",
"261 752 LINE"
);
}
);
width = 728;
}
);
note = Acircumflex;
unicode = 00C2;
},
{
glyphname = Acircumflexacute;
lastChange = "2015-07-16 17:52:31 +0000";
layers = (
{
components = (
{
name = A;
}
);
layerId = "F0FBE068-24F2-4D1F-B3A2-D9A3CAFE6F9A";
name = Regular;
paths = (
{
closed = 1;
nodes = (
"357 854 LINE",
"450 752 LINE",
"494 789 LINE",
"382 932 LINE",
"333 932 LINE",
"221 789 LINE",
"265 752 LINE"
);
},
{
closed = 1;
nodes = (
"587 963 LINE",
"522 1005 LINE",
"457 890 LINE",
"501 861 LINE"
);
}
);
width = 728;
}
);
note = Acircumflexacute;
unicode = 1EA4;
},
{
glyphname = Acircumflexdotbelow;
lastChange = "2015-07-16 17:52:31 +0000";
layers = (
{
components = (
{
name = A;
}
);
layerId = "F0FBE068-24F2-4D1F-B3A2-D9A3CAFE6F9A";
name = Regular;
paths = (
{
closed = 1;
nodes = (
"384 -177 OFFCURVE",
"408 -153 OFFCURVE",
"408 -121 CURVE SMOOTH",
"408 -89 OFFCURVE",
"384 -66 OFFCURVE",
"353 -66 CURVE SMOOTH",
"323 -66 OFFCURVE",
"298 -89 OFFCURVE",
"298 -121 CURVE SMOOTH",
"298 -153 OFFCURVE",
"323 -177 OFFCURVE",
"353 -177 CURVE SMOOTH"
);
},
{
closed = 1;
nodes = (
"356 854 LINE",
"449 752 LINE",
"493 789 LINE",
"381 932 LINE",
"332 932 LINE",
"220 789 LINE",
"264 752 LINE"
);
}
);
width = 728;
}
);
note = Acircumflexdotbelow;
unicode = 1EAC;
},
{
glyphname = Acircumflexgrave;
lastChange = "2015-07-16 17:52:31 +0000";
layers = (
{
components = (
{
name = A;
}
);
layerId = "F0FBE068-24F2-4D1F-B3A2-D9A3CAFE6F9A";
name = Regular;
paths = (
{
closed = 1;
nodes = (
"259 890 LINE",
"194 1005 LINE",
"129 963 LINE",
"215 861 LINE"
);
},
{
closed = 1;
nodes = (
"358 854 LINE",
"451 752 LINE",
"495 789 LINE",
"383 932 LINE",
"334 932 LINE",
"222 789 LINE",
"266 752 LINE"
);
}
);
width = 728;
}
);
note = Acircumflexgrave;
unicode = 1EA6;
},
{
glyphname = Acircumflexhookabove;
lastChange = "2015-07-16 17:52:31 +0000";
layers = (
{
components = (
{
name = A;
}
);
layerId = "F0FBE068-24F2-4D1F-B3A2-D9A3CAFE6F9A";
name = Regular;
paths = (
{
closed = 1;
nodes = (
"357 854 LINE",
"450 752 LINE",
"494 789 LINE",
"382 932 LINE",
"333 932 LINE",
"221 789 LINE",
"265 752 LINE"
);
},
{
closed = 1;
nodes = (
"536 857 LINE",
"542 902 LINE",
"579 916 OFFCURVE",
"602 941 OFFCURVE",
"602 974 CURVE SMOOTH",
"602 1015 OFFCURVE",
"568 1044 OFFCURVE",
"516 1044 CURVE SMOOTH",
"494 1044 OFFCURVE",
"467 1037 OFFCURVE",
"451 1030 CURVE",
"458 993 LINE",
"475 998 OFFCURVE",
"490 1002 OFFCURVE",
"507 1002 CURVE SMOOTH",
"528 1002 OFFCURVE",
"539 992 OFFCURVE",
"539 974 CURVE SMOOTH",
"539 951 OFFCURVE",
"519 936 OFFCURVE",
"485 924 CURVE",
"490 857 LINE"
);
}
);
width = 728;
}
);
note = Acircumflexhookabove;
unicode = 1EA8;
},
{
glyphname = Acircumflextilde;
lastChange = "2015-07-16 17:52:31 +0000";
layers = (
{
components = (
{
name = A;
}
);
layerId = "F0FBE068-24F2-4D1F-B3A2-D9A3CAFE6F9A";
name = Regular;
paths = (
{
closed = 1;
nodes = (
"357 854 LINE",
"450 752 LINE",
"494 789 LINE",
"382 932 LINE",
"333 932 LINE",
"221 789 LINE",
"265 752 LINE"
);
},
{
closed = 1;
nodes = (
"432 962 OFFCURVE",
"459 977 OFFCURVE",
"482 1000 CURVE",
"455 1040 LINE",
"440 1028 OFFCURVE",
"424 1021 OFFCURVE",
"406 1021 CURVE SMOOTH",
"376 1021 OFFCURVE",
"346 1050 OFFCURVE",
"313 1050 CURVE SMOOTH",
"289 1050 OFFCURVE",
"259 1033 OFFCURVE",
"236 1013 CURVE",
"263 971 LINE",
"278 982 OFFCURVE",
"293 992 OFFCURVE",
"313 992 CURVE SMOOTH",
"346 992 OFFCURVE",
"371 962 OFFCURVE",
"407 962 CURVE SMOOTH"
);
}
);
width = 728;
}
);
note = Acircumflextilde;
unicode = 1EAA;
},
{
glyphname = Adieresis;
lastChange = "2015-07-16 17:52:31 +0000";
layers = (
{
components = (
{
name = A;
}
);
layerId = "F0FBE068-24F2-4D1F-B3A2-D9A3CAFE6F9A";
name = Regular;
paths = (
{
closed = 1;
nodes = (
"289 763 OFFCURVE",
"315 786 OFFCURVE",
"315 818 CURVE SMOOTH",
"315 850 OFFCURVE",
"289 873 OFFCURVE",
"260 873 CURVE SMOOTH",
"230 873 OFFCURVE",
"205 850 OFFCURVE",
"205 818 CURVE SMOOTH",
"205 786 OFFCURVE",
"230 763 OFFCURVE",
"260 763 CURVE SMOOTH"
);
},
{
closed = 1;
nodes = (
"486 763 OFFCURVE",
"512 786 OFFCURVE",
"512 818 CURVE SMOOTH",
"512 850 OFFCURVE",
"486 873 OFFCURVE",
"457 873 CURVE SMOOTH",
"427 873 OFFCURVE",
"402 850 OFFCURVE",
"402 818 CURVE SMOOTH",
"402 786 OFFCURVE",
"427 763 OFFCURVE",
"457 763 CURVE SMOOTH"
);
}
);
width = 728;
}
);
note = Adieresis;
unicode = 00C4;
},
{
glyphname = Adotbelow;
lastChange = "2015-07-16 17:52:31 +0000";
layers = (
{
components = (
{
name = A;
}
);
layerId = "F0FBE068-24F2-4D1F-B3A2-D9A3CAFE6F9A";
name = Regular;
paths = (
{
closed = 1;
nodes = (
"390 -177 OFFCURVE",
"414 -153 OFFCURVE",
"414 -121 CURVE SMOOTH",
"414 -89 OFFCURVE",
"390 -66 OFFCURVE",
"359 -66 CURVE SMOOTH",
"329 -66 OFFCURVE",
"304 -89 OFFCURVE",
"304 -121 CURVE SMOOTH",
"304 -153 OFFCURVE",
"329 -177 OFFCURVE",
"359 -177 CURVE SMOOTH"
);
}
);
width = 728;
}
);
note = Adotbelow;
unicode = 1EA0;
},
{
glyphname = Agrave;
lastChange = "2015-07-16 17:52:31 +0000";
layers = (
{
components = (
{
name = A;
}
);
layerId = "F0FBE068-24F2-4D1F-B3A2-D9A3CAFE6F9A";
name = Regular;
paths = (
{
closed = 1;
nodes = (
"405 789 LINE",
"311 946 LINE",
"238 899 LINE",
"350 753 LINE"
);
}
);
width = 728;
}
);
note = Agrave;
unicode = 00C0;
},
{
glyphname = Ahookabove;
lastChange = "2015-07-16 17:52:31 +0000";
layers = (
{
components = (
{
name = A;
}
);
layerId = "F0FBE068-24F2-4D1F-B3A2-D9A3CAFE6F9A";
name = Regular;
paths = (
{
closed = 1;
nodes = (
"381 750 LINE",
"387 796 LINE",
"426 810 OFFCURVE",
"450 837 OFFCURVE",
"450 871 CURVE SMOOTH",
"450 912 OFFCURVE",
"414 943 OFFCURVE",
"361 943 CURVE SMOOTH",
"338 943 OFFCURVE",
"310 935 OFFCURVE",
"294 928 CURVE",
"301 890 LINE",
"318 895 OFFCURVE",
"335 899 OFFCURVE",
"352 899 CURVE SMOOTH",
"374 899 OFFCURVE",
"385 889 OFFCURVE",
"385 870 CURVE SMOOTH",
"385 847 OFFCURVE",
"364 831 OFFCURVE",
"329 819 CURVE",
"335 750 LINE"
);
}
);
width = 728;
}
);
note = Ahookabove;
unicode = 1EA2;
},
{
glyphname = Amacron;
lastChange = "2015-07-16 17:52:31 +0000";
layers = (
{
components = (
{
name = A;
}
);
layerId = "F0FBE068-24F2-4D1F-B3A2-D9A3CAFE6F9A";
name = Regular;
paths = (
{
closed = 1;
nodes = (
"500 781 LINE",
"500 847 LINE",
"213 847 LINE",
"213 781 LINE"
);
}
);
width = 728;
}
);
note = Amacron;
unicode = 0100;
},
{
glyphname = Aogonek;
lastChange = "2015-07-16 17:52:31 +0000";
layers = (
{
layerId = "F0FBE068-24F2-4D1F-B3A2-D9A3CAFE6F9A";
name = Regular;
paths = (
{
closed = 1;
nodes = (
"631 -209 OFFCURVE",
"655 -204 OFFCURVE",
"674 -195 CURVE",
"665 -154 LINE",
"653 -158 OFFCURVE",
"640 -161 OFFCURVE",
"624 -161 CURVE SMOOTH",
"586 -161 OFFCURVE",
"562 -140 OFFCURVE",
"562 -105 CURVE SMOOTH",
"562 -61 OFFCURVE",
"597 -18 OFFCURVE",
"636 0 CURVE",
"711 0 LINE SMOOTH",
"721 0 OFFCURVE",
"724 8 OFFCURVE",
"724 18 CURVE SMOOTH",
"724 34 OFFCURVE",
"715 43 OFFCURVE",
"692 49 CURVE SMOOTH",
"651 59 LINE",
"418 695 LINE",
"306 695 LINE",
"74 60 LINE",
"50 60 LINE SMOOTH",
"23 60 OFFCURVE",
"5 48 OFFCURVE",
"5 25 CURVE SMOOTH",
"5 10 OFFCURVE",
"12 0 OFFCURVE",
"25 0 CURVE SMOOTH",
"229 0 LINE SMOOTH",
"238 0 OFFCURVE",
"242 6 OFFCURVE",
"242 16 CURVE SMOOTH",
"242 30 OFFCURVE",
"232 39 OFFCURVE",
"208 45 CURVE SMOOTH",
"150 59 LINE",
"207 219 LINE",
"491 219 LINE",
"549 60 LINE",
"512 60 LINE SMOOTH",
"485 60 OFFCURVE",
"467 48 OFFCURVE",
"467 25 CURVE SMOOTH",
"467 10 OFFCURVE",
"475 0 OFFCURVE",
"488 0 CURVE SMOOTH",
"568 0 LINE",
"524 -24 OFFCURVE",
"495 -65 OFFCURVE",
"495 -108 CURVE SMOOTH",
"495 -172 OFFCURVE",
"544 -209 OFFCURVE",
"611 -209 CURVE SMOOTH"
);
},
{
closed = 1;
nodes = (
"349 611 LINE",
"467 284 LINE",
"231 284 LINE"
);
}
);
width = 728;
}
);
note = Aogonek;
unicode = 0104;
},
{
glyphname = Aring;
lastChange = "2015-07-16 17:52:31 +0000";
layers = (
{
components = (
{
name = A;
}
);
layerId = "F0FBE068-24F2-4D1F-B3A2-D9A3CAFE6F9A";
name = Regular;
paths = (
{
closed = 1;
nodes = (
"420 744 OFFCURVE",
"458 786 OFFCURVE",
"458 837 CURVE SMOOTH",
"458 888 OFFCURVE",
"420 931 OFFCURVE",
"358 931 CURVE SMOOTH",
"297 931 OFFCURVE",
"259 888 OFFCURVE",
"259 837 CURVE SMOOTH",
"259 786 OFFCURVE",
"297 744 OFFCURVE",
"358 744 CURVE SMOOTH"
);
},
{
closed = 1;
nodes = (
"334 792 OFFCURVE",
"314 808 OFFCURVE",
"314 837 CURVE SMOOTH",
"314 867 OFFCURVE",
"334 883 OFFCURVE",
"359 883 CURVE SMOOTH",
"383 883 OFFCURVE",
"403 867 OFFCURVE",
"403 837 CURVE SMOOTH",
"403 808 OFFCURVE",
"383 792 OFFCURVE",
"359 792 CURVE SMOOTH"
);
}
);
width = 728;
}
);
note = Aring;
unicode = 00C5;
},
{
glyphname = Aringacute;
lastChange = "2015-07-16 17:52:31 +0000";
layers = (
{
components = (
{
name = A;
}
);
layerId = "F0FBE068-24F2-4D1F-B3A2-D9A3CAFE6F9A";
name = Regular;
paths = (
{
closed = 1;
nodes = (
"417 742 OFFCURVE",
"455 784 OFFCURVE",
"455 835 CURVE SMOOTH",
"455 886 OFFCURVE",
"417 929 OFFCURVE",
"355 929 CURVE SMOOTH",
"294 929 OFFCURVE",
"256 886 OFFCURVE",
"256 835 CURVE SMOOTH",
"256 784 OFFCURVE",
"294 742 OFFCURVE",
"355 742 CURVE SMOOTH"
);
},
{
closed = 1;
nodes = (
"331 790 OFFCURVE",
"311 806 OFFCURVE",
"311 835 CURVE SMOOTH",
"311 865 OFFCURVE",
"331 881 OFFCURVE",
"356 881 CURVE SMOOTH",
"380 881 OFFCURVE",
"400 865 OFFCURVE",
"400 835 CURVE SMOOTH",
"400 806 OFFCURVE",
"380 790 OFFCURVE",
"356 790 CURVE SMOOTH"
);
},
{
closed = 1;
nodes = (
"515 1101 LINE",
"442 1148 LINE",
"348 991 LINE",
"403 955 LINE"
);
}
);
width = 728;
}
);
note = Aringacute;
unicode = 01FA;
},
{
glyphname = Atilde;
lastChange = "2015-07-16 17:52:31 +0000";
layers = (
{
components = (
{
name = A;
}
);
layerId = "F0FBE068-24F2-4D1F-B3A2-D9A3CAFE6F9A";
name = Regular;
paths = (
{
closed = 1;
nodes = (
"454 763 OFFCURVE",
"489 782 OFFCURVE",
"518 810 CURVE",
"484 856 LINE",
"464 841 OFFCURVE",
"444 831 OFFCURVE",
"421 831 CURVE SMOOTH",
"383 831 OFFCURVE",
"345 868 OFFCURVE",
"303 868 CURVE SMOOTH",
"271 868 OFFCURVE",
"233 846 OFFCURVE",
"204 820 CURVE",
"237 774 LINE",
"258 789 OFFCURVE",
"277 800 OFFCURVE",
"302 800 CURVE SMOOTH",
"344 800 OFFCURVE",
"377 763 OFFCURVE",
"422 763 CURVE SMOOTH"
);
}
);
width = 728;
}
);
note = Atilde;
unicode = 00C3;
},
{
glyphname = AE;
lastChange = "2015-07-16 17:52:31 +0000";
layers = (
{
layerId = "F0FBE068-24F2-4D1F-B3A2-D9A3CAFE6F9A";
name = Regular;
paths = (
{
closed = 1;
nodes = (
"243 0 LINE SMOOTH",
"252 0 OFFCURVE",
"256 6 OFFCURVE",
"256 16 CURVE SMOOTH",
"256 30 OFFCURVE",
"248 39 OFFCURVE",
"222 45 CURVE SMOOTH",
"164 59 LINE",
"279 219 LINE",
"568 219 LINE",
"568 65 LINE",
"541 60 LINE SMOOTH",
"510 54 OFFCURVE",
"495 41 OFFCURVE",
"495 20 CURVE SMOOTH",
"495 6 OFFCURVE",
"502 0 OFFCURVE",
"511 0 CURVE SMOOTH",
"1064 0 LINE",
"1064 142 LINE SMOOTH",
"1064 152 OFFCURVE",
"1060 159 OFFCURVE",
"1047 159 CURVE SMOOTH",
"1032 159 OFFCURVE",
"1021 145 OFFCURVE",
"1013 110 CURVE SMOOTH",
"1003 64 LINE",
"668 64 LINE",
"668 324 LINE",
"932 324 LINE",
"945 281 LINE SMOOTH",
"951 260 OFFCURVE",
"960 251 OFFCURVE",
"971 251 CURVE SMOOTH",
"983 251 OFFCURVE",
"987 258 OFFCURVE",
"987 266 CURVE SMOOTH",
"987 445 LINE SMOOTH",
"987 453 OFFCURVE",
"983 460 OFFCURVE",
"971 460 CURVE SMOOTH",
"960 460 OFFCURVE",
"952 452 OFFCURVE",
"945 430 CURVE SMOOTH",
"932 387 LINE",
"668 387 LINE",
"668 631 LINE",
"990 631 LINE",
"999 588 LINE SMOOTH",
"1006 553 OFFCURVE",
"1018 538 OFFCURVE",
"1033 538 CURVE SMOOTH",
"1046 538 OFFCURVE",
"1050 545 OFFCURVE",
"1050 555 CURVE SMOOTH",
"1050 695 LINE",
"425 695 LINE SMOOTH",
"416 695 OFFCURVE",
"408 689 OFFCURVE",
"408 675 CURVE SMOOTH",
"408 654 OFFCURVE",
"421 643 OFFCURVE",
"454 636 CURVE SMOOTH",
"481 630 LINE",
"76 60 LINE",
"52 60 LINE SMOOTH",
"25 60 OFFCURVE",
"7 48 OFFCURVE",
"7 25 CURVE SMOOTH",
"7 10 OFFCURVE",
"14 0 OFFCURVE",
"27 0 CURVE SMOOTH"
);
},
{
closed = 1;
nodes = (
"568 628 LINE",
"568 284 LINE",
"323 284 LINE"
);
}
);
width = 1130;
}
);
note = AE;
unicode = 00C6;
},
{
glyphname = AEacute;
lastChange = "2015-07-16 17:52:31 +0000";
layers = (
{
layerId = "F0FBE068-24F2-4D1F-B3A2-D9A3CAFE6F9A";
name = Regular;
paths = (
{
closed = 1;
nodes = (
"243 0 LINE SMOOTH",
"252 0 OFFCURVE",
"256 6 OFFCURVE",
"256 16 CURVE SMOOTH",
"256 30 OFFCURVE",
"247 39 OFFCURVE",
"222 45 CURVE SMOOTH",
"164 59 LINE",
"279 219 LINE",
"568 219 LINE",
"568 65 LINE",
"541 60 LINE SMOOTH",
"510 54 OFFCURVE",
"495 41 OFFCURVE",
"495 20 CURVE SMOOTH",
"495 6 OFFCURVE",
"502 0 OFFCURVE",
"511 0 CURVE SMOOTH",
"1064 0 LINE",
"1064 142 LINE SMOOTH",
"1064 152 OFFCURVE",
"1060 159 OFFCURVE",
"1047 159 CURVE SMOOTH",
"1032 159 OFFCURVE",
"1021 145 OFFCURVE",
"1013 110 CURVE SMOOTH",
"1003 64 LINE",
"668 64 LINE",
"668 324 LINE",
"932 324 LINE",
"945 281 LINE SMOOTH",
"951 260 OFFCURVE",
"960 251 OFFCURVE",
"971 251 CURVE SMOOTH",
"983 251 OFFCURVE",
"987 258 OFFCURVE",
"987 266 CURVE SMOOTH",
"987 445 LINE SMOOTH",
"987 453 OFFCURVE",
"983 460 OFFCURVE",
"971 460 CURVE SMOOTH",
"960 460 OFFCURVE",
"952 452 OFFCURVE",
"945 430 CURVE SMOOTH",
"932 387 LINE",
"668 387 LINE",
"668 631 LINE",
"990 631 LINE",
"999 588 LINE SMOOTH",
"1006 553 OFFCURVE",
"1018 538 OFFCURVE",
"1033 538 CURVE SMOOTH",
"1046 538 OFFCURVE",
"1050 545 OFFCURVE",
"1050 555 CURVE SMOOTH",
"1050 695 LINE",
"425 695 LINE SMOOTH",
"416 695 OFFCURVE",
"408 689 OFFCURVE",
"408 675 CURVE SMOOTH",
"408 654 OFFCURVE",
"421 643 OFFCURVE",
"454 636 CURVE SMOOTH",
"481 630 LINE",
"76 60 LINE",
"52 60 LINE SMOOTH",
"25 60 OFFCURVE",
"7 48 OFFCURVE",
"7 25 CURVE SMOOTH",
"7 10 OFFCURVE",
"14 0 OFFCURVE",
"27 0 CURVE SMOOTH"
);
},
{
closed = 1;
nodes = (
"568 628 LINE",
"568 284 LINE",
"323 284 LINE"
);
},
{
closed = 1;
nodes = (
"854 898 LINE",
"781 945 LINE",
"687 788 LINE",
"742 752 LINE"
);
}
);
width = 1130;
}
);
note = AEacute;
unicode = 01FC;
},
{
glyphname = B;
lastChange = "2015-07-16 17:52:31 +0000";
layers = (
{
layerId = "F0FBE068-24F2-4D1F-B3A2-D9A3CAFE6F9A";
name = Regular;
paths = (
{
closed = 1;
nodes = (
"415 0 LINE SMOOTH",
"553 0 OFFCURVE",
"645 67 OFFCURVE",
"645 192 CURVE SMOOTH",
"645 279 OFFCURVE",
"592 339 OFFCURVE",
"505 364 CURVE",
"505 368 LINE",
"567 392 OFFCURVE",
"605 443 OFFCURVE",
"605 511 CURVE SMOOTH",
"605 628 OFFCURVE",
"521 695 OFFCURVE",
"378 695 CURVE SMOOTH",
"71 695 LINE SMOOTH",
"62 695 OFFCURVE",
"55 689 OFFCURVE",
"55 675 CURVE SMOOTH",
"55 654 OFFCURVE",
"69 641 OFFCURVE",
"101 635 CURVE SMOOTH",
"128 630 LINE",
"128 65 LINE",
"101 60 LINE SMOOTH",
"68 54 OFFCURVE",
"55 41 OFFCURVE",
"55 20 CURVE SMOOTH",
"55 6 OFFCURVE",
"62 0 OFFCURVE",
"71 0 CURVE SMOOTH"
);
},
{
closed = 1;
nodes = (
"228 327 LINE",
"406 327 LINE SMOOTH",
"496 327 OFFCURVE",
"545 274 OFFCURVE",
"545 194 CURVE SMOOTH",
"545 114 OFFCURVE",
"498 64 OFFCURVE",
"401 64 CURVE SMOOTH",
"228 64 LINE"
);
},
{
closed = 1;
nodes = (
"228 631 LINE",
"373 631 LINE SMOOTH",
"458 631 OFFCURVE",
"505 583 OFFCURVE",
"505 510 CURVE SMOOTH",
"505 436 OFFCURVE",
"457 390 OFFCURVE",
"386 390 CURVE SMOOTH",
"228 390 LINE"
);
}
);
width = 700;
}
);
note = B;
unicode = 0042;
},
{
glyphname = C;
lastChange = "2015-07-16 17:52:31 +0000";
layers = (
{
layerId = "F0FBE068-24F2-4D1F-B3A2-D9A3CAFE6F9A";
name = Regular;
paths = (
{
closed = 1;
nodes = (
"476 -13 OFFCURVE",
"542 11 OFFCURVE",
"579 35 CURVE SMOOTH",
"595 45 OFFCURVE",
"611 58 OFFCURVE",
"611 78 CURVE SMOOTH",
"611 94 OFFCURVE",
"597 107 OFFCURVE",
"584 107 CURVE SMOOTH",
"575 107 OFFCURVE",
"569 103 OFFCURVE",
"555 93 CURVE SMOOTH",
"513 63 OFFCURVE",
"458 53 OFFCURVE",
"398 53 CURVE SMOOTH",
"252 53 OFFCURVE",
"146 156 OFFCURVE",
"146 348 CURVE SMOOTH",
"146 539 OFFCURVE",
"245 642 OFFCURVE",
"390 642 CURVE SMOOTH",
"452 642 OFFCURVE",
"504 626 OFFCURVE",
"535 604 CURVE",
"551 535 LINE SMOOTH",
"558 506 OFFCURVE",
"567 493 OFFCURVE",
"585 493 CURVE SMOOTH",
"600 493 OFFCURVE",
"604 501 OFFCURVE",
"604 511 CURVE SMOOTH",
"604 633 LINE",
"553 676 OFFCURVE",
"472 708 OFFCURVE",
"374 708 CURVE SMOOTH",
"195 708 OFFCURVE",
"44 587 OFFCURVE",
"44 348 CURVE SMOOTH",
"44 109 OFFCURVE",
"194 -13 OFFCURVE",
"386 -13 CURVE SMOOTH"
);
}
);
width = 660;
}
);
note = C;
unicode = 0043;
},
{
glyphname = Cacute;
lastChange = "2015-07-16 17:52:31 +0000";
layers = (
{
components = (
{
name = C;
}
);
layerId = "F0FBE068-24F2-4D1F-B3A2-D9A3CAFE6F9A";
name = Regular;
paths = (
{
closed = 1;
nodes = (
"473 899 LINE",
"400 946 LINE",
"306 789 LINE",
"361 753 LINE"
);
}
);
width = 660;
}
);
note = Cacute;
unicode = 0106;
},
{
glyphname = Ccaron;
lastChange = "2015-07-16 17:52:31 +0000";
layers = (
{
components = (
{
name = C;
}
);
layerId = "F0FBE068-24F2-4D1F-B3A2-D9A3CAFE6F9A";
name = Regular;
paths = (
{
closed = 1;
nodes = (
"383 752 LINE",
"495 895 LINE",
"451 932 LINE",
"358 830 LINE",
"266 932 LINE",
"222 895 LINE",
"334 752 LINE"
);
}
);
width = 660;
}
);
note = Ccaron;
unicode = 010C;
},
{
glyphname = Ccedilla;
lastChange = "2015-07-16 17:52:31 +0000";
layers = (
{
layerId = "F0FBE068-24F2-4D1F-B3A2-D9A3CAFE6F9A";
name = Regular;
paths = (
{
closed = 1;
nodes = (
"379 -206 OFFCURVE",
"438 -168 OFFCURVE",
"438 -120 CURVE SMOOTH",
"438 -85 OFFCURVE",
"416 -65 OFFCURVE",
"389 -54 CURVE",
"408 -13 LINE",
"487 -9 OFFCURVE",
"545 13 OFFCURVE",
"579 35 CURVE SMOOTH",
"595 45 OFFCURVE",
"611 58 OFFCURVE",
"611 78 CURVE SMOOTH",
"611 94 OFFCURVE",
"597 107 OFFCURVE",
"584 107 CURVE SMOOTH",
"575 107 OFFCURVE",
"569 103 OFFCURVE",
"555 93 CURVE SMOOTH",
"511 63 OFFCURVE",
"458 53 OFFCURVE",
"398 53 CURVE SMOOTH",
"252 53 OFFCURVE",
"146 156 OFFCURVE",
"146 348 CURVE SMOOTH",
"146 539 OFFCURVE",
"245 642 OFFCURVE",
"390 642 CURVE SMOOTH",
"452 642 OFFCURVE",
"504 626 OFFCURVE",
"535 604 CURVE",
"551 535 LINE SMOOTH",
"557 508 OFFCURVE",
"567 493 OFFCURVE",
"585 493 CURVE SMOOTH",
"600 493 OFFCURVE",
"604 501 OFFCURVE",
"604 511 CURVE SMOOTH",
"604 633 LINE",
"553 676 OFFCURVE",
"472 708 OFFCURVE",
"374 708 CURVE SMOOTH",
"195 708 OFFCURVE",
"44 587 OFFCURVE",
"44 348 CURVE SMOOTH",
"44 126 OFFCURVE",
"173 5 OFFCURVE",
"345 -11 CURVE",
"325 -66 LINE",
"357 -76 OFFCURVE",
"370 -93 OFFCURVE",
"370 -118 CURVE SMOOTH",
"370 -146 OFFCURVE",
"349 -170 OFFCURVE",
"302 -185 CURVE",
"316 -220 LINE"
);
}
);
width = 660;
}
);
note = Ccedilla;
unicode = 00C7;
},
{
glyphname = Ccircumflex;
lastChange = "2015-07-16 17:52:31 +0000";
layers = (
{
components = (
{
name = C;
}
);
layerId = "F0FBE068-24F2-4D1F-B3A2-D9A3CAFE6F9A";
name = Regular;
paths = (
{
closed = 1;
nodes = (
"359 854 LINE",
"452 752 LINE",
"496 789 LINE",
"384 932 LINE",
"335 932 LINE",
"223 789 LINE",
"267 752 LINE"
);
}
);
width = 660;
}
);
note = Ccircumflex;
unicode = 0108;
},
{
glyphname = Cdotaccent;
lastChange = "2015-07-16 17:52:31 +0000";
layers = (
{
components = (
{
name = C;
}
);
layerId = "F0FBE068-24F2-4D1F-B3A2-D9A3CAFE6F9A";
name = Regular;
paths = (
{
closed = 1;
nodes = (
"393 769 OFFCURVE",
"417 793 OFFCURVE",
"417 824 CURVE SMOOTH",
"417 856 OFFCURVE",
"393 880 OFFCURVE",
"362 880 CURVE SMOOTH",
"332 880 OFFCURVE",
"307 856 OFFCURVE",
"307 824 CURVE SMOOTH",
"307 793 OFFCURVE",
"332 769 OFFCURVE",
"362 769 CURVE SMOOTH"
);
}
);
width = 660;
}
);
note = Cdotaccent;
unicode = 010A;
},
{
glyphname = D;
lastChange = "2015-07-16 17:52:31 +0000";
layers = (
{
layerId = "F0FBE068-24F2-4D1F-B3A2-D9A3CAFE6F9A";
name = Regular;
paths = (
{
closed = 1;
nodes = (
"368 0 LINE SMOOTH",
"554 0 OFFCURVE",
"703 106 OFFCURVE",
"703 346 CURVE SMOOTH",
"703 587 OFFCURVE",
"554 695 OFFCURVE",
"368 695 CURVE SMOOTH",
"71 695 LINE SMOOTH",
"62 695 OFFCURVE",
"55 689 OFFCURVE",
"55 675 CURVE SMOOTH",
"55 654 OFFCURVE",
"69 641 OFFCURVE",
"101 635 CURVE SMOOTH",
"128 630 LINE",
"128 65 LINE",
"101 60 LINE SMOOTH",
"69 54 OFFCURVE",
"55 41 OFFCURVE",
"55 20 CURVE SMOOTH",
"55 6 OFFCURVE",
"62 0 OFFCURVE",
"71 0 CURVE SMOOTH"
);
},
{
closed = 1;
nodes = (
"228 629 LINE",
"368 629 LINE SMOOTH",
"516 629 OFFCURVE",
"601 524 OFFCURVE",
"601 346 CURVE SMOOTH",
"601 169 OFFCURVE",
"516 66 OFFCURVE",
"368 66 CURVE SMOOTH",
"228 66 LINE"
);
}
);
width = 747;
}
);
note = D;
unicode = 0044;
},
{
glyphname = Eth;
lastChange = "2015-07-16 17:52:31 +0000";
layers = (
{
layerId = "F0FBE068-24F2-4D1F-B3A2-D9A3CAFE6F9A";
name = Regular;
paths = (
{
closed = 1;
nodes = (
"370 0 LINE SMOOTH",
"556 0 OFFCURVE",
"705 106 OFFCURVE",
"705 346 CURVE SMOOTH",
"705 587 OFFCURVE",
"556 695 OFFCURVE",
"370 695 CURVE SMOOTH",
"73 695 LINE SMOOTH",
"64 695 OFFCURVE",
"57 689 OFFCURVE",
"57 675 CURVE SMOOTH",
"57 654 OFFCURVE",
"71 643 OFFCURVE",
"103 636 CURVE SMOOTH",
"130 630 LINE",
"130 387 LINE",
"62 387 LINE",
"62 321 LINE",
"130 321 LINE",
"130 65 LINE",
"103 59 LINE SMOOTH",
"71 52 OFFCURVE",
"57 41 OFFCURVE",
"57 20 CURVE SMOOTH",
"57 6 OFFCURVE",
"64 0 OFFCURVE",
"73 0 CURVE SMOOTH"
);
},
{
closed = 1;
nodes = (
"230 321 LINE",
"412 321 LINE",
"412 387 LINE",
"230 387 LINE",
"230 629 LINE",
"370 629 LINE SMOOTH",
"518 629 OFFCURVE",
"603 524 OFFCURVE",
"603 346 CURVE SMOOTH",
"603 169 OFFCURVE",
"518 66 OFFCURVE",
"370 66 CURVE SMOOTH",
"230 66 LINE"
);
}
);
width = 749;
}
);
note = Eth;
unicode = 00D0;
},
{
glyphname = Dcaron;
lastChange = "2015-07-16 17:52:31 +0000";
layers = (
{
components = (
{
name = D;
}
);
layerId = "F0FBE068-24F2-4D1F-B3A2-D9A3CAFE6F9A";
name = Regular;
paths = (
{
closed = 1;
nodes = (
"371 752 LINE",
"483 895 LINE",
"439 932 LINE",
"346 830 LINE",
"254 932 LINE",
"210 895 LINE",
"322 752 LINE"
);
}
);
width = 747;
}
);
note = Dcaron;
unicode = 010E;
},
{
glyphname = Dcroat;
lastChange = "2015-07-16 17:52:31 +0000";
layers = (
{
layerId = "F0FBE068-24F2-4D1F-B3A2-D9A3CAFE6F9A";
name = Regular;
paths = (
{
closed = 1;
nodes = (
"370 0 LINE SMOOTH",
"556 0 OFFCURVE",
"705 106 OFFCURVE",
"705 346 CURVE SMOOTH",
"705 587 OFFCURVE",
"556 695 OFFCURVE",
"370 695 CURVE SMOOTH",
"73 695 LINE SMOOTH",
"64 695 OFFCURVE",
"57 689 OFFCURVE",
"57 675 CURVE SMOOTH",
"57 654 OFFCURVE",
"71 643 OFFCURVE",
"103 636 CURVE SMOOTH",
"130 630 LINE",
"130 387 LINE",
"62 387 LINE",
"62 321 LINE",
"130 321 LINE",
"130 65 LINE",
"103 59 LINE SMOOTH",
"71 52 OFFCURVE",
"57 41 OFFCURVE",
"57 20 CURVE SMOOTH",
"57 6 OFFCURVE",
"64 0 OFFCURVE",
"73 0 CURVE SMOOTH"
);
},
{
closed = 1;
nodes = (
"230 321 LINE",
"412 321 LINE",
"412 387 LINE",
"230 387 LINE",
"230 629 LINE",
"370 629 LINE SMOOTH",
"518 629 OFFCURVE",
"603 524 OFFCURVE",
"603 346 CURVE SMOOTH",
"603 169 OFFCURVE",
"518 66 OFFCURVE",
"370 66 CURVE SMOOTH",
"230 66 LINE"
);
}
);
width = 749;
}
);
note = Dcroat;
unicode = 0110;
},
{
glyphname = Ddotbelow;
lastChange = "2015-07-16 17:52:31 +0000";
layers = (
{
components = (
{
name = D;
}
);
layerId = "F0FBE068-24F2-4D1F-B3A2-D9A3CAFE6F9A";
name = Regular;
paths = (
{
closed = 1;
nodes = (
"403 -177 OFFCURVE",
"427 -153 OFFCURVE",
"427 -121 CURVE SMOOTH",
"427 -89 OFFCURVE",
"403 -66 OFFCURVE",
"372 -66 CURVE SMOOTH",
"342 -66 OFFCURVE",
"317 -89 OFFCURVE",
"317 -121 CURVE SMOOTH",
"317 -153 OFFCURVE",
"342 -177 OFFCURVE",
"372 -177 CURVE SMOOTH"
);
}
);
width = 747;
}
);
note = Ddotbelow;
unicode = 1E0C;
},
{
glyphname = Dlinebelow;
lastChange = "2015-07-16 17:52:31 +0000";
layers = (
{
components = (
{
name = D;
}
);
layerId = "F0FBE068-24F2-4D1F-B3A2-D9A3CAFE6F9A";
name = Regular;
paths = (
{
closed = 1;
nodes = (
"548 -153 LINE",
"548 -88 LINE",
"160 -88 LINE",
"160 -153 LINE"
);
}
);
width = 747;
}
);
note = Dlinebelow;
unicode = 1E0E;
},
{
glyphname = E;
lastChange = "2015-07-16 17:52:31 +0000";
layers = (
{
layerId = "F0FBE068-24F2-4D1F-B3A2-D9A3CAFE6F9A";
name = Regular;
paths = (
{
closed = 1;
nodes = (
"629 0 LINE",
"629 142 LINE SMOOTH",
"629 152 OFFCURVE",
"625 159 OFFCURVE",
"612 159 CURVE SMOOTH",
"597 159 OFFCURVE",
"587 145 OFFCURVE",
"579 110 CURVE SMOOTH",
"569 64 LINE",
"228 64 LINE",
"228 324 LINE",
"497 324 LINE",
"510 281 LINE SMOOTH",
"517 259 OFFCURVE",
"525 251 OFFCURVE",
"536 251 CURVE SMOOTH",
"548 251 OFFCURVE",
"552 258 OFFCURVE",
"552 266 CURVE SMOOTH",
"552 445 LINE SMOOTH",
"552 453 OFFCURVE",
"548 460 OFFCURVE",
"536 460 CURVE SMOOTH",
"525 460 OFFCURVE",
"517 452 OFFCURVE",
"510 430 CURVE SMOOTH",
"497 387 LINE",
"228 387 LINE",
"228 631 LINE",
"555 631 LINE",
"565 588 LINE SMOOTH",
"573 553 OFFCURVE",
"583 538 OFFCURVE",
"599 538 CURVE SMOOTH",
"611 538 OFFCURVE",
"616 545 OFFCURVE",
"616 555 CURVE SMOOTH",
"616 695 LINE",
"71 695 LINE SMOOTH",
"62 695 OFFCURVE",
"55 689 OFFCURVE",
"55 675 CURVE SMOOTH",
"55 654 OFFCURVE",
"68 641 OFFCURVE",
"101 635 CURVE SMOOTH",
"128 630 LINE",
"128 65 LINE",
"101 60 LINE SMOOTH",
"69 54 OFFCURVE",
"55 41 OFFCURVE",
"55 20 CURVE SMOOTH",
"55 6 OFFCURVE",
"62 0 OFFCURVE",
"71 0 CURVE SMOOTH"
);
}
);
width = 696;
}
);
note = E;
unicode = 0045;
},
{
glyphname = Eacute;
lastChange = "2015-07-16 17:52:31 +0000";
layers = (
{
components = (
{
name = E;
}
);
layerId = "F0FBE068-24F2-4D1F-B3A2-D9A3CAFE6F9A";
name = Regular;
paths = (
{
closed = 1;
nodes = (
"453 899 LINE",
"380 946 LINE",
"286 789 LINE",
"341 753 LINE"
);
}
);
width = 696;
}
);
note = Eacute;
unicode = 00C9;
},
{
glyphname = Ebreve;
lastChange = "2015-07-16 17:52:31 +0000";
layers = (
{
components = (
{
name = E;
}
);
layerId = "F0FBE068-24F2-4D1F-B3A2-D9A3CAFE6F9A";
name = Regular;
paths = (
{
closed = 1;
nodes = (
"416 747 OFFCURVE",
"478 782 OFFCURVE",
"504 874 CURVE",
"449 893 LINE",
"434 844 OFFCURVE",
"399 813 OFFCURVE",
"349 813 CURVE SMOOTH",
"300 813 OFFCURVE",
"265 844 OFFCURVE",
"249 893 CURVE",
"195 874 LINE",
"221 782 OFFCURVE",
"283 747 OFFCURVE",
"349 747 CURVE SMOOTH"
);
}
);
width = 696;
}
);
note = Ebreve;
unicode = 0114;
},
{
glyphname = Ecaron;
lastChange = "2015-07-16 17:52:31 +0000";
layers = (
{
components = (
{
name = E;
}
);
layerId = "F0FBE068-24F2-4D1F-B3A2-D9A3CAFE6F9A";
name = Regular;
paths = (
{
closed = 1;
nodes = (
"375 752 LINE",
"487 895 LINE",
"443 932 LINE",
"350 830 LINE",
"258 932 LINE",
"214 895 LINE",
"326 752 LINE"
);
}
);
width = 696;
}
);
note = Ecaron;
unicode = 011A;
},
{
glyphname = Ecircumflex;
lastChange = "2015-07-16 17:52:31 +0000";
layers = (
{
components = (
{
name = E;
}
);
layerId = "F0FBE068-24F2-4D1F-B3A2-D9A3CAFE6F9A";
name = Regular;
paths = (
{
closed = 1;
nodes = (
"350 854 LINE",
"443 752 LINE",
"487 789 LINE",
"375 932 LINE",
"326 932 LINE",
"214 789 LINE",
"258 752 LINE"
);
}
);
width = 696;
}
);
note = Ecircumflex;
unicode = 00CA;
},
{
glyphname = Ecircumflexacute;
lastChange = "2015-07-16 17:52:31 +0000";
layers = (
{
components = (
{
name = E;
}
);
layerId = "F0FBE068-24F2-4D1F-B3A2-D9A3CAFE6F9A";
name = Regular;
paths = (
{
closed = 1;
nodes = (
"355 854 LINE",
"448 752 LINE",
"492 789 LINE",
"380 932 LINE",
"331 932 LINE",
"219 789 LINE",
"263 752 LINE"
);
},
{
closed = 1;
nodes = (
"584 963 LINE",
"519 1005 LINE",
"454 890 LINE",
"498 861 LINE"
);
}
);
width = 696;
}
);
note = Ecircumflexacute;
unicode = 1EBE;
},
{
glyphname = Ecircumflexdotbelow;
lastChange = "2015-07-16 17:52:31 +0000";
layers = (
{
components = (
{
name = E;
}
);
layerId = "F0FBE068-24F2-4D1F-B3A2-D9A3CAFE6F9A";
name = Regular;
paths = (
{
closed = 1;
nodes = (
"390 -177 OFFCURVE",
"414 -153 OFFCURVE",
"414 -121 CURVE SMOOTH",
"414 -89 OFFCURVE",
"390 -66 OFFCURVE",
"359 -66 CURVE SMOOTH",
"329 -66 OFFCURVE",
"304 -89 OFFCURVE",
"304 -121 CURVE SMOOTH",
"304 -153 OFFCURVE",
"329 -177 OFFCURVE",
"359 -177 CURVE SMOOTH"
);
},
{
closed = 1;
nodes = (
"350 854 LINE",
"443 752 LINE",
"487 789 LINE",
"375 932 LINE",
"326 932 LINE",
"214 789 LINE",
"258 752 LINE"
);
}
);
width = 696;
}
);
note = Ecircumflexdotbelow;
unicode = 1EC6;
},
{
glyphname = Ecircumflexgrave;
lastChange = "2015-07-16 17:52:31 +0000";
layers = (
{
components = (
{
name = E;
}
);
layerId = "F0FBE068-24F2-4D1F-B3A2-D9A3CAFE6F9A";
name = Regular;
paths = (
{
closed = 1;
nodes = (
"258 890 LINE",
"193 1005 LINE",
"128 963 LINE",
"214 861 LINE"
);
},
{
closed = 1;
nodes = (
"357 854 LINE",
"450 752 LINE",
"494 789 LINE",
"382 932 LINE",
"333 932 LINE",
"221 789 LINE",
"265 752 LINE"
);
}
);
width = 696;
}
);
note = Ecircumflexgrave;
unicode = 1EC0;
},
{
glyphname = Ecircumflexhookabove;
lastChange = "2015-07-16 17:52:31 +0000";
layers = (
{
components = (
{
name = E;
}
);
layerId = "F0FBE068-24F2-4D1F-B3A2-D9A3CAFE6F9A";
name = Regular;
paths = (
{
closed = 1;
nodes = (
"343 854 LINE",
"436 752 LINE",
"480 789 LINE",
"368 932 LINE",
"319 932 LINE",
"207 789 LINE",
"251 752 LINE"
);
},
{
closed = 1;
nodes = (
"522 857 LINE",
"528 902 LINE",
"565 916 OFFCURVE",
"588 941 OFFCURVE",
"588 974 CURVE SMOOTH",
"588 1015 OFFCURVE",
"554 1044 OFFCURVE",
"502 1044 CURVE SMOOTH",
"480 1044 OFFCURVE",
"453 1037 OFFCURVE",
"437 1030 CURVE",
"444 993 LINE",
"461 998 OFFCURVE",
"476 1002 OFFCURVE",
"493 1002 CURVE SMOOTH",
"514 1002 OFFCURVE",
"525 992 OFFCURVE",
"525 974 CURVE SMOOTH",
"525 951 OFFCURVE",
"505 936 OFFCURVE",
"471 924 CURVE",
"476 857 LINE"
);
}
);
width = 696;
}
);
note = Ecircumflexhookabove;
unicode = 1EC2;
},
{
glyphname = Ecircumflextilde;
lastChange = "2015-07-16 17:52:31 +0000";
layers = (
{
components = (
{
name = E;
}
);
layerId = "F0FBE068-24F2-4D1F-B3A2-D9A3CAFE6F9A";
name = Regular;
paths = (
{
closed = 1;
nodes = (
"355 854 LINE",
"448 752 LINE",
"492 789 LINE",
"380 932 LINE",
"331 932 LINE",
"219 789 LINE",
"263 752 LINE"
);
},
{
closed = 1;
nodes = (
"430 962 OFFCURVE",
"457 977 OFFCURVE",
"480 1000 CURVE",
"453 1040 LINE",
"438 1028 OFFCURVE",
"422 1021 OFFCURVE",
"404 1021 CURVE SMOOTH",
"374 1021 OFFCURVE",
"344 1050 OFFCURVE",
"311 1050 CURVE SMOOTH",
"287 1050 OFFCURVE",
"257 1033 OFFCURVE",
"234 1013 CURVE",
"261 971 LINE",
"276 982 OFFCURVE",
"291 992 OFFCURVE",
"311 992 CURVE SMOOTH",
"344 992 OFFCURVE",
"369 962 OFFCURVE",
"405 962 CURVE SMOOTH"
);
}
);
width = 696;
}
);
note = Ecircumflextilde;
unicode = 1EC4;
},
{
glyphname = Edieresis;
lastChange = "2015-07-16 17:52:32 +0000";
layers = (
{
components = (
{
name = E;
}
);
layerId = "F0FBE068-24F2-4D1F-B3A2-D9A3CAFE6F9A";
name = Regular;
paths = (
{
closed = 1;
nodes = (
"291 763 OFFCURVE",
"317 786 OFFCURVE",
"317 818 CURVE SMOOTH",
"317 850 OFFCURVE",
"291 873 OFFCURVE",
"262 873 CURVE SMOOTH",
"232 873 OFFCURVE",
"207 850 OFFCURVE",
"207 818 CURVE SMOOTH",
"207 786 OFFCURVE",
"232 763 OFFCURVE",
"262 763 CURVE SMOOTH"
);
},
{
closed = 1;
nodes = (
"488 763 OFFCURVE",
"514 786 OFFCURVE",
"514 818 CURVE SMOOTH",
"514 850 OFFCURVE",
"488 873 OFFCURVE",
"459 873 CURVE SMOOTH",
"429 873 OFFCURVE",
"404 850 OFFCURVE",
"404 818 CURVE SMOOTH",
"404 786 OFFCURVE",
"429 763 OFFCURVE",
"459 763 CURVE SMOOTH"
);
}
);
width = 696;
}
);
note = Edieresis;
unicode = 00CB;
},
{
glyphname = Edotaccent;
lastChange = "2015-07-16 17:52:31 +0000";
layers = (
{
components = (
{
name = E;
}
);
layerId = "F0FBE068-24F2-4D1F-B3A2-D9A3CAFE6F9A";
name = Regular;
paths = (
{
closed = 1;
nodes = (
"387 769 OFFCURVE",
"411 793 OFFCURVE",
"411 824 CURVE SMOOTH",
"411 856 OFFCURVE",
"387 880 OFFCURVE",
"356 880 CURVE SMOOTH",
"326 880 OFFCURVE",
"301 856 OFFCURVE",
"301 824 CURVE SMOOTH",
"301 793 OFFCURVE",
"326 769 OFFCURVE",
"356 769 CURVE SMOOTH"
);
}
);
width = 696;
}
);
note = Edotaccent;
unicode = 0116;
},
{
glyphname = Edotbelow;
lastChange = "2015-07-16 17:52:31 +0000";
layers = (
{
components = (
{
name = E;
}
);
layerId = "F0FBE068-24F2-4D1F-B3A2-D9A3CAFE6F9A";
name = Regular;
paths = (
{
closed = 1;
nodes = (
"396 -177 OFFCURVE",
"420 -153 OFFCURVE",
"420 -121 CURVE SMOOTH",
"420 -89 OFFCURVE",
"396 -66 OFFCURVE",
"365 -66 CURVE SMOOTH",
"335 -66 OFFCURVE",
"310 -89 OFFCURVE",
"310 -121 CURVE SMOOTH",
"310 -153 OFFCURVE",
"335 -177 OFFCURVE",
"365 -177 CURVE SMOOTH"
);
}
);
width = 696;
}
);
note = Edotbelow;
unicode = 1EB8;
},
{
glyphname = Egrave;
lastChange = "2015-07-16 17:52:32 +0000";
layers = (
{
components = (
{
name = E;
}
);
layerId = "F0FBE068-24F2-4D1F-B3A2-D9A3CAFE6F9A";
name = Regular;
paths = (
{
closed = 1;
nodes = (
"415 789 LINE",
"321 946 LINE",
"248 899 LINE",
"360 753 LINE"
);
}
);
width = 696;
}
);
note = Egrave;
unicode = 00C8;
},
{
glyphname = Ehookabove;
lastChange = "2015-07-16 17:52:31 +0000";
layers = (
{
components = (
{
name = E;
}
);
layerId = "F0FBE068-24F2-4D1F-B3A2-D9A3CAFE6F9A";
name = Regular;
paths = (
{
closed = 1;
nodes = (
"376 750 LINE",
"382 796 LINE",
"421 810 OFFCURVE",
"445 837 OFFCURVE",
"445 871 CURVE SMOOTH",
"445 912 OFFCURVE",
"409 943 OFFCURVE",
"356 943 CURVE SMOOTH",
"333 943 OFFCURVE",
"305 935 OFFCURVE",
"289 928 CURVE",
"296 890 LINE",
"313 895 OFFCURVE",
"330 899 OFFCURVE",
"347 899 CURVE SMOOTH",
"369 899 OFFCURVE",
"380 889 OFFCURVE",
"380 870 CURVE SMOOTH",
"380 847 OFFCURVE",
"359 831 OFFCURVE",
"324 819 CURVE",
"330 750 LINE"
);
}
);
width = 696;
}
);
note = Ehookabove;
unicode = 1EBA;
},
{
glyphname = Emacron;
lastChange = "2015-07-16 17:52:31 +0000";
layers = (
{
components = (
{
name = E;
}
);
layerId = "F0FBE068-24F2-4D1F-B3A2-D9A3CAFE6F9A";
name = Regular;
paths = (
{
closed = 1;
nodes = (
"498 781 LINE",
"498 847 LINE",
"211 847 LINE",
"211 781 LINE"
);
}
);
width = 696;
}
);
note = Emacron;
unicode = 0112;
},
{
glyphname = Eogonek;
lastChange = "2015-07-16 17:52:32 +0000";
layers = (
{
layerId = "F0FBE068-24F2-4D1F-B3A2-D9A3CAFE6F9A";
name = Regular;
paths = (
{
closed = 1;
nodes = (
"586 -209 OFFCURVE",
"610 -204 OFFCURVE",
"629 -195 CURVE",
"620 -154 LINE",
"608 -158 OFFCURVE",
"595 -161 OFFCURVE",
"579 -161 CURVE SMOOTH",
"541 -161 OFFCURVE",
"517 -140 OFFCURVE",
"517 -105 CURVE SMOOTH",
"517 -61 OFFCURVE",
"552 -18 OFFCURVE",
"591 0 CURVE",
"629 0 LINE",
"629 142 LINE SMOOTH",
"629 152 OFFCURVE",
"625 159 OFFCURVE",
"612 159 CURVE SMOOTH",
"597 159 OFFCURVE",
"587 145 OFFCURVE",
"579 110 CURVE SMOOTH",
"569 64 LINE",
"228 64 LINE",
"228 324 LINE",
"497 324 LINE",
"510 281 LINE SMOOTH",
"516 261 OFFCURVE",
"525 251 OFFCURVE",
"536 251 CURVE SMOOTH",
"548 251 OFFCURVE",
"552 258 OFFCURVE",
"552 266 CURVE SMOOTH",
"552 445 LINE SMOOTH",
"552 453 OFFCURVE",
"548 460 OFFCURVE",
"536 460 CURVE SMOOTH",
"525 460 OFFCURVE",
"516 451 OFFCURVE",
"510 430 CURVE SMOOTH",
"497 387 LINE",
"228 387 LINE",
"228 631 LINE",
"555 631 LINE",
"565 588 LINE SMOOTH",
"573 553 OFFCURVE",
"583 538 OFFCURVE",
"599 538 CURVE SMOOTH",
"611 538 OFFCURVE",
"616 545 OFFCURVE",
"616 555 CURVE SMOOTH",
"616 695 LINE",
"71 695 LINE SMOOTH",
"62 695 OFFCURVE",
"55 689 OFFCURVE",
"55 675 CURVE SMOOTH",
"55 654 OFFCURVE",
"68 643 OFFCURVE",
"101 636 CURVE SMOOTH",
"128 630 LINE",
"128 65 LINE",
"101 59 LINE SMOOTH",
"69 52 OFFCURVE",
"55 41 OFFCURVE",
"55 20 CURVE SMOOTH",
"55 6 OFFCURVE",
"62 0 OFFCURVE",
"71 0 CURVE SMOOTH",
"523 0 LINE",
"479 -24 OFFCURVE",
"450 -65 OFFCURVE",
"450 -108 CURVE SMOOTH",
"450 -172 OFFCURVE",
"499 -209 OFFCURVE",
"566 -209 CURVE SMOOTH"
);
}
);
width = 696;
}
);
note = Eogonek;
unicode = 0118;
},
{
glyphname = Etilde;
lastChange = "2015-07-16 17:52:31 +0000";
layers = (
{
components = (
{
name = E;
}
);
layerId = "F0FBE068-24F2-4D1F-B3A2-D9A3CAFE6F9A";
name = Regular;
paths = (
{
closed = 1;
nodes = (
"456 763 OFFCURVE",
"491 782 OFFCURVE",
"520 810 CURVE",
"486 856 LINE",
"466 841 OFFCURVE",
"446 831 OFFCURVE",
"423 831 CURVE SMOOTH",
"385 831 OFFCURVE",
"347 868 OFFCURVE",
"305 868 CURVE SMOOTH",
"273 868 OFFCURVE",
"235 846 OFFCURVE",
"206 820 CURVE",
"239 774 LINE",
"260 789 OFFCURVE",
"279 800 OFFCURVE",
"304 800 CURVE SMOOTH",
"346 800 OFFCURVE",
"379 763 OFFCURVE",
"424 763 CURVE SMOOTH"
);
}
);
width = 696;
}
);
note = Etilde;
unicode = 1EBC;
},
{
glyphname = F;
lastChange = "2015-07-16 17:52:31 +0000";
layers = (
{
layerId = "F0FBE068-24F2-4D1F-B3A2-D9A3CAFE6F9A";
name = Regular;
paths = (
{
closed = 1;
nodes = (
"292 0 LINE SMOOTH",
"303 0 OFFCURVE",
"306 6 OFFCURVE",
"306 15 CURVE SMOOTH",
"306 30 OFFCURVE",
"297 39 OFFCURVE",
"274 46 CURVE SMOOTH",
"228 59 LINE",
"228 304 LINE",
"478 304 LINE",
"490 260 LINE SMOOTH",
"496 238 OFFCURVE",
"505 229 OFFCURVE",
"517 229 CURVE SMOOTH",
"528 229 OFFCURVE",
"532 236 OFFCURVE",
"532 245 CURVE SMOOTH",
"532 428 LINE SMOOTH",
"532 436 OFFCURVE",
"528 443 OFFCURVE",
"517 443 CURVE SMOOTH",
"505 443 OFFCURVE",
"496 435 OFFCURVE",
"490 412 CURVE SMOOTH",
"478 369 LINE",
"228 369 LINE",
"228 629 LINE",
"535 629 LINE",
"546 584 LINE SMOOTH",
"554 550 OFFCURVE",
"565 535 OFFCURVE",
"580 535 CURVE SMOOTH",
"593 535 OFFCURVE",
"597 542 OFFCURVE",
"597 552 CURVE SMOOTH",
"597 695 LINE",
"71 695 LINE SMOOTH",
"62 695 OFFCURVE",
"55 689 OFFCURVE",
"55 675 CURVE SMOOTH",
"55 654 OFFCURVE",
"68 643 OFFCURVE",
"101 636 CURVE SMOOTH",
"128 630 LINE",
"128 60 LINE",
"102 60 LINE SMOOTH",
"74 60 OFFCURVE",
"57 48 OFFCURVE",
"57 25 CURVE SMOOTH",
"57 10 OFFCURVE",
"64 0 OFFCURVE",
"77 0 CURVE SMOOTH"
);
}
);
width = 658;
}
);
note = F;
unicode = 0046;
},
{
glyphname = G;
lastChange = "2015-07-16 17:52:31 +0000";
layers = (
{
layerId = "F0FBE068-24F2-4D1F-B3A2-D9A3CAFE6F9A";
name = Regular;
paths = (
{
closed = 1;
nodes = (
"463 -13 OFFCURVE",
"549 3 OFFCURVE",
"611 37 CURVE",
"611 290 LINE",
"655 304 LINE SMOOTH",
"677 311 OFFCURVE",
"686 319 OFFCURVE",
"686 334 CURVE SMOOTH",
"686 343 OFFCURVE",
"682 349 OFFCURVE",
"672 349 CURVE SMOOTH",
"440 349 LINE SMOOTH",
"413 349 OFFCURVE",
"395 337 OFFCURVE",
"395 315 CURVE SMOOTH",
"395 299 OFFCURVE",
"402 290 OFFCURVE",
"415 290 CURVE SMOOTH",
"511 290 LINE",
"511 76 LINE",
"479 61 OFFCURVE",
"436 53 OFFCURVE",
"395 53 CURVE SMOOTH",
"250 53 OFFCURVE",
"149 156 OFFCURVE",
"149 348 CURVE SMOOTH",
"149 539 OFFCURVE",
"246 642 OFFCURVE",
"393 642 CURVE SMOOTH",
"455 642 OFFCURVE",
"507 626 OFFCURVE",
"538 604 CURVE",
"554 535 LINE SMOOTH",
"561 506 OFFCURVE",
"570 493 OFFCURVE",
"588 493 CURVE SMOOTH",
"603 493 OFFCURVE",
"607 501 OFFCURVE",
"607 511 CURVE SMOOTH",
"607 633 LINE",
"556 676 OFFCURVE",
"474 708 OFFCURVE",
"376 708 CURVE SMOOTH",
"195 708 OFFCURVE",
"47 587 OFFCURVE",
"47 348 CURVE SMOOTH",
"47 101 OFFCURVE",
"200 -13 OFFCURVE",
"393 -13 CURVE SMOOTH"
);
}
);
width = 725;
}
);
note = G;
unicode = 0047;
},
{
glyphname = Gbreve;
lastChange = "2015-07-16 17:52:31 +0000";
layers = (
{
components = (
{
name = G;
}
);
layerId = "F0FBE068-24F2-4D1F-B3A2-D9A3CAFE6F9A";
name = Regular;
paths = (
{
closed = 1;
nodes = (
"437 747 OFFCURVE",
"499 782 OFFCURVE",
"525 874 CURVE",
"470 893 LINE",
"455 844 OFFCURVE",
"420 813 OFFCURVE",
"370 813 CURVE SMOOTH",
"321 813 OFFCURVE",
"286 844 OFFCURVE",
"270 893 CURVE",
"216 874 LINE",
"242 782 OFFCURVE",
"304 747 OFFCURVE",
"370 747 CURVE SMOOTH"
);
}
);
width = 725;
}
);
note = Gbreve;
unicode = 011E;
},
{
glyphname = Gcaron;
lastChange = "2015-07-16 17:52:31 +0000";
layers = (
{
components = (
{
name = G;
}
);
layerId = "F0FBE068-24F2-4D1F-B3A2-D9A3CAFE6F9A";
name = Regular;
paths = (
{
closed = 1;
nodes = (
"400 752 LINE",
"512 895 LINE",
"468 932 LINE",
"375 830 LINE",
"283 932 LINE",
"239 895 LINE",
"351 752 LINE"
);
}
);
width = 725;
}
);
note = Gcaron;
unicode = 01E6;
},
{
glyphname = Gcircumflex;
lastChange = "2015-07-16 17:52:31 +0000";
layers = (
{
components = (
{
name = G;
}
);
layerId = "F0FBE068-24F2-4D1F-B3A2-D9A3CAFE6F9A";
name = Regular;
paths = (
{
closed = 1;
nodes = (
"372 854 LINE",
"465 752 LINE",
"509 789 LINE",
"397 932 LINE",
"348 932 LINE",
"236 789 LINE",
"280 752 LINE"
);
}
);
width = 725;
}
);
note = Gcircumflex;
unicode = 011C;
},
{
glyphname = Gcommaaccent;
lastChange = "2015-07-16 17:52:31 +0000";
layers = (
{
components = (
{
name = G;
}
);
layerId = "F0FBE068-24F2-4D1F-B3A2-D9A3CAFE6F9A";
name = Regular;
paths = (
{
closed = 1;
nodes = (
"388 -204 OFFCURVE",
"424 -127 OFFCURVE",
"439 -69 CURVE",
"355 -50 LINE SMOOTH",
"330 -44 OFFCURVE",
"313 -55 OFFCURVE",
"313 -76 CURVE SMOOTH",
"313 -86 OFFCURVE",
"319 -91 OFFCURVE",
"327 -94 CURVE SMOOTH",
"355 -103 LINE",
"351 -136 OFFCURVE",
"324 -194 OFFCURVE",
"299 -230 CURVE",
"341 -256 LINE"
);
}
);
width = 725;
}
);
note = Gcommaaccent;
unicode = 0122;
},
{
glyphname = Gdotaccent;
lastChange = "2015-07-16 17:52:31 +0000";
layers = (
{
components = (
{
name = G;
}
);
layerId = "F0FBE068-24F2-4D1F-B3A2-D9A3CAFE6F9A";
name = Regular;
paths = (
{
closed = 1;
nodes = (
"404 769 OFFCURVE",
"428 793 OFFCURVE",
"428 824 CURVE SMOOTH",
"428 856 OFFCURVE",
"404 880 OFFCURVE",
"373 880 CURVE SMOOTH",
"343 880 OFFCURVE",
"318 856 OFFCURVE",
"318 824 CURVE SMOOTH",
"318 793 OFFCURVE",
"343 769 OFFCURVE",
"373 769 CURVE SMOOTH"
);
}
);
width = 725;
}
);
note = Gdotaccent;
unicode = 0120;
},
{
glyphname = Gmacron;
lastChange = "2015-07-16 17:52:31 +0000";
layers = (
{
components = (
{
name = G;
}
);
layerId = "F0FBE068-24F2-4D1F-B3A2-D9A3CAFE6F9A";
name = Regular;
paths = (
{
closed = 1;
nodes = (
"519 781 LINE",
"519 847 LINE",
"232 847 LINE",
"232 781 LINE"
);
}
);
width = 725;
}
);
note = Gmacron;
unicode = 1E20;
},
{
glyphname = H;
lastChange = "2015-07-16 17:52:31 +0000";
layers = (
{
layerId = "F0FBE068-24F2-4D1F-B3A2-D9A3CAFE6F9A";
name = Regular;
paths = (
{
closed = 1;
nodes = (
"290 0 LINE SMOOTH",
"301 0 OFFCURVE",
"304 6 OFFCURVE",
"304 15 CURVE SMOOTH",
"304 30 OFFCURVE",
"295 40 OFFCURVE",
"272 46 CURVE SMOOTH",
"225 59 LINE",
"225 328 LINE",
"586 328 LINE",
"586 60 LINE",
"556 60 LINE SMOOTH",
"529 60 OFFCURVE",
"511 48 OFFCURVE",
"511 25 CURVE SMOOTH",
"511 10 OFFCURVE",
"518 0 OFFCURVE",
"531 0 CURVE SMOOTH",
"746 0 LINE SMOOTH",
"757 0 OFFCURVE",
"759 7 OFFCURVE",
"759 15 CURVE SMOOTH",
"759 30 OFFCURVE",
"751 38 OFFCURVE",
"733 44 CURVE SMOOTH",
"686 59 LINE",
"686 636 LINE",
"733 651 LINE SMOOTH",
"751 657 OFFCURVE",
"759 665 OFFCURVE",
"759 680 CURVE SMOOTH",
"759 688 OFFCURVE",
"757 695 OFFCURVE",
"746 695 CURVE SMOOTH",
"556 695 LINE SMOOTH",
"529 695 OFFCURVE",
"511 683 OFFCURVE",
"511 661 CURVE SMOOTH",
"511 645 OFFCURVE",
"518 635 OFFCURVE",
"531 635 CURVE SMOOTH",
"586 635 LINE",
"586 394 LINE",
"225 394 LINE",
"225 636 LINE",
"272 649 LINE SMOOTH",
"294 655 OFFCURVE",
"304 665 OFFCURVE",
"304 680 CURVE SMOOTH",
"304 689 OFFCURVE",
"301 695 OFFCURVE",
"290 695 CURVE SMOOTH",
"100 695 LINE SMOOTH",
"73 695 OFFCURVE",
"55 683 OFFCURVE",
"55 661 CURVE SMOOTH",
"55 645 OFFCURVE",
"62 635 OFFCURVE",
"75 635 CURVE SMOOTH",
"125 635 LINE",
"125 60 LINE",
"100 60 LINE SMOOTH",
"72 60 OFFCURVE",
"55 48 OFFCURVE",
"55 25 CURVE SMOOTH",
"55 10 OFFCURVE",
"62 0 OFFCURVE",
"75 0 CURVE SMOOTH"
);
}
);
width = 814;
}
);
note = H;
unicode = 0048;
},
{
glyphname = Hbar;
lastChange = "2015-07-16 17:52:31 +0000";
layers = (
{
layerId = "F0FBE068-24F2-4D1F-B3A2-D9A3CAFE6F9A";
name = Regular;
paths = (
{
closed = 1;
nodes = (
"291 0 LINE SMOOTH",
"302 0 OFFCURVE",
"305 6 OFFCURVE",
"305 15 CURVE SMOOTH",
"305 30 OFFCURVE",
"296 40 OFFCURVE",
"273 46 CURVE SMOOTH",
"226 59 LINE",
"226 328 LINE",
"587 328 LINE",
"587 60 LINE",
"557 60 LINE SMOOTH",
"530 60 OFFCURVE",
"512 48 OFFCURVE",
"512 25 CURVE SMOOTH",
"512 10 OFFCURVE",
"519 0 OFFCURVE",
"532 0 CURVE SMOOTH",
"747 0 LINE SMOOTH",
"758 0 OFFCURVE",
"760 7 OFFCURVE",
"760 15 CURVE SMOOTH",
"760 30 OFFCURVE",
"752 38 OFFCURVE",
"734 44 CURVE SMOOTH",
"687 59 LINE",
"687 485 LINE",
"761 485 LINE",
"761 548 LINE",
"687 548 LINE",
"687 636 LINE",
"734 651 LINE SMOOTH",
"752 657 OFFCURVE",
"760 665 OFFCURVE",
"760 680 CURVE SMOOTH",
"760 688 OFFCURVE",
"758 695 OFFCURVE",
"747 695 CURVE SMOOTH",
"557 695 LINE SMOOTH",
"530 695 OFFCURVE",
"512 683 OFFCURVE",
"512 661 CURVE SMOOTH",
"512 645 OFFCURVE",
"519 635 OFFCURVE",
"532 635 CURVE SMOOTH",
"587 635 LINE",
"587 548 LINE",
"226 548 LINE",
"226 636 LINE",
"273 649 LINE SMOOTH",
"295 655 OFFCURVE",
"305 665 OFFCURVE",
"305 680 CURVE SMOOTH",
"305 689 OFFCURVE",
"302 695 OFFCURVE",
"291 695 CURVE SMOOTH",
"101 695 LINE SMOOTH",
"74 695 OFFCURVE",
"56 683 OFFCURVE",
"56 661 CURVE SMOOTH",
"56 645 OFFCURVE",
"63 635 OFFCURVE",
"76 635 CURVE SMOOTH",
"126 635 LINE",
"126 548 LINE",
"56 548 LINE",
"56 485 LINE",
"126 485 LINE",
"126 60 LINE",
"101 60 LINE SMOOTH",
"74 60 OFFCURVE",
"56 48 OFFCURVE",
"56 25 CURVE SMOOTH",
"56 10 OFFCURVE",
"63 0 OFFCURVE",
"76 0 CURVE SMOOTH"
);
},
{
closed = 1;
nodes = (
"226 485 LINE",
"587 485 LINE",
"587 394 LINE",
"226 394 LINE"
);
}
);
width = 816;
}
);
note = Hbar;
unicode = 0126;
},
{
glyphname = Hbrevebelow;
lastChange = "2015-07-16 17:52:31 +0000";
layers = (
{
components = (
{
name = H;
}
);
layerId = "F0FBE068-24F2-4D1F-B3A2-D9A3CAFE6F9A";
name = Regular;
paths = (
{
closed = 1;
nodes = (
"475 -206 OFFCURVE",
"537 -171 OFFCURVE",
"563 -79 CURVE",
"508 -60 LINE",
"493 -109 OFFCURVE",
"458 -140 OFFCURVE",
"408 -140 CURVE SMOOTH",
"359 -140 OFFCURVE",
"324 -109 OFFCURVE",
"308 -60 CURVE",
"254 -79 LINE",
"280 -171 OFFCURVE",
"342 -206 OFFCURVE",
"408 -206 CURVE SMOOTH"
);
}
);
width = 814;
}
);
note = Hbrevebelow;
unicode = 1E2A;
},
{
glyphname = Hcircumflex;
lastChange = "2015-07-16 17:52:31 +0000";
layers = (
{
components = (
{
name = H;
}
);
layerId = "F0FBE068-24F2-4D1F-B3A2-D9A3CAFE6F9A";
name = Regular;
paths = (
{
closed = 1;
nodes = (
"406 854 LINE",
"499 752 LINE",
"543 789 LINE",
"431 932 LINE",
"382 932 LINE",
"270 789 LINE",
"314 752 LINE"
);
}
);
width = 814;
}
);
note = Hcircumflex;
unicode = 0124;
},
{
glyphname = Hdotbelow;
lastChange = "2015-07-16 17:52:31 +0000";
layers = (
{
components = (
{
name = H;
}
);
layerId = "F0FBE068-24F2-4D1F-B3A2-D9A3CAFE6F9A";
name = Regular;
paths = (
{
closed = 1;
nodes = (
"441 -177 OFFCURVE",
"465 -153 OFFCURVE",
"465 -121 CURVE SMOOTH",
"465 -89 OFFCURVE",
"441 -66 OFFCURVE",
"410 -66 CURVE SMOOTH",
"380 -66 OFFCURVE",
"355 -89 OFFCURVE",
"355 -121 CURVE SMOOTH",
"355 -153 OFFCURVE",
"380 -177 OFFCURVE",
"410 -177 CURVE SMOOTH"
);
}
);
width = 814;
}
);
note = Hdotbelow;
unicode = 1E24;
},
{
glyphname = I;
lastChange = "2015-07-16 17:52:31 +0000";
layers = (
{
layerId = "F0FBE068-24F2-4D1F-B3A2-D9A3CAFE6F9A";
name = Regular;
paths = (
{
closed = 1;
nodes = (
"295 0 LINE SMOOTH",
"306 0 OFFCURVE",
"309 6 OFFCURVE",
"309 15 CURVE SMOOTH",
"309 30 OFFCURVE",
"300 40 OFFCURVE",
"277 46 CURVE SMOOTH",
"230 59 LINE",
"230 636 LINE",
"277 649 LINE SMOOTH",
"300 655 OFFCURVE",
"309 665 OFFCURVE",
"309 680 CURVE SMOOTH",
"309 689 OFFCURVE",
"306 695 OFFCURVE",
"295 695 CURVE SMOOTH",
"105 695 LINE SMOOTH",
"78 695 OFFCURVE",
"60 683 OFFCURVE",
"60 661 CURVE SMOOTH",
"60 645 OFFCURVE",
"67 635 OFFCURVE",
"80 635 CURVE SMOOTH",
"130 635 LINE",
"130 60 LINE",
"105 60 LINE SMOOTH",
"78 60 OFFCURVE",
"60 48 OFFCURVE",
"60 25 CURVE SMOOTH",
"60 10 OFFCURVE",
"67 0 OFFCURVE",
"80 0 CURVE SMOOTH"
);
}
);
width = 368;
}
);
note = I;
unicode = 0049;
},
{
glyphname = IJ;
lastChange = "2015-07-16 17:52:31 +0000";
layers = (
{
layerId = "F0FBE068-24F2-4D1F-B3A2-D9A3CAFE6F9A";
name = Regular;
paths = (
{
closed = 1;
nodes = (
"445 -13 OFFCURVE",
"467 -7 OFFCURVE",
"490 4 CURVE SMOOTH",
"562 40 OFFCURVE",
"620 110 OFFCURVE",
"620 239 CURVE SMOOTH",
"620 636 LINE",
"666 649 LINE SMOOTH",
"689 656 OFFCURVE",
"698 665 OFFCURVE",
"698 680 CURVE SMOOTH",
"698 689 OFFCURVE",
"695 695 OFFCURVE",
"684 695 CURVE SMOOTH",
"483 695 LINE SMOOTH",
"456 695 OFFCURVE",
"438 683 OFFCURVE",
"438 661 CURVE SMOOTH",
"438 645 OFFCURVE",
"445 635 OFFCURVE",
"458 635 CURVE SMOOTH",
"520 635 LINE",
"520 245 LINE SMOOTH",
"520 138 OFFCURVE",
"476 92 OFFCURVE",
"370 55 CURVE",
"372 6 OFFCURVE",
"396 -13 OFFCURVE",
"425 -13 CURVE SMOOTH"
);
},
{
closed = 1;
nodes = (
"295 0 LINE SMOOTH",
"306 0 OFFCURVE",
"309 6 OFFCURVE",
"309 15 CURVE SMOOTH",
"309 30 OFFCURVE",
"300 40 OFFCURVE",
"277 46 CURVE SMOOTH",
"230 59 LINE",
"230 636 LINE",
"277 649 LINE SMOOTH",
"300 655 OFFCURVE",
"309 665 OFFCURVE",
"309 680 CURVE SMOOTH",
"309 689 OFFCURVE",
"306 695 OFFCURVE",
"295 695 CURVE SMOOTH",
"105 695 LINE SMOOTH",
"78 695 OFFCURVE",
"60 683 OFFCURVE",
"60 661 CURVE SMOOTH",
"60 645 OFFCURVE",
"67 635 OFFCURVE",
"80 635 CURVE SMOOTH",
"130 635 LINE",
"130 60 LINE",
"105 60 LINE SMOOTH",
"78 60 OFFCURVE",
"60 48 OFFCURVE",
"60 25 CURVE SMOOTH",
"60 10 OFFCURVE",
"67 0 OFFCURVE",
"80 0 CURVE SMOOTH"
);
}
);
width = 740;
}
);
note = IJ;
unicode = 0132;
},
{
glyphname = Iacute;
lastChange = "2015-07-16 17:52:31 +0000";
layers = (
{
components = (
{
name = I;
}
);
layerId = "F0FBE068-24F2-4D1F-B3A2-D9A3CAFE6F9A";
name = Regular;
paths = (
{
closed = 1;
nodes = (
"285 899 LINE",
"212 946 LINE",
"118 789 LINE",
"173 753 LINE"
);
}
);
width = 368;
}
);
note = Iacute;
unicode = 00CD;
},
{
glyphname = Ibreve;
lastChange = "2015-07-16 17:52:31 +0000";
layers = (
{
components = (
{
name = I;
transform = "{1, 0, 0, 1, -4, 0}";
}
);
layerId = "F0FBE068-24F2-4D1F-B3A2-D9A3CAFE6F9A";
name = Regular;
paths = (
{
closed = 1;
nodes = (
"240 747 OFFCURVE",
"302 782 OFFCURVE",
"328 874 CURVE",
"273 893 LINE",
"258 844 OFFCURVE",
"223 813 OFFCURVE",
"173 813 CURVE SMOOTH",
"124 813 OFFCURVE",
"89 844 OFFCURVE",
"73 893 CURVE",
"19 874 LINE",
"45 782 OFFCURVE",
"107 747 OFFCURVE",
"173 747 CURVE SMOOTH"
);
}
);
width = 346;
}
);
note = Ibreve;
unicode = 012C;
},
{
glyphname = Icaron;
lastChange = "2015-07-16 17:52:31 +0000";
layers = (
{
components = (
{
name = I;
transform = "{1, 0, 0, 1, -6, 0}";
}
);
layerId = "F0FBE068-24F2-4D1F-B3A2-D9A3CAFE6F9A";
name = Regular;
paths = (
{
closed = 1;
nodes = (
"197 752 LINE",
"309 895 LINE",
"265 932 LINE",
"172 830 LINE",
"80 932 LINE",
"36 895 LINE",
"148 752 LINE"
);
}
);
width = 347;
}
);
note = Icaron;
unicode = 01CF;
},
{
glyphname = Icircumflex;
lastChange = "2015-07-16 17:52:31 +0000";
layers = (
{
components = (
{
name = I;
transform = "{1, 0, 0, 1, -7, 0}";
}
);
layerId = "F0FBE068-24F2-4D1F-B3A2-D9A3CAFE6F9A";
name = Regular;
paths = (
{
closed = 1;
nodes = (
"172 854 LINE",
"265 752 LINE",
"309 789 LINE",
"197 932 LINE",
"148 932 LINE",
"36 789 LINE",
"80 752 LINE"
);
}
);
width = 346;
}
);
note = Icircumflex;
unicode = 00CE;
},
{
glyphname = Idieresis;
lastChange = "2015-07-16 17:52:31 +0000";
layers = (
{
components = (
{
name = I;
transform = "{1, 0, 0, 1, -7, 0}";
}
);
layerId = "F0FBE068-24F2-4D1F-B3A2-D9A3CAFE6F9A";
name = Regular;
paths = (
{
closed = 1;
nodes = (
"105 763 OFFCURVE",
"131 786 OFFCURVE",
"131 818 CURVE SMOOTH",
"131 850 OFFCURVE",
"105 873 OFFCURVE",
"76 873 CURVE SMOOTH",
"46 873 OFFCURVE",
"21 850 OFFCURVE",
"21 818 CURVE SMOOTH",
"21 786 OFFCURVE",
"46 763 OFFCURVE",
"76 763 CURVE SMOOTH"
);
},
{
closed = 1;
nodes = (
"302 763 OFFCURVE",
"328 786 OFFCURVE",
"328 818 CURVE SMOOTH",
"328 850 OFFCURVE",
"302 873 OFFCURVE",
"273 873 CURVE SMOOTH",
"243 873 OFFCURVE",
"218 850 OFFCURVE",
"218 818 CURVE SMOOTH",
"218 786 OFFCURVE",
"243 763 OFFCURVE",
"273 763 CURVE SMOOTH"
);
}
);
width = 348;
}
);
note = Idieresis;
unicode = 00CF;
},
{
glyphname = Idotaccent;
lastChange = "2015-07-16 17:52:31 +0000";
layers = (
{
components = (
{
name = I;
transform = "{1, 0, 0, 1, 2, 0}";
}
);
layerId = "F0FBE068-24F2-4D1F-B3A2-D9A3CAFE6F9A";
name = Regular;
paths = (
{
closed = 1;
nodes = (
"216 769 OFFCURVE",
"240 793 OFFCURVE",
"240 824 CURVE SMOOTH",
"240 856 OFFCURVE",
"216 880 OFFCURVE",
"185 880 CURVE SMOOTH",
"155 880 OFFCURVE",
"130 856 OFFCURVE",
"130 824 CURVE SMOOTH",
"130 793 OFFCURVE",
"155 769 OFFCURVE",
"185 769 CURVE SMOOTH"
);
}
);
width = 372;
}
);
note = Idotaccent;
unicode = 0130;
},
{
glyphname = Idotbelow;
lastChange = "2015-07-16 17:52:31 +0000";
layers = (
{
layerId = "F0FBE068-24F2-4D1F-B3A2-D9A3CAFE6F9A";
name = Regular;
paths = (
{
closed = 1;
nodes = (
"295 0 LINE SMOOTH",
"306 0 OFFCURVE",
"309 6 OFFCURVE",
"309 15 CURVE SMOOTH",
"309 30 OFFCURVE",
"300 40 OFFCURVE",
"277 46 CURVE SMOOTH",
"230 59 LINE",
"230 636 LINE",
"277 649 LINE SMOOTH",
"300 655 OFFCURVE",
"309 665 OFFCURVE",
"309 680 CURVE SMOOTH",
"309 689 OFFCURVE",
"306 695 OFFCURVE",
"295 695 CURVE SMOOTH",
"105 695 LINE SMOOTH",
"78 695 OFFCURVE",
"60 683 OFFCURVE",
"60 661 CURVE SMOOTH",
"60 645 OFFCURVE",
"67 635 OFFCURVE",
"80 635 CURVE SMOOTH",
"130 635 LINE",
"130 60 LINE",
"105 60 LINE SMOOTH",
"78 60 OFFCURVE",
"60 48 OFFCURVE",
"60 25 CURVE SMOOTH",
"60 10 OFFCURVE",
"67 0 OFFCURVE",
"80 0 CURVE SMOOTH"
);
},
{
closed = 1;
nodes = (
"215 -177 OFFCURVE",
"239 -153 OFFCURVE",
"239 -121 CURVE SMOOTH",
"239 -89 OFFCURVE",
"215 -66 OFFCURVE",
"184 -66 CURVE SMOOTH",
"154 -66 OFFCURVE",
"129 -89 OFFCURVE",
"129 -121 CURVE SMOOTH",
"129 -153 OFFCURVE",
"154 -177 OFFCURVE",
"184 -177 CURVE SMOOTH"
);
}
);
width = 368;
}
);
note = Idotbelow;
unicode = 1ECA;
},
{
glyphname = Igrave;
lastChange = "2015-07-16 17:52:31 +0000";
layers = (
{
components = (
{
name = I;
}
);
layerId = "F0FBE068-24F2-4D1F-B3A2-D9A3CAFE6F9A";
name = Regular;
paths = (
{
closed = 1;
nodes = (
"243 789 LINE",
"149 946 LINE",
"76 899 LINE",
"188 753 LINE"
);
}
);
width = 368;
}
);
note = Igrave;
unicode = 00CC;
},
{
glyphname = Ihookabove;
lastChange = "2015-07-16 17:52:31 +0000";
layers = (
{
layerId = "F0FBE068-24F2-4D1F-B3A2-D9A3CAFE6F9A";
name = Regular;
paths = (
{
closed = 1;
nodes = (
"297 0 LINE SMOOTH",
"308 0 OFFCURVE",
"311 6 OFFCURVE",
"311 15 CURVE SMOOTH",
"311 30 OFFCURVE",
"302 40 OFFCURVE",
"279 46 CURVE SMOOTH",
"232 59 LINE",
"232 636 LINE",
"279 649 LINE SMOOTH",
"301 658 OFFCURVE",
"311 665 OFFCURVE",
"311 680 CURVE SMOOTH",
"311 689 OFFCURVE",
"308 695 OFFCURVE",
"297 695 CURVE SMOOTH",
"107 695 LINE SMOOTH",
"80 695 OFFCURVE",
"62 683 OFFCURVE",
"62 661 CURVE SMOOTH",
"62 645 OFFCURVE",
"69 635 OFFCURVE",
"82 635 CURVE SMOOTH",
"132 635 LINE",
"132 60 LINE",
"107 60 LINE SMOOTH",
"80 60 OFFCURVE",
"62 48 OFFCURVE",
"62 25 CURVE SMOOTH",
"62 10 OFFCURVE",
"69 0 OFFCURVE",
"82 0 CURVE SMOOTH"
);
},
{
closed = 1;
nodes = (
"201 750 LINE",
"207 796 LINE",
"246 810 OFFCURVE",
"270 837 OFFCURVE",
"270 871 CURVE SMOOTH",
"270 912 OFFCURVE",
"234 943 OFFCURVE",
"181 943 CURVE SMOOTH",
"158 943 OFFCURVE",
"130 935 OFFCURVE",
"114 928 CURVE",
"121 890 LINE",
"138 895 OFFCURVE",
"155 899 OFFCURVE",
"172 899 CURVE SMOOTH",
"194 899 OFFCURVE",
"205 889 OFFCURVE",
"205 870 CURVE SMOOTH",
"205 847 OFFCURVE",
"184 831 OFFCURVE",
"149 819 CURVE",
"155 750 LINE"
);
}
);
width = 395;
}
);
note = Ihookabove;
unicode = 1EC8;
},
{
glyphname = Imacron;
lastChange = "2015-07-16 17:52:31 +0000";
layers = (
{
components = (
{
name = I;
transform = "{1, 0, 0, 1, -27, 0}";
}
);
layerId = "F0FBE068-24F2-4D1F-B3A2-D9A3CAFE6F9A";
name = Regular;
paths = (
{
closed = 1;
nodes = (
"299 781 LINE",
"299 847 LINE",
"12 847 LINE",
"12 781 LINE"
);
}
);
width = 315;
}
);
note = Imacron;
unicode = 012A;
},
{
glyphname = Iogonek;
lastChange = "2015-07-16 17:52:31 +0000";
layers = (
{
layerId = "F0FBE068-24F2-4D1F-B3A2-D9A3CAFE6F9A";
name = Regular;
paths = (
{
closed = 1;
nodes = (
"205 -209 OFFCURVE",
"229 -204 OFFCURVE",
"248 -195 CURVE",
"239 -154 LINE",
"227 -158 OFFCURVE",
"214 -161 OFFCURVE",
"198 -161 CURVE SMOOTH",
"160 -161 OFFCURVE",
"136 -140 OFFCURVE",
"136 -105 CURVE SMOOTH",
"136 -61 OFFCURVE",
"171 -18 OFFCURVE",
"210 0 CURVE",
"297 0 LINE SMOOTH",
"308 0 OFFCURVE",
"311 6 OFFCURVE",
"311 15 CURVE SMOOTH",
"311 30 OFFCURVE",
"302 40 OFFCURVE",
"279 46 CURVE SMOOTH",
"232 59 LINE",
"232 636 LINE",
"279 649 LINE SMOOTH",
"301 655 OFFCURVE",
"311 665 OFFCURVE",
"311 680 CURVE SMOOTH",
"311 689 OFFCURVE",
"308 695 OFFCURVE",
"297 695 CURVE SMOOTH",
"107 695 LINE SMOOTH",
"80 695 OFFCURVE",
"62 683 OFFCURVE",
"62 661 CURVE SMOOTH",
"62 645 OFFCURVE",
"69 635 OFFCURVE",
"82 635 CURVE SMOOTH",
"132 635 LINE",
"132 60 LINE",
"107 60 LINE SMOOTH",
"80 60 OFFCURVE",
"62 48 OFFCURVE",
"62 25 CURVE SMOOTH",
"62 10 OFFCURVE",
"69 0 OFFCURVE",
"82 0 CURVE SMOOTH",
"142 0 LINE",
"98 -24 OFFCURVE",
"69 -65 OFFCURVE",
"69 -108 CURVE SMOOTH",
"69 -172 OFFCURVE",
"118 -209 OFFCURVE",
"185 -209 CURVE SMOOTH"
);
}
);
width = 371;
}
);
note = Iogonek;
unicode = 012E;
},
{
glyphname = Itilde;
lastChange = "2015-07-16 17:52:31 +0000";
layers = (
{
components = (
{
name = I;
transform = "{1, 0, 0, 1, -4, 0}";
}
);
layerId = "F0FBE068-24F2-4D1F-B3A2-D9A3CAFE6F9A";
name = Regular;
paths = (
{
closed = 1;
nodes = (
"268 763 OFFCURVE",
"303 782 OFFCURVE",
"332 810 CURVE",
"298 856 LINE",
"278 841 OFFCURVE",
"258 831 OFFCURVE",
"235 831 CURVE SMOOTH",
"197 831 OFFCURVE",
"159 868 OFFCURVE",
"117 868 CURVE SMOOTH",
"85 868 OFFCURVE",
"47 846 OFFCURVE",
"18 820 CURVE",
"51 774 LINE",
"72 789 OFFCURVE",
"91 800 OFFCURVE",
"116 800 CURVE SMOOTH",
"158 800 OFFCURVE",
"191 763 OFFCURVE",
"236 763 CURVE SMOOTH"
);
}
);
width = 349;
}
);
note = Itilde;
unicode = 0128;
},
{
glyphname = J;
lastChange = "2015-07-16 17:52:31 +0000";
layers = (
{
layerId = "F0FBE068-24F2-4D1F-B3A2-D9A3CAFE6F9A";
name = Regular;
paths = (
{
closed = 1;
nodes = (
"110 -13 OFFCURVE",
"132 -8 OFFCURVE",
"155 4 CURVE SMOOTH",
"227 42 OFFCURVE",
"285 110 OFFCURVE",
"285 239 CURVE SMOOTH",
"285 636 LINE",
"331 649 LINE SMOOTH",
"353 655 OFFCURVE",
"363 665 OFFCURVE",
"363 680 CURVE SMOOTH",
"363 689 OFFCURVE",
"360 695 OFFCURVE",
"349 695 CURVE SMOOTH",
"148 695 LINE SMOOTH",
"121 695 OFFCURVE",
"103 683 OFFCURVE",
"103 661 CURVE SMOOTH",
"103 645 OFFCURVE",
"110 635 OFFCURVE",
"123 635 CURVE SMOOTH",
"185 635 LINE",
"185 245 LINE SMOOTH",
"185 138 OFFCURVE",
"141 92 OFFCURVE",
"35 55 CURVE",
"37 6 OFFCURVE",
"61 -13 OFFCURVE",
"90 -13 CURVE SMOOTH"
);
}
);
width = 405;
}
);
note = J;
unicode = 004A;
},
{
glyphname = Jcircumflex;
lastChange = "2015-07-16 17:52:31 +0000";
layers = (
{
components = (
{
name = J;
}
);
layerId = "F0FBE068-24F2-4D1F-B3A2-D9A3CAFE6F9A";
name = Regular;
paths = (
{
closed = 1;
nodes = (
"231 854 LINE",
"324 752 LINE",
"368 789 LINE",
"256 932 LINE",
"207 932 LINE",
"95 789 LINE",
"139 752 LINE"
);
}
);
width = 410;
}
);
note = Jcircumflex;
unicode = 0134;
},
{
glyphname = K;
lastChange = "2015-07-16 17:52:31 +0000";
layers = (
{
layerId = "F0FBE068-24F2-4D1F-B3A2-D9A3CAFE6F9A";
name = Regular;
paths = (
{
closed = 1;
nodes = (
"685 0 LINE SMOOTH",
"696 0 OFFCURVE",
"699 7 OFFCURVE",
"699 15 CURVE SMOOTH",
"699 30 OFFCURVE",
"688 39 OFFCURVE",
"665 45 CURVE SMOOTH",
"616 58 LINE",
"333 366 LINE",
"610 636 LINE",
"647 644 LINE SMOOTH",
"669 649 OFFCURVE",
"681 661 OFFCURVE",
"681 676 CURVE SMOOTH",
"681 688 OFFCURVE",
"676 695 OFFCURVE",
"665 695 CURVE SMOOTH",
"478 695 LINE SMOOTH",
"450 695 OFFCURVE",
"433 683 OFFCURVE",
"433 661 CURVE SMOOTH",
"433 645 OFFCURVE",
"440 635 OFFCURVE",
"453 635 CURVE SMOOTH",
"517 635 LINE",
"225 352 LINE",
"532 0 LINE"
);
},
{
closed = 1;
nodes = (
"290 0 LINE SMOOTH",
"299 0 OFFCURVE",
"304 6 OFFCURVE",
"304 15 CURVE SMOOTH",
"304 30 OFFCURVE",
"295 40 OFFCURVE",
"272 46 CURVE SMOOTH",
"225 59 LINE",
"225 636 LINE",
"272 649 LINE SMOOTH",
"295 655 OFFCURVE",
"303 665 OFFCURVE",
"303 680 CURVE SMOOTH",
"303 689 OFFCURVE",
"298 695 OFFCURVE",
"289 695 CURVE SMOOTH",
"100 695 LINE SMOOTH",
"73 695 OFFCURVE",
"55 683 OFFCURVE",
"55 661 CURVE SMOOTH",
"55 645 OFFCURVE",
"62 635 OFFCURVE",
"75 635 CURVE SMOOTH",
"125 635 LINE",
"125 60 LINE",
"100 60 LINE SMOOTH",
"73 60 OFFCURVE",
"55 48 OFFCURVE",
"55 25 CURVE SMOOTH",
"55 10 OFFCURVE",
"62 0 OFFCURVE",
"75 0 CURVE SMOOTH"
);
}
);
width = 706;
}
);
note = K;
unicode = 004B;
},
{
glyphname = Kcommaaccent;
lastChange = "2015-07-16 17:52:32 +0000";
layers = (
{
components = (
{
name = K;
}
);
layerId = "F0FBE068-24F2-4D1F-B3A2-D9A3CAFE6F9A";
name = Regular;
paths = (
{
closed = 1;
nodes = (
"372 -204 OFFCURVE",
"408 -127 OFFCURVE",
"423 -69 CURVE",
"339 -50 LINE SMOOTH",
"314 -44 OFFCURVE",
"297 -55 OFFCURVE",
"297 -76 CURVE SMOOTH",
"297 -86 OFFCURVE",
"303 -91 OFFCURVE",
"311 -94 CURVE SMOOTH",
"339 -103 LINE",
"335 -136 OFFCURVE",
"308 -194 OFFCURVE",
"283 -230 CURVE",
"325 -256 LINE"
);
}
);
width = 706;
}
);
note = Kcommaaccent;
unicode = 0136;
},
{
glyphname = L;
lastChange = "2015-07-16 17:52:31 +0000";
layers = (
{
layerId = "F0FBE068-24F2-4D1F-B3A2-D9A3CAFE6F9A";
name = Regular;
paths = (
{
closed = 1;
nodes = (
"596 0 LINE",
"596 160 LINE SMOOTH",
"596 171 OFFCURVE",
"592 177 OFFCURVE",
"579 177 CURVE SMOOTH",
"564 177 OFFCURVE",
"555 162 OFFCURVE",
"546 128 CURVE SMOOTH",
"529 66 LINE",
"228 66 LINE",
"228 636 LINE",
"280 649 LINE SMOOTH",
"303 655 OFFCURVE",
"312 665 OFFCURVE",
"312 680 CURVE SMOOTH",
"312 689 OFFCURVE",
"309 695 OFFCURVE",
"298 695 CURVE SMOOTH",
"102 695 LINE SMOOTH",
"75 695 OFFCURVE",
"57 683 OFFCURVE",
"57 661 CURVE SMOOTH",
"57 645 OFFCURVE",
"64 635 OFFCURVE",
"77 635 CURVE SMOOTH",
"128 635 LINE",
"128 65 LINE",
"101 60 LINE SMOOTH",
"68 54 OFFCURVE",
"55 41 OFFCURVE",
"55 20 CURVE SMOOTH",
"55 6 OFFCURVE",
"62 0 OFFCURVE",
"71 0 CURVE SMOOTH"
);
}
);
width = 612;
}
);
note = L;
unicode = 004C;
},
{
glyphname = Lacute;
lastChange = "2015-07-16 17:52:31 +0000";
layers = (
{
components = (
{
name = L;
}
);
layerId = "F0FBE068-24F2-4D1F-B3A2-D9A3CAFE6F9A";
name = Regular;
paths = (
{
closed = 1;
nodes = (
"267 898 LINE",
"194 945 LINE",
"100 788 LINE",
"155 752 LINE"
);
}
);
width = 612;
}
);
note = Lacute;
unicode = 0139;
},
{
glyphname = Lcaron;
lastChange = "2015-07-16 17:52:31 +0000";
layers = (
{
components = (
{
name = L;
}
);
layerId = "F0FBE068-24F2-4D1F-B3A2-D9A3CAFE6F9A";
name = Regular;
paths = (
{
closed = 1;
nodes = (
"469 547 OFFCURVE",
"505 625 OFFCURVE",
"520 682 CURVE",
"436 701 LINE SMOOTH",
"411 707 OFFCURVE",
"394 697 OFFCURVE",
"394 675 CURVE SMOOTH",
"394 665 OFFCURVE",
"400 660 OFFCURVE",
"408 657 CURVE SMOOTH",
"436 648 LINE",
"432 615 OFFCURVE",
"405 557 OFFCURVE",
"380 521 CURVE",
"422 495 LINE"
);
}
);
width = 612;
}
);
note = Lcaron;
unicode = 013D;
},
{
glyphname = Lcommaaccent;
lastChange = "2015-07-16 17:52:31 +0000";
layers = (
{
components = (
{
name = L;
}
);
layerId = "F0FBE068-24F2-4D1F-B3A2-D9A3CAFE6F9A";
name = Regular;
paths = (
{
closed = 1;
nodes = (
"369 -204 OFFCURVE",
"405 -127 OFFCURVE",
"420 -69 CURVE",
"336 -50 LINE SMOOTH",
"311 -44 OFFCURVE",
"294 -55 OFFCURVE",
"294 -76 CURVE SMOOTH",
"294 -86 OFFCURVE",
"300 -91 OFFCURVE",
"308 -94 CURVE",
"336 -103 LINE",
"332 -136 OFFCURVE",
"305 -194 OFFCURVE",
"280 -230 CURVE",
"322 -256 LINE"
);
}
);
width = 612;
}
);
note = Lcommaaccent;
unicode = 013B;
},
{
glyphname = Ldot;
lastChange = "2015-07-16 17:52:31 +0000";
layers = (
{
components = (
{
name = L;
}
);
layerId = "F0FBE068-24F2-4D1F-B3A2-D9A3CAFE6F9A";
name = Regular;
paths = (
{
closed = 1;
nodes = (
"472 324 OFFCURVE",
"496 347 OFFCURVE",
"496 379 CURVE SMOOTH",
"496 411 OFFCURVE",
"472 435 OFFCURVE",
"441 435 CURVE SMOOTH",
"411 435 OFFCURVE",
"386 411 OFFCURVE",
"386 379 CURVE SMOOTH",
"386 347 OFFCURVE",
"411 324 OFFCURVE",
"441 324 CURVE SMOOTH"
);
}
);
width = 612;
}
);
note = Ldot;
unicode = 013F;
},
{
glyphname = Ldotbelow;
lastChange = "2015-07-16 17:52:31 +0000";
layers = (
{
components = (
{
name = L;
}
);
layerId = "F0FBE068-24F2-4D1F-B3A2-D9A3CAFE6F9A";
name = Regular;
paths = (
{
closed = 1;
nodes = (
"376 -177 OFFCURVE",
"400 -153 OFFCURVE",
"400 -121 CURVE SMOOTH",
"400 -89 OFFCURVE",
"376 -66 OFFCURVE",
"345 -66 CURVE SMOOTH",
"315 -66 OFFCURVE",
"290 -89 OFFCURVE",
"290 -121 CURVE SMOOTH",
"290 -153 OFFCURVE",
"315 -177 OFFCURVE",
"345 -177 CURVE SMOOTH"
);
}
);
width = 612;
}
);
note = Ldotbelow;
unicode = 1E36;
},
{
glyphname = Ldotbelowmacron;
lastChange = "2015-07-16 17:52:31 +0000";
layers = (
{
components = (
{
name = L;
transform = "{1, 0, 0, 1, -6, 0}";
}
);
layerId = "F0FBE068-24F2-4D1F-B3A2-D9A3CAFE6F9A";
name = Regular;
paths = (
{
closed = 1;
nodes = (
"370 -177 OFFCURVE",
"394 -153 OFFCURVE",
"394 -121 CURVE SMOOTH",
"394 -89 OFFCURVE",
"370 -66 OFFCURVE",
"339 -66 CURVE SMOOTH",
"309 -66 OFFCURVE",
"284 -89 OFFCURVE",
"284 -121 CURVE SMOOTH",
"284 -153 OFFCURVE",
"309 -177 OFFCURVE",
"339 -177 CURVE SMOOTH"
);
},
{
closed = 1;
nodes = (
"321 781 LINE",
"321 847 LINE",
"34 847 LINE",
"34 781 LINE"
);
}
);
width = 606;
}
);
note = Ldotbelowmacron;
unicode = 1E38;
},
{
glyphname = Llinebelow;
lastChange = "2015-07-16 17:52:31 +0000";
layers = (
{
components = (
{
name = L;
}
);
layerId = "F0FBE068-24F2-4D1F-B3A2-D9A3CAFE6F9A";
name = Regular;
paths = (
{
closed = 1;
nodes = (
"557 -153 LINE",
"557 -88 LINE",
"126 -88 LINE",
"126 -153 LINE"
);
}
);
width = 612;
}
);
note = Llinebelow;
unicode = 1E3A;
},
{
glyphname = Lslash;
lastChange = "2015-07-16 17:52:31 +0000";
layers = (
{
layerId = "F0FBE068-24F2-4D1F-B3A2-D9A3CAFE6F9A";
name = Regular;
paths = (
{
closed = 1;
nodes = (
"617 0 LINE",
"617 160 LINE SMOOTH",
"617 171 OFFCURVE",
"613 177 OFFCURVE",
"600 177 CURVE SMOOTH",
"585 177 OFFCURVE",
"577 162 OFFCURVE",
"567 128 CURVE SMOOTH",
"550 66 LINE",
"249 66 LINE",
"249 333 LINE",
"411 433 LINE",
"379 489 LINE",
"249 409 LINE",
"249 636 LINE",
"302 649 LINE SMOOTH",
"325 655 OFFCURVE",
"334 665 OFFCURVE",
"334 680 CURVE SMOOTH",
"334 689 OFFCURVE",
"331 695 OFFCURVE",
"320 695 CURVE SMOOTH",
"124 695 LINE SMOOTH",
"97 695 OFFCURVE",
"79 683 OFFCURVE",
"79 661 CURVE SMOOTH",
"79 645 OFFCURVE",
"86 635 OFFCURVE",
"99 635 CURVE SMOOTH",
"149 635 LINE",
"149 347 LINE",
"56 290 LINE",
"89 234 LINE",
"149 271 LINE",
"149 65 LINE",
"122 60 LINE SMOOTH",
"90 54 OFFCURVE",
"76 41 OFFCURVE",
"76 20 CURVE SMOOTH",
"76 6 OFFCURVE",
"83 0 OFFCURVE",
"92 0 CURVE SMOOTH"
);
}
);
width = 633;
}
);
note = Lslash;
unicode = 0141;
},
{
glyphname = M;
lastChange = "2015-07-16 17:52:31 +0000";
layers = (
{
layerId = "F0FBE068-24F2-4D1F-B3A2-D9A3CAFE6F9A";
name = Regular;
paths = (
{
closed = 1;
nodes = (
"247 0 LINE SMOOTH",
"256 0 OFFCURVE",
"260 6 OFFCURVE",
"260 16 CURVE SMOOTH",
"260 30 OFFCURVE",
"251 39 OFFCURVE",
"226 45 CURVE SMOOTH",
"170 59 LINE",
"265 556 LINE SMOOTH",
"271 584 OFFCURVE",
"273 626 OFFCURVE",
"273 626 CURVE",
"278 626 LINE",
"278 626 OFFCURVE",
"284 584 OFFCURVE",
"293 556 CURVE SMOOTH",
"458 0 LINE",
"571 0 LINE",
"724 556 LINE SMOOTH",
"732 584 OFFCURVE",
"739 626 OFFCURVE",
"739 626 CURVE",
"744 626 LINE",
"744 626 OFFCURVE",
"747 584 OFFCURVE",
"753 556 CURVE SMOOTH",
"859 60 LINE",
"818 60 LINE SMOOTH",
"791 60 OFFCURVE",
"773 48 OFFCURVE",
"773 25 CURVE SMOOTH",
"773 10 OFFCURVE",
"780 0 OFFCURVE",
"793 0 CURVE SMOOTH",
"1017 0 LINE SMOOTH",
"1027 0 OFFCURVE",
"1030 8 OFFCURVE",
"1030 18 CURVE SMOOTH",
"1030 34 OFFCURVE",
"1021 43 OFFCURVE",
"998 49 CURVE SMOOTH",
"957 60 LINE",
"833 630 LINE",
"860 635 LINE SMOOTH",
"892 641 OFFCURVE",
"906 653 OFFCURVE",
"906 674 CURVE SMOOTH",
"906 689 OFFCURVE",
"898 695 OFFCURVE",
"889 695 CURVE SMOOTH",
"687 695 LINE",
"548 192 LINE SMOOTH",
"536 146 OFFCURVE",
"528 71 OFFCURVE",
"528 71 CURVE SMOOTH",
"523 71 LINE SMOOTH",
"523 71 OFFCURVE",
"515 146 OFFCURVE",
"502 192 CURVE SMOOTH",
"353 695 LINE",
"151 695 LINE SMOOTH",
"142 695 OFFCURVE",
"135 689 OFFCURVE",
"135 674 CURVE SMOOTH",
"135 653 OFFCURVE",
"149 641 OFFCURVE",
"180 635 CURVE SMOOTH",
"208 630 LINE",
"95 60 LINE",
"69 60 LINE SMOOTH",
"42 60 OFFCURVE",
"24 48 OFFCURVE",
"24 25 CURVE SMOOTH",
"24 10 OFFCURVE",
"31 0 OFFCURVE",
"44 0 CURVE SMOOTH"
);
}
);
width = 1050;
}
);
note = M;
unicode = 004D;
},
{
glyphname = Mdotbelow;
lastChange = "2015-07-16 17:52:31 +0000";
layers = (
{
components = (
{
name = M;
}
);
layerId = "F0FBE068-24F2-4D1F-B3A2-D9A3CAFE6F9A";
name = Regular;
paths = (
{
closed = 1;
nodes = (
"546 -177 OFFCURVE",
"570 -153 OFFCURVE",
"570 -121 CURVE SMOOTH",
"570 -89 OFFCURVE",
"546 -66 OFFCURVE",
"515 -66 CURVE SMOOTH",
"485 -66 OFFCURVE",
"460 -89 OFFCURVE",
"460 -121 CURVE SMOOTH",
"460 -153 OFFCURVE",
"485 -177 OFFCURVE",
"515 -177 CURVE SMOOTH"
);
}
);
width = 1050;
}
);
note = Mdotbelow;
unicode = 1E42;
},
{
glyphname = N;
lastChange = "2015-07-16 17:52:31 +0000";
layers = (
{
layerId = "F0FBE068-24F2-4D1F-B3A2-D9A3CAFE6F9A";
name = Regular;
paths = (
{
closed = 1;
nodes = (
"272 0 LINE SMOOTH",
"283 0 OFFCURVE",
"286 6 OFFCURVE",
"286 15 CURVE SMOOTH",
"286 30 OFFCURVE",
"276 39 OFFCURVE",
"254 45 CURVE SMOOTH",
"202 59 LINE",
"202 568 LINE",
"218 527 OFFCURVE",
"231 501 OFFCURVE",
"250 473 CURVE SMOOTH",
"578 0 LINE",
"671 0 LINE",
"671 636 LINE",
"711 649 LINE SMOOTH",
"731 655 OFFCURVE",
"746 666 OFFCURVE",
"746 680 CURVE SMOOTH",
"746 689 OFFCURVE",
"743 695 OFFCURVE",
"732 695 CURVE SMOOTH",
"560 695 LINE SMOOTH",
"533 695 OFFCURVE",
"515 683 OFFCURVE",
"515 661 CURVE SMOOTH",
"515 645 OFFCURVE",
"522 635 OFFCURVE",
"535 635 CURVE SMOOTH",
"594 635 LINE",
"594 126 LINE",
"577 169 OFFCURVE",
"560 202 OFFCURVE",
"537 235 CURVE SMOOTH",
"218 695 LINE",
"72 695 LINE SMOOTH",
"63 695 OFFCURVE",
"55 689 OFFCURVE",
"55 674 CURVE SMOOTH",
"55 654 OFFCURVE",
"67 645 OFFCURVE",
"99 637 CURVE SMOOTH",
"126 630 LINE",
"126 60 LINE",
"100 60 LINE SMOOTH",
"73 60 OFFCURVE",
"55 48 OFFCURVE",
"55 25 CURVE SMOOTH",
"55 10 OFFCURVE",
"62 0 OFFCURVE",
"75 0 CURVE SMOOTH"
);
}
);
width = 798;
}
);
note = N;
unicode = 004E;
},
{
glyphname = Nacute;
lastChange = "2015-07-16 17:52:31 +0000";
layers = (
{
components = (
{
name = N;
}
);
layerId = "F0FBE068-24F2-4D1F-B3A2-D9A3CAFE6F9A";
name = Regular;
paths = (
{
closed = 1;
nodes = (
"491 898 LINE",
"418 945 LINE",
"324 788 LINE",
"379 752 LINE"
);
}
);
width = 798;
}
);
note = Nacute;
unicode = 0143;
},
{
glyphname = Ncaron;
lastChange = "2015-07-16 17:52:31 +0000";
layers = (
{
components = (
{
name = N;
}
);
layerId = "F0FBE068-24F2-4D1F-B3A2-D9A3CAFE6F9A";
name = Regular;
paths = (
{
closed = 1;
nodes = (
"420 752 LINE",
"532 895 LINE",
"488 932 LINE",
"395 830 LINE",
"303 932 LINE",
"259 895 LINE",
"371 752 LINE"
);
}
);
width = 798;
}
);
note = Ncaron;
unicode = 0147;
},
{
glyphname = Ncommaaccent;
lastChange = "2015-07-16 17:52:31 +0000";
layers = (
{
components = (
{
name = N;
}
);
layerId = "F0FBE068-24F2-4D1F-B3A2-D9A3CAFE6F9A";
name = Regular;
paths = (
{
closed = 1;
nodes = (
"416 -204 OFFCURVE",
"452 -127 OFFCURVE",
"467 -69 CURVE",
"383 -50 LINE SMOOTH",
"358 -44 OFFCURVE",
"341 -55 OFFCURVE",
"341 -76 CURVE SMOOTH",
"341 -86 OFFCURVE",
"347 -91 OFFCURVE",
"355 -94 CURVE SMOOTH",
"383 -103 LINE",
"379 -136 OFFCURVE",
"352 -194 OFFCURVE",
"327 -230 CURVE",
"369 -256 LINE"
);
}
);
width = 798;
}
);
note = Ncommaaccent;
unicode = 0145;
},
{
glyphname = Ndotaccent;
lastChange = "2015-07-16 17:52:31 +0000";
layers = (
{
components = (
{
name = N;
}
);
layerId = "F0FBE068-24F2-4D1F-B3A2-D9A3CAFE6F9A";
name = Regular;
paths = (
{
closed = 1;
nodes = (
"429 769 OFFCURVE",
"453 793 OFFCURVE",
"453 824 CURVE SMOOTH",
"453 856 OFFCURVE",
"429 880 OFFCURVE",
"398 880 CURVE SMOOTH",
"368 880 OFFCURVE",
"343 856 OFFCURVE",
"343 824 CURVE SMOOTH",
"343 793 OFFCURVE",
"368 769 OFFCURVE",
"398 769 CURVE SMOOTH"
);
}
);
width = 798;
}
);
note = Ndotaccent;
unicode = 1E44;
},
{
glyphname = Ndotbelow;
lastChange = "2015-07-16 17:52:31 +0000";
layers = (
{
components = (
{
name = N;
}
);
layerId = "F0FBE068-24F2-4D1F-B3A2-D9A3CAFE6F9A";
name = Regular;
paths = (
{
closed = 1;
nodes = (
"436 -177 OFFCURVE",
"460 -153 OFFCURVE",
"460 -121 CURVE SMOOTH",
"460 -89 OFFCURVE",
"436 -66 OFFCURVE",
"405 -66 CURVE SMOOTH",
"375 -66 OFFCURVE",
"350 -89 OFFCURVE",
"350 -121 CURVE SMOOTH",
"350 -153 OFFCURVE",
"375 -177 OFFCURVE",
"405 -177 CURVE SMOOTH"
);
}
);
width = 798;
}
);
note = Ndotbelow;
unicode = 1E46;
},
{
glyphname = Eng;
lastChange = "2015-07-16 17:52:31 +0000";
layers = (
{
layerId = "F0FBE068-24F2-4D1F-B3A2-D9A3CAFE6F9A";
name = Regular;
paths = (
{
closed = 1;
nodes = (
"563 -213 OFFCURVE",
"671 -156 OFFCURVE",
"671 -20 CURVE SMOOTH",
"671 636 LINE",
"711 648 LINE SMOOTH",
"732 654 OFFCURVE",
"747 666 OFFCURVE",
"747 680 CURVE SMOOTH",
"747 689 OFFCURVE",
"744 695 OFFCURVE",
"733 695 CURVE SMOOTH",
"561 695 LINE SMOOTH",
"533 695 OFFCURVE",
"516 683 OFFCURVE",
"516 661 CURVE SMOOTH",
"516 645 OFFCURVE",
"523 635 OFFCURVE",
"536 635 CURVE SMOOTH",
"594 635 LINE",
"594 131 LINE",
"580 163 OFFCURVE",
"565 195 OFFCURVE",
"537 235 CURVE SMOOTH",
"218 695 LINE",
"72 695 LINE SMOOTH",
"63 695 OFFCURVE",
"55 689 OFFCURVE",
"55 674 CURVE SMOOTH",
"55 654 OFFCURVE",
"67 643 OFFCURVE",
"99 636 CURVE SMOOTH",
"126 630 LINE",
"126 60 LINE",
"101 60 LINE SMOOTH",
"73 60 OFFCURVE",
"55 48 OFFCURVE",
"55 25 CURVE SMOOTH",
"55 10 OFFCURVE",
"63 0 OFFCURVE",
"76 0 CURVE SMOOTH",
"272 0 LINE SMOOTH",
"284 0 OFFCURVE",
"286 6 OFFCURVE",
"286 15 CURVE SMOOTH",
"286 30 OFFCURVE",
"277 38 OFFCURVE",
"254 45 CURVE SMOOTH",
"202 59 LINE",
"202 562 LINE",
"218 526 OFFCURVE",
"231 501 OFFCURVE",
"250 473 CURVE SMOOTH",
"578 0 LINE",
"578 -23 LINE SMOOTH",
"578 -110 OFFCURVE",
"533 -152 OFFCURVE",
"452 -167 CURVE",
"473 -225 LINE"
);
}
);
width = 799;
}
);
note = Eng;
unicode = 014A;
},
{
glyphname = Nlinebelow;
lastChange = "2015-07-16 17:52:31 +0000";
layers = (
{
components = (
{
name = N;
}
);
layerId = "F0FBE068-24F2-4D1F-B3A2-D9A3CAFE6F9A";
name = Regular;
paths = (
{
closed = 1;
nodes = (
"596 -153 LINE",
"596 -88 LINE",
"208 -88 LINE",
"208 -153 LINE"
);
}
);
width = 798;
}
);
note = Nlinebelow;
unicode = 1E48;
},
{
glyphname = Ntilde;
lastChange = "2015-07-16 17:52:31 +0000";
layers = (
{
components = (
{
name = N;
}
);
layerId = "F0FBE068-24F2-4D1F-B3A2-D9A3CAFE6F9A";
name = Regular;
paths = (
{
closed = 1;
nodes = (
"484 763 OFFCURVE",
"519 782 OFFCURVE",
"548 810 CURVE",
"514 856 LINE",
"494 841 OFFCURVE",
"474 831 OFFCURVE",
"451 831 CURVE SMOOTH",
"413 831 OFFCURVE",
"375 868 OFFCURVE",
"333 868 CURVE SMOOTH",
"301 868 OFFCURVE",
"263 846 OFFCURVE",
"234 820 CURVE",
"267 774 LINE",
"288 789 OFFCURVE",
"307 800 OFFCURVE",
"332 800 CURVE SMOOTH",
"374 800 OFFCURVE",
"407 763 OFFCURVE",
"452 763 CURVE SMOOTH"
);
}
);
width = 798;
}
);
note = Ntilde;
unicode = 00D1;
},
{
glyphname = O;
lastChange = "2015-07-16 17:52:31 +0000";
layers = (
{
layerId = "F0FBE068-24F2-4D1F-B3A2-D9A3CAFE6F9A";
name = Regular;
paths = (
{
closed = 1;
nodes = (
"561 -13 OFFCURVE",
"699 101 OFFCURVE",
"699 347 CURVE SMOOTH",
"699 592 OFFCURVE",
"561 708 OFFCURVE",
"373 708 CURVE SMOOTH",
"185 708 OFFCURVE",
"47 592 OFFCURVE",
"47 347 CURVE SMOOTH",
"47 101 OFFCURVE",
"185 -13 OFFCURVE",
"373 -13 CURVE SMOOTH"
);
},
{
closed = 1;
nodes = (
"226 53 OFFCURVE",
"148 159 OFFCURVE",
"148 347 CURVE SMOOTH",
"148 534 OFFCURVE",
"226 642 OFFCURVE",
"372 642 CURVE SMOOTH",
"518 642 OFFCURVE",
"597 534 OFFCURVE",
"597 347 CURVE SMOOTH",
"597 159 OFFCURVE",
"518 53 OFFCURVE",
"372 53 CURVE SMOOTH"
);
}
);
width = 745;
}
);
note = O;
unicode = 004F;
},
{
glyphname = Oacute;
lastChange = "2015-07-16 17:52:31 +0000";
layers = (
{
layerId = "F0FBE068-24F2-4D1F-B3A2-D9A3CAFE6F9A";
name = Regular;
paths = (
{
closed = 1;
nodes = (
"561 -13 OFFCURVE",
"699 101 OFFCURVE",
"699 347 CURVE SMOOTH",
"699 592 OFFCURVE",
"561 708 OFFCURVE",
"373 708 CURVE SMOOTH",
"185 708 OFFCURVE",
"47 592 OFFCURVE",
"47 347 CURVE SMOOTH",
"47 101 OFFCURVE",
"185 -13 OFFCURVE",
"373 -13 CURVE SMOOTH"
);
},
{
closed = 1;
nodes = (
"226 53 OFFCURVE",
"148 159 OFFCURVE",
"148 347 CURVE SMOOTH",
"148 534 OFFCURVE",
"226 642 OFFCURVE",
"372 642 CURVE SMOOTH",
"518 642 OFFCURVE",
"597 534 OFFCURVE",
"597 347 CURVE SMOOTH",
"597 159 OFFCURVE",
"518 53 OFFCURVE",
"372 53 CURVE SMOOTH"
);
},
{
closed = 1;
nodes = (
"464 898 LINE",
"391 945 LINE",
"297 788 LINE",
"352 752 LINE"
);
}
);
width = 745;
}
);
note = Oacute;
unicode = 00D3;
},
{
glyphname = Obreve;
lastChange = "2015-07-16 17:52:31 +0000";
layers = (
{
layerId = "F0FBE068-24F2-4D1F-B3A2-D9A3CAFE6F9A";
name = Regular;
paths = (
{
closed = 1;
nodes = (
"561 -13 OFFCURVE",
"699 101 OFFCURVE",
"699 347 CURVE SMOOTH",
"699 592 OFFCURVE",
"561 708 OFFCURVE",
"373 708 CURVE SMOOTH",
"185 708 OFFCURVE",
"47 592 OFFCURVE",
"47 347 CURVE SMOOTH",
"47 101 OFFCURVE",
"185 -13 OFFCURVE",
"373 -13 CURVE SMOOTH"
);
},
{
closed = 1;
nodes = (
"226 53 OFFCURVE",
"148 159 OFFCURVE",
"148 347 CURVE SMOOTH",
"148 534 OFFCURVE",
"226 642 OFFCURVE",
"372 642 CURVE SMOOTH",
"518 642 OFFCURVE",
"597 534 OFFCURVE",
"597 347 CURVE SMOOTH",
"597 159 OFFCURVE",
"518 53 OFFCURVE",
"372 53 CURVE SMOOTH"
);
},
{
closed = 1;
nodes = (
"439 747 OFFCURVE",
"501 782 OFFCURVE",
"527 874 CURVE",
"472 893 LINE",
"457 844 OFFCURVE",
"422 813 OFFCURVE",
"372 813 CURVE SMOOTH",
"323 813 OFFCURVE",
"288 844 OFFCURVE",
"272 893 CURVE",
"218 874 LINE",
"244 782 OFFCURVE",
"306 747 OFFCURVE",
"372 747 CURVE SMOOTH"
);
}
);
width = 745;
}
);
note = Obreve;
unicode = 014E;
},
{
glyphname = Ocaron;
lastChange = "2015-07-16 17:52:31 +0000";
layers = (
{
layerId = "F0FBE068-24F2-4D1F-B3A2-D9A3CAFE6F9A";
name = Regular;
paths = (
{
closed = 1;
nodes = (
"561 -13 OFFCURVE",
"699 101 OFFCURVE",
"699 347 CURVE SMOOTH",
"699 592 OFFCURVE",
"561 708 OFFCURVE",
"373 708 CURVE SMOOTH",
"185 708 OFFCURVE",
"47 592 OFFCURVE",
"47 347 CURVE SMOOTH",
"47 101 OFFCURVE",
"185 -13 OFFCURVE",
"373 -13 CURVE SMOOTH"
);
},
{
closed = 1;
nodes = (
"226 53 OFFCURVE",
"148 159 OFFCURVE",
"148 347 CURVE SMOOTH",
"148 534 OFFCURVE",
"226 642 OFFCURVE",
"372 642 CURVE SMOOTH",
"518 642 OFFCURVE",
"597 534 OFFCURVE",
"597 347 CURVE SMOOTH",
"597 159 OFFCURVE",
"518 53 OFFCURVE",
"372 53 CURVE SMOOTH"
);
},
{
closed = 1;
nodes = (
"398 752 LINE",
"510 895 LINE",
"466 932 LINE",
"373 830 LINE",
"281 932 LINE",
"237 895 LINE",
"349 752 LINE"
);
}
);
width = 745;
}
);
note = Ocaron;
unicode = 01D1;
},
{
glyphname = Ocircumflex;
lastChange = "2015-07-16 17:52:31 +0000";
layers = (
{
layerId = "F0FBE068-24F2-4D1F-B3A2-D9A3CAFE6F9A";
name = Regular;
paths = (
{
closed = 1;
nodes = (
"561 -13 OFFCURVE",
"699 101 OFFCURVE",
"699 347 CURVE SMOOTH",
"699 592 OFFCURVE",
"561 708 OFFCURVE",
"373 708 CURVE SMOOTH",
"185 708 OFFCURVE",
"47 592 OFFCURVE",
"47 347 CURVE SMOOTH",
"47 101 OFFCURVE",
"185 -13 OFFCURVE",
"373 -13 CURVE SMOOTH"
);
},
{
closed = 1;
nodes = (
"226 53 OFFCURVE",
"148 159 OFFCURVE",
"148 347 CURVE SMOOTH",
"148 534 OFFCURVE",
"226 642 OFFCURVE",
"372 642 CURVE SMOOTH",
"518 642 OFFCURVE",
"597 534 OFFCURVE",
"597 347 CURVE SMOOTH",
"597 159 OFFCURVE",
"518 53 OFFCURVE",
"372 53 CURVE SMOOTH"
);
},
{
closed = 1;
nodes = (
"372 854 LINE",
"465 752 LINE",
"509 789 LINE",
"397 932 LINE",
"348 932 LINE",
"236 789 LINE",
"280 752 LINE"
);
}
);
width = 745;
}
);
note = Ocircumflex;
unicode = 00D4;
},
{
glyphname = Ocircumflexacute;
lastChange = "2015-07-16 17:52:31 +0000";
layers = (
{
layerId = "F0FBE068-24F2-4D1F-B3A2-D9A3CAFE6F9A";
name = Regular;
paths = (
{
closed = 1;
nodes = (
"561 -13 OFFCURVE",
"699 101 OFFCURVE",
"699 347 CURVE SMOOTH",
"699 592 OFFCURVE",
"561 708 OFFCURVE",
"373 708 CURVE SMOOTH",
"185 708 OFFCURVE",
"47 592 OFFCURVE",
"47 347 CURVE SMOOTH",
"47 101 OFFCURVE",
"185 -13 OFFCURVE",
"373 -13 CURVE SMOOTH"
);
},
{
closed = 1;
nodes = (
"226 53 OFFCURVE",
"148 159 OFFCURVE",
"148 347 CURVE SMOOTH",
"148 534 OFFCURVE",
"226 642 OFFCURVE",
"372 642 CURVE SMOOTH",
"518 642 OFFCURVE",
"597 534 OFFCURVE",
"597 347 CURVE SMOOTH",
"597 159 OFFCURVE",
"518 53 OFFCURVE",
"372 53 CURVE SMOOTH"
);
},
{
closed = 1;
nodes = (
"372 854 LINE",
"465 752 LINE",
"509 789 LINE",
"397 932 LINE",
"348 932 LINE",
"236 789 LINE",
"280 752 LINE"
);
},
{
closed = 1;
nodes = (
"601 963 LINE",
"536 1005 LINE",
"471 890 LINE",
"515 861 LINE"
);
}
);
width = 745;
}
);
note = Ocircumflexacute;
unicode = 1ED0;
},
{
glyphname = Ocircumflexdotbelow;
lastChange = "2015-07-16 17:52:31 +0000";
layers = (
{
layerId = "F0FBE068-24F2-4D1F-B3A2-D9A3CAFE6F9A";
name = Regular;
paths = (
{
closed = 1;
nodes = (
"561 -13 OFFCURVE",
"699 101 OFFCURVE",
"699 347 CURVE SMOOTH",
"699 592 OFFCURVE",
"561 708 OFFCURVE",
"373 708 CURVE SMOOTH",
"185 708 OFFCURVE",
"47 592 OFFCURVE",
"47 347 CURVE SMOOTH",
"47 101 OFFCURVE",
"185 -13 OFFCURVE",
"373 -13 CURVE SMOOTH"
);
},
{
closed = 1;
nodes = (
"404 -177 OFFCURVE",
"428 -153 OFFCURVE",
"428 -121 CURVE SMOOTH",
"428 -89 OFFCURVE",
"404 -66 OFFCURVE",
"373 -66 CURVE SMOOTH",
"343 -66 OFFCURVE",
"318 -89 OFFCURVE",
"318 -121 CURVE SMOOTH",
"318 -153 OFFCURVE",
"343 -177 OFFCURVE",
"373 -177 CURVE SMOOTH"
);
},
{
closed = 1;
nodes = (
"226 53 OFFCURVE",
"148 159 OFFCURVE",
"148 347 CURVE SMOOTH",
"148 534 OFFCURVE",
"226 642 OFFCURVE",
"372 642 CURVE SMOOTH",
"518 642 OFFCURVE",
"597 534 OFFCURVE",
"597 347 CURVE SMOOTH",
"597 159 OFFCURVE",
"518 53 OFFCURVE",
"372 53 CURVE SMOOTH"
);
},
{
closed = 1;
nodes = (
"372 854 LINE",
"465 752 LINE",
"509 789 LINE",
"397 932 LINE",
"348 932 LINE",
"236 789 LINE",
"280 752 LINE"
);
}
);
width = 745;
}
);
note = Ocircumflexdotbelow;
unicode = 1ED8;
},
{
glyphname = Ocircumflexgrave;
lastChange = "2015-07-16 17:52:31 +0000";
layers = (
{
layerId = "F0FBE068-24F2-4D1F-B3A2-D9A3CAFE6F9A";
name = Regular;
paths = (
{
closed = 1;
nodes = (
"561 -13 OFFCURVE",
"699 101 OFFCURVE",
"699 347 CURVE SMOOTH",
"699 592 OFFCURVE",
"561 708 OFFCURVE",
"373 708 CURVE SMOOTH",
"185 708 OFFCURVE",
"47 592 OFFCURVE",
"47 347 CURVE SMOOTH",
"47 101 OFFCURVE",
"185 -13 OFFCURVE",
"373 -13 CURVE SMOOTH"
);
},
{
closed = 1;
nodes = (
"226 53 OFFCURVE",
"148 159 OFFCURVE",
"148 347 CURVE SMOOTH",
"148 534 OFFCURVE",
"226 642 OFFCURVE",
"372 642 CURVE SMOOTH",
"518 642 OFFCURVE",
"597 534 OFFCURVE",
"597 347 CURVE SMOOTH",
"597 159 OFFCURVE",
"518 53 OFFCURVE",
"372 53 CURVE SMOOTH"
);
},
{
closed = 1;
nodes = (
"277 890 LINE",
"212 1005 LINE",
"147 963 LINE",
"233 861 LINE"
);
},
{
closed = 1;
nodes = (
"376 854 LINE",
"469 752 LINE",
"513 789 LINE",
"401 932 LINE",
"352 932 LINE",
"240 789 LINE",
"284 752 LINE"
);
}
);
width = 745;
}
);
note = Ocircumflexgrave;
unicode = 1ED2;
},
{
glyphname = Ocircumflexhookabove;
lastChange = "2015-07-16 17:52:31 +0000";
layers = (
{
layerId = "F0FBE068-24F2-4D1F-B3A2-D9A3CAFE6F9A";
name = Regular;
paths = (
{
closed = 1;
nodes = (
"561 -13 OFFCURVE",
"699 101 OFFCURVE",
"699 347 CURVE SMOOTH",
"699 592 OFFCURVE",
"561 708 OFFCURVE",
"373 708 CURVE SMOOTH",
"185 708 OFFCURVE",
"47 592 OFFCURVE",
"47 347 CURVE SMOOTH",
"47 101 OFFCURVE",
"185 -13 OFFCURVE",
"373 -13 CURVE SMOOTH"
);
},
{
closed = 1;
nodes = (
"226 53 OFFCURVE",
"148 159 OFFCURVE",
"148 347 CURVE SMOOTH",
"148 534 OFFCURVE",
"226 642 OFFCURVE",
"372 642 CURVE SMOOTH",
"518 642 OFFCURVE",
"597 534 OFFCURVE",
"597 347 CURVE SMOOTH",
"597 159 OFFCURVE",
"518 53 OFFCURVE",
"372 53 CURVE SMOOTH"
);
},
{
closed = 1;
nodes = (
"377 854 LINE",
"470 752 LINE",
"514 789 LINE",
"402 932 LINE",
"353 932 LINE",
"241 789 LINE",
"285 752 LINE"
);
},
{
closed = 1;
nodes = (
"556 857 LINE",
"562 902 LINE",
"599 916 OFFCURVE",
"622 941 OFFCURVE",
"622 974 CURVE SMOOTH",
"622 1015 OFFCURVE",
"588 1044 OFFCURVE",
"536 1044 CURVE SMOOTH",
"514 1044 OFFCURVE",
"487 1037 OFFCURVE",
"471 1030 CURVE",
"478 993 LINE",
"495 998 OFFCURVE",
"510 1002 OFFCURVE",
"527 1002 CURVE SMOOTH",
"548 1002 OFFCURVE",
"559 992 OFFCURVE",
"559 974 CURVE SMOOTH",
"559 951 OFFCURVE",
"539 936 OFFCURVE",
"505 924 CURVE",
"510 857 LINE"
);
}
);
width = 745;
}
);
note = Ocircumflexhookabove;
unicode = 1ED4;
},
{
glyphname = Ocircumflextilde;
lastChange = "2015-07-16 17:52:31 +0000";
layers = (
{
layerId = "F0FBE068-24F2-4D1F-B3A2-D9A3CAFE6F9A";
name = Regular;
paths = (
{
closed = 1;
nodes = (
"561 -13 OFFCURVE",
"699 101 OFFCURVE",
"699 347 CURVE SMOOTH",
"699 592 OFFCURVE",
"561 708 OFFCURVE",
"373 708 CURVE SMOOTH",
"185 708 OFFCURVE",
"47 592 OFFCURVE",
"47 347 CURVE SMOOTH",
"47 101 OFFCURVE",
"185 -13 OFFCURVE",
"373 -13 CURVE SMOOTH"
);
},
{
closed = 1;
nodes = (
"226 53 OFFCURVE",
"148 159 OFFCURVE",
"148 347 CURVE SMOOTH",
"148 534 OFFCURVE",
"226 642 OFFCURVE",
"372 642 CURVE SMOOTH",
"518 642 OFFCURVE",
"597 534 OFFCURVE",
"597 347 CURVE SMOOTH",
"597 159 OFFCURVE",
"518 53 OFFCURVE",
"372 53 CURVE SMOOTH"
);
},
{
closed = 1;
nodes = (
"439 747 OFFCURVE",
"501 782 OFFCURVE",
"527 874 CURVE",
"472 893 LINE",
"457 844 OFFCURVE",
"422 813 OFFCURVE",
"372 813 CURVE SMOOTH",
"323 813 OFFCURVE",
"288 844 OFFCURVE",
"272 893 CURVE",
"218 874 LINE",
"244 782 OFFCURVE",
"306 747 OFFCURVE",
"372 747 CURVE SMOOTH"
);
},
{
closed = 1;
nodes = (
"446 929 OFFCURVE",
"473 944 OFFCURVE",
"496 967 CURVE",
"469 1008 LINE",
"454 996 OFFCURVE",
"438 988 OFFCURVE",
"420 988 CURVE SMOOTH",
"390 988 OFFCURVE",
"360 1017 OFFCURVE",
"327 1017 CURVE SMOOTH",
"303 1017 OFFCURVE",
"273 1000 OFFCURVE",
"250 980 CURVE",
"277 938 LINE",
"292 950 OFFCURVE",
"307 959 OFFCURVE",
"327 959 CURVE SMOOTH",
"360 959 OFFCURVE",
"385 929 OFFCURVE",
"421 929 CURVE SMOOTH"
);
}
);
width = 745;
}
);
note = Ocircumflextilde;
unicode = 1ED6;
},
{
glyphname = Odieresis;
lastChange = "2015-07-16 17:52:31 +0000";
layers = (
{
layerId = "F0FBE068-24F2-4D1F-B3A2-D9A3CAFE6F9A";
name = Regular;
paths = (
{
closed = 1;
nodes = (
"561 -13 OFFCURVE",
"699 101 OFFCURVE",
"699 347 CURVE SMOOTH",
"699 592 OFFCURVE",
"561 708 OFFCURVE",
"373 708 CURVE SMOOTH",
"185 708 OFFCURVE",
"47 592 OFFCURVE",
"47 347 CURVE SMOOTH",
"47 101 OFFCURVE",
"185 -13 OFFCURVE",
"373 -13 CURVE SMOOTH"
);
},
{
closed = 1;
nodes = (
"226 53 OFFCURVE",
"148 159 OFFCURVE",
"148 347 CURVE SMOOTH",
"148 534 OFFCURVE",
"226 642 OFFCURVE",
"372 642 CURVE SMOOTH",
"518 642 OFFCURVE",
"597 534 OFFCURVE",
"597 347 CURVE SMOOTH",
"597 159 OFFCURVE",
"518 53 OFFCURVE",
"372 53 CURVE SMOOTH"
);
},
{
closed = 1;
nodes = (
"303 763 OFFCURVE",
"329 786 OFFCURVE",
"329 818 CURVE SMOOTH",
"329 850 OFFCURVE",
"303 873 OFFCURVE",
"274 873 CURVE SMOOTH",
"244 873 OFFCURVE",
"219 850 OFFCURVE",
"219 818 CURVE SMOOTH",
"219 786 OFFCURVE",
"244 763 OFFCURVE",
"274 763 CURVE SMOOTH"
);
},
{
closed = 1;
nodes = (
"501 763 OFFCURVE",
"527 786 OFFCURVE",
"527 818 CURVE SMOOTH",
"527 850 OFFCURVE",
"501 873 OFFCURVE",
"472 873 CURVE SMOOTH",
"442 873 OFFCURVE",
"417 850 OFFCURVE",
"417 818 CURVE SMOOTH",
"417 786 OFFCURVE",
"442 763 OFFCURVE",
"472 763 CURVE SMOOTH"
);
}
);
width = 745;
}
);
note = Odieresis;
unicode = 00D6;
},
{
glyphname = Odotbelow;
lastChange = "2015-07-16 17:52:31 +0000";
layers = (
{
layerId = "F0FBE068-24F2-4D1F-B3A2-D9A3CAFE6F9A";
name = Regular;
paths = (
{
closed = 1;
nodes = (
"561 -13 OFFCURVE",
"699 101 OFFCURVE",
"699 347 CURVE SMOOTH",
"699 592 OFFCURVE",
"561 708 OFFCURVE",
"373 708 CURVE SMOOTH",
"185 708 OFFCURVE",
"47 592 OFFCURVE",
"47 347 CURVE SMOOTH",
"47 101 OFFCURVE",
"185 -13 OFFCURVE",
"373 -13 CURVE SMOOTH"
);
},
{
closed = 1;
nodes = (
"404 -177 OFFCURVE",
"428 -153 OFFCURVE",
"428 -121 CURVE SMOOTH",
"428 -89 OFFCURVE",
"404 -66 OFFCURVE",
"373 -66 CURVE SMOOTH",
"343 -66 OFFCURVE",
"318 -89 OFFCURVE",
"318 -121 CURVE SMOOTH",
"318 -153 OFFCURVE",
"343 -177 OFFCURVE",
"373 -177 CURVE SMOOTH"
);
},
{
closed = 1;
nodes = (
"226 53 OFFCURVE",
"148 159 OFFCURVE",
"148 347 CURVE SMOOTH",
"148 534 OFFCURVE",
"226 642 OFFCURVE",
"372 642 CURVE SMOOTH",
"518 642 OFFCURVE",
"597 534 OFFCURVE",
"597 347 CURVE SMOOTH",
"597 159 OFFCURVE",
"518 53 OFFCURVE",
"372 53 CURVE SMOOTH"
);
}
);
width = 745;
}
);
note = Odotbelow;
unicode = 1ECC;
},
{
glyphname = Ograve;
lastChange = "2015-07-16 17:52:31 +0000";
layers = (
{
layerId = "F0FBE068-24F2-4D1F-B3A2-D9A3CAFE6F9A";
name = Regular;
paths = (
{
closed = 1;
nodes = (
"561 -13 OFFCURVE",
"699 101 OFFCURVE",
"699 347 CURVE SMOOTH",
"699 592 OFFCURVE",
"561 708 OFFCURVE",
"373 708 CURVE SMOOTH",
"185 708 OFFCURVE",
"47 592 OFFCURVE",
"47 347 CURVE SMOOTH",
"47 101 OFFCURVE",
"185 -13 OFFCURVE",
"373 -13 CURVE SMOOTH"
);
},
{
closed = 1;
nodes = (
"226 53 OFFCURVE",
"148 159 OFFCURVE",
"148 347 CURVE SMOOTH",
"148 534 OFFCURVE",
"226 642 OFFCURVE",
"372 642 CURVE SMOOTH",
"518 642 OFFCURVE",
"597 534 OFFCURVE",
"597 347 CURVE SMOOTH",
"597 159 OFFCURVE",
"518 53 OFFCURVE",
"372 53 CURVE SMOOTH"
);
},
{
closed = 1;
nodes = (
"432 789 LINE",
"338 946 LINE",
"265 899 LINE",
"377 753 LINE"
);
}
);
width = 745;
}
);
note = Ograve;
unicode = 00D2;
},
{
glyphname = Ohookabove;
lastChange = "2015-07-16 17:52:31 +0000";
layers = (
{
layerId = "F0FBE068-24F2-4D1F-B3A2-D9A3CAFE6F9A";
name = Regular;
paths = (
{
closed = 1;
nodes = (
"561 -13 OFFCURVE",
"699 101 OFFCURVE",
"699 347 CURVE SMOOTH",
"699 592 OFFCURVE",
"561 708 OFFCURVE",
"373 708 CURVE SMOOTH",
"185 708 OFFCURVE",
"47 592 OFFCURVE",
"47 347 CURVE SMOOTH",
"47 101 OFFCURVE",
"185 -13 OFFCURVE",
"373 -13 CURVE SMOOTH"
);
},
{
closed = 1;
nodes = (
"226 53 OFFCURVE",
"148 159 OFFCURVE",
"148 347 CURVE SMOOTH",
"148 534 OFFCURVE",
"226 642 OFFCURVE",
"372 642 CURVE SMOOTH",
"518 642 OFFCURVE",
"597 534 OFFCURVE",
"597 347 CURVE SMOOTH",
"597 159 OFFCURVE",
"518 53 OFFCURVE",
"372 53 CURVE SMOOTH"
);
},
{
closed = 1;
nodes = (
"401 750 LINE",
"407 796 LINE",
"446 810 OFFCURVE",
"470 837 OFFCURVE",
"470 871 CURVE SMOOTH",
"470 912 OFFCURVE",
"434 943 OFFCURVE",
"381 943 CURVE SMOOTH",
"358 943 OFFCURVE",
"330 935 OFFCURVE",
"314 928 CURVE",
"321 890 LINE",
"338 895 OFFCURVE",
"355 899 OFFCURVE",
"372 899 CURVE SMOOTH",
"394 899 OFFCURVE",
"405 889 OFFCURVE",
"405 870 CURVE SMOOTH",
"405 847 OFFCURVE",
"384 831 OFFCURVE",
"349 819 CURVE",
"355 750 LINE"
);
}
);
width = 745;
}
);
note = Ohookabove;
unicode = 1ECE;
},
{
glyphname = Ohorn;
lastChange = "2015-07-16 17:52:31 +0000";
layers = (
{
layerId = "F0FBE068-24F2-4D1F-B3A2-D9A3CAFE6F9A";
name = Regular;
paths = (
{
closed = 1;
nodes = (
"561 -13 OFFCURVE",
"699 101 OFFCURVE",
"699 347 CURVE SMOOTH",
"699 452 OFFCURVE",
"674 533 OFFCURVE",
"631 591 CURVE",
"690 625 OFFCURVE",
"743 680 OFFCURVE",
"743 766 CURVE",
"642 766 LINE",
"642 706 OFFCURVE",
"621 663 OFFCURVE",
"582 639 CURVE",
"527 684 OFFCURVE",
"455 708 OFFCURVE",
"373 708 CURVE SMOOTH",
"185 708 OFFCURVE",
"47 592 OFFCURVE",
"47 347 CURVE SMOOTH",
"47 101 OFFCURVE",
"185 -13 OFFCURVE",
"373 -13 CURVE SMOOTH"
);
},
{
closed = 1;
nodes = (
"226 53 OFFCURVE",
"148 159 OFFCURVE",
"148 347 CURVE SMOOTH",
"148 534 OFFCURVE",
"226 642 OFFCURVE",
"372 642 CURVE SMOOTH",
"518 642 OFFCURVE",
"597 534 OFFCURVE",
"597 347 CURVE SMOOTH",
"597 159 OFFCURVE",
"518 53 OFFCURVE",
"372 53 CURVE SMOOTH"
);
}
);
width = 778;
}
);
note = Ohorn;
unicode = 01A0;
},
{
glyphname = Ohornacute;
lastChange = "2015-07-16 17:52:31 +0000";
layers = (
{
layerId = "F0FBE068-24F2-4D1F-B3A2-D9A3CAFE6F9A";
name = Regular;
paths = (
{
closed = 1;
nodes = (
"561 -13 OFFCURVE",
"699 101 OFFCURVE",
"699 347 CURVE SMOOTH",
"699 452 OFFCURVE",
"674 533 OFFCURVE",
"631 591 CURVE",
"690 625 OFFCURVE",
"743 680 OFFCURVE",
"743 766 CURVE",
"642 766 LINE",
"642 706 OFFCURVE",
"621 663 OFFCURVE",
"582 639 CURVE",
"527 684 OFFCURVE",
"455 708 OFFCURVE",
"373 708 CURVE SMOOTH",
"185 708 OFFCURVE",
"47 592 OFFCURVE",
"47 347 CURVE SMOOTH",
"47 101 OFFCURVE",
"185 -13 OFFCURVE",
"373 -13 CURVE SMOOTH"
);
},
{
closed = 1;
nodes = (
"226 53 OFFCURVE",
"148 159 OFFCURVE",
"148 347 CURVE SMOOTH",
"148 534 OFFCURVE",
"226 642 OFFCURVE",
"372 642 CURVE SMOOTH",
"518 642 OFFCURVE",
"597 534 OFFCURVE",
"597 347 CURVE SMOOTH",
"597 159 OFFCURVE",
"518 53 OFFCURVE",
"372 53 CURVE SMOOTH"
);
},
{
closed = 1;
nodes = (
"456 898 LINE",
"383 945 LINE",
"289 788 LINE",
"344 752 LINE"
);
}
);
width = 778;
}
);
note = Ohornacute;
unicode = 1EDA;
},
{
glyphname = Ohorndotbelow;
lastChange = "2015-07-16 17:52:31 +0000";
layers = (
{
layerId = "F0FBE068-24F2-4D1F-B3A2-D9A3CAFE6F9A";
name = Regular;
paths = (
{
closed = 1;
nodes = (
"561 -13 OFFCURVE",
"699 101 OFFCURVE",
"699 347 CURVE SMOOTH",
"699 452 OFFCURVE",
"674 533 OFFCURVE",
"631 591 CURVE",
"690 625 OFFCURVE",
"743 680 OFFCURVE",
"743 766 CURVE",
"642 766 LINE",
"642 706 OFFCURVE",
"621 663 OFFCURVE",
"582 639 CURVE",
"527 684 OFFCURVE",
"455 708 OFFCURVE",
"373 708 CURVE SMOOTH",
"185 708 OFFCURVE",
"47 592 OFFCURVE",
"47 347 CURVE SMOOTH",
"47 101 OFFCURVE",
"185 -13 OFFCURVE",
"373 -13 CURVE SMOOTH"
);
},
{
closed = 1;
nodes = (
"407 -177 OFFCURVE",
"431 -153 OFFCURVE",
"431 -121 CURVE SMOOTH",
"431 -89 OFFCURVE",
"407 -66 OFFCURVE",
"376 -66 CURVE SMOOTH",
"346 -66 OFFCURVE",
"321 -89 OFFCURVE",
"321 -121 CURVE SMOOTH",
"321 -153 OFFCURVE",
"346 -177 OFFCURVE",
"376 -177 CURVE SMOOTH"
);
},
{
closed = 1;
nodes = (
"226 53 OFFCURVE",
"148 159 OFFCURVE",
"148 347 CURVE SMOOTH",
"148 534 OFFCURVE",
"226 642 OFFCURVE",
"372 642 CURVE SMOOTH",
"518 642 OFFCURVE",
"597 534 OFFCURVE",
"597 347 CURVE SMOOTH",
"597 159 OFFCURVE",
"518 53 OFFCURVE",
"372 53 CURVE SMOOTH"
);
}
);
width = 778;
}
);
note = Ohorndotbelow;
unicode = 1EE2;
},
{
glyphname = Ohorngrave;
lastChange = "2015-07-16 17:52:32 +0000";
layers = (
{
layerId = "F0FBE068-24F2-4D1F-B3A2-D9A3CAFE6F9A";
name = Regular;
paths = (
{
closed = 1;
nodes = (
"561 -13 OFFCURVE",
"699 101 OFFCURVE",
"699 347 CURVE SMOOTH",
"699 452 OFFCURVE",
"674 533 OFFCURVE",
"631 591 CURVE",
"690 625 OFFCURVE",
"743 680 OFFCURVE",
"743 766 CURVE",
"642 766 LINE",
"642 706 OFFCURVE",
"621 663 OFFCURVE",
"582 639 CURVE",
"527 684 OFFCURVE",
"455 708 OFFCURVE",
"373 708 CURVE SMOOTH",
"185 708 OFFCURVE",
"47 592 OFFCURVE",
"47 347 CURVE SMOOTH",
"47 101 OFFCURVE",
"185 -13 OFFCURVE",
"373 -13 CURVE SMOOTH"
);
},
{
closed = 1;
nodes = (
"226 53 OFFCURVE",
"148 159 OFFCURVE",
"148 347 CURVE SMOOTH",
"148 534 OFFCURVE",
"226 642 OFFCURVE",
"372 642 CURVE SMOOTH",
"518 642 OFFCURVE",
"597 534 OFFCURVE",
"597 347 CURVE SMOOTH",
"597 159 OFFCURVE",
"518 53 OFFCURVE",
"372 53 CURVE SMOOTH"
);
},
{
closed = 1;
nodes = (
"443 789 LINE",
"349 946 LINE",
"276 899 LINE",
"388 753 LINE"
);
}
);
width = 778;
}
);
note = Ohorngrave;
unicode = 1EDC;
},
{
glyphname = Ohornhookabove;
lastChange = "2015-07-16 17:52:31 +0000";
layers = (
{
layerId = "F0FBE068-24F2-4D1F-B3A2-D9A3CAFE6F9A";
name = Regular;
paths = (
{
closed = 1;
nodes = (
"561 -13 OFFCURVE",
"699 101 OFFCURVE",
"699 347 CURVE SMOOTH",
"699 452 OFFCURVE",
"674 533 OFFCURVE",
"631 591 CURVE",
"690 625 OFFCURVE",
"743 680 OFFCURVE",
"743 766 CURVE",
"642 766 LINE",
"642 706 OFFCURVE",
"621 663 OFFCURVE",
"582 639 CURVE",
"527 684 OFFCURVE",
"455 708 OFFCURVE",
"373 708 CURVE SMOOTH",
"185 708 OFFCURVE",
"47 592 OFFCURVE",
"47 347 CURVE SMOOTH",
"47 101 OFFCURVE",
"185 -13 OFFCURVE",
"373 -13 CURVE SMOOTH"
);
},
{
closed = 1;
nodes = (
"226 53 OFFCURVE",
"148 159 OFFCURVE",
"148 347 CURVE SMOOTH",
"148 534 OFFCURVE",
"226 642 OFFCURVE",
"372 642 CURVE SMOOTH",
"518 642 OFFCURVE",
"597 534 OFFCURVE",
"597 347 CURVE SMOOTH",
"597 159 OFFCURVE",
"518 53 OFFCURVE",
"372 53 CURVE SMOOTH"
);
},
{
closed = 1;
nodes = (
"396 750 LINE",
"402 796 LINE",
"441 810 OFFCURVE",
"465 837 OFFCURVE",
"465 871 CURVE SMOOTH",
"465 912 OFFCURVE",
"429 943 OFFCURVE",
"376 943 CURVE SMOOTH",
"353 943 OFFCURVE",
"325 935 OFFCURVE",
"309 928 CURVE",
"316 890 LINE",
"333 895 OFFCURVE",
"350 899 OFFCURVE",
"367 899 CURVE SMOOTH",
"389 899 OFFCURVE",
"400 889 OFFCURVE",
"400 870 CURVE SMOOTH",
"400 847 OFFCURVE",
"379 831 OFFCURVE",
"344 819 CURVE",
"350 750 LINE"
);
}
);
width = 778;
}
);
note = Ohornhookabove;
unicode = 1EDE;
},
{
glyphname = Ohorntilde;
lastChange = "2015-07-16 17:52:31 +0000";
layers = (
{
layerId = "F0FBE068-24F2-4D1F-B3A2-D9A3CAFE6F9A";
name = Regular;
paths = (
{
closed = 1;
nodes = (
"561 -13 OFFCURVE",
"699 101 OFFCURVE",
"699 347 CURVE SMOOTH",
"699 452 OFFCURVE",
"674 533 OFFCURVE",
"631 591 CURVE",
"690 625 OFFCURVE",
"743 680 OFFCURVE",
"743 766 CURVE",
"642 766 LINE",
"642 706 OFFCURVE",
"621 663 OFFCURVE",
"582 639 CURVE",
"527 684 OFFCURVE",
"455 708 OFFCURVE",
"373 708 CURVE SMOOTH",
"185 708 OFFCURVE",
"47 592 OFFCURVE",
"47 347 CURVE SMOOTH",
"47 101 OFFCURVE",
"185 -13 OFFCURVE",
"373 -13 CURVE SMOOTH"
);
},
{
closed = 1;
nodes = (
"226 53 OFFCURVE",
"148 159 OFFCURVE",
"148 347 CURVE SMOOTH",
"148 534 OFFCURVE",
"226 642 OFFCURVE",
"372 642 CURVE SMOOTH",
"518 642 OFFCURVE",
"597 534 OFFCURVE",
"597 347 CURVE SMOOTH",
"597 159 OFFCURVE",
"518 53 OFFCURVE",
"372 53 CURVE SMOOTH"
);
},
{
closed = 1;
nodes = (
"464 763 OFFCURVE",
"499 782 OFFCURVE",
"528 810 CURVE",
"494 856 LINE",
"474 841 OFFCURVE",
"454 831 OFFCURVE",
"431 831 CURVE SMOOTH",
"393 831 OFFCURVE",
"355 868 OFFCURVE",
"313 868 CURVE SMOOTH",
"281 868 OFFCURVE",
"243 846 OFFCURVE",
"214 820 CURVE",
"247 774 LINE",
"268 789 OFFCURVE",
"287 800 OFFCURVE",
"312 800 CURVE SMOOTH",
"354 800 OFFCURVE",
"387 763 OFFCURVE",
"432 763 CURVE SMOOTH"
);
}
);
width = 778;
}
);
note = Ohorntilde;
unicode = 1EE0;
},
{
glyphname = Ohungarumlaut;
lastChange = "2015-07-16 17:52:31 +0000";
layers = (
{
layerId = "F0FBE068-24F2-4D1F-B3A2-D9A3CAFE6F9A";
name = Regular;
paths = (
{
closed = 1;
nodes = (
"561 -13 OFFCURVE",
"699 101 OFFCURVE",
"699 347 CURVE SMOOTH",
"699 592 OFFCURVE",
"561 708 OFFCURVE",
"373 708 CURVE SMOOTH",
"185 708 OFFCURVE",
"47 592 OFFCURVE",
"47 347 CURVE SMOOTH",
"47 101 OFFCURVE",
"185 -13 OFFCURVE",
"373 -13 CURVE SMOOTH"
);
},
{
closed = 1;
nodes = (
"226 53 OFFCURVE",
"148 159 OFFCURVE",
"148 347 CURVE SMOOTH",
"148 534 OFFCURVE",
"226 642 OFFCURVE",
"372 642 CURVE SMOOTH",
"518 642 OFFCURVE",
"597 534 OFFCURVE",
"597 347 CURVE SMOOTH",
"597 159 OFFCURVE",
"518 53 OFFCURVE",
"372 53 CURVE SMOOTH"
);
},
{
closed = 1;
nodes = (
"425 941 LINE",
"363 979 LINE",
"245 793 LINE",
"287 764 LINE"
);
},
{
closed = 1;
nodes = (
"608 941 LINE",
"546 979 LINE",
"428 793 LINE",
"470 764 LINE"
);
}
);
width = 745;
}
);
note = Ohungarumlaut;
unicode = 0150;
},
{
glyphname = Omacron;
lastChange = "2015-07-16 17:52:31 +0000";
layers = (
{
layerId = "F0FBE068-24F2-4D1F-B3A2-D9A3CAFE6F9A";
name = Regular;
paths = (
{
closed = 1;
nodes = (
"561 -13 OFFCURVE",
"699 101 OFFCURVE",
"699 347 CURVE SMOOTH",
"699 592 OFFCURVE",
"561 708 OFFCURVE",
"373 708 CURVE SMOOTH",
"185 708 OFFCURVE",
"47 592 OFFCURVE",
"47 347 CURVE SMOOTH",
"47 101 OFFCURVE",
"185 -13 OFFCURVE",
"373 -13 CURVE SMOOTH"
);
},
{
closed = 1;
nodes = (
"226 53 OFFCURVE",
"148 159 OFFCURVE",
"148 347 CURVE SMOOTH",
"148 534 OFFCURVE",
"226 642 OFFCURVE",
"372 642 CURVE SMOOTH",
"518 642 OFFCURVE",
"597 534 OFFCURVE",
"597 347 CURVE SMOOTH",
"597 159 OFFCURVE",
"518 53 OFFCURVE",
"372 53 CURVE SMOOTH"
);
},
{
closed = 1;
nodes = (
"516 781 LINE",
"516 847 LINE",
"229 847 LINE",
"229 781 LINE"
);
}
);
width = 745;
}
);
note = Omacron;
unicode = 014C;
},
{
glyphname = Oslash;
lastChange = "2015-07-16 17:52:31 +0000";
layers = (
{
layerId = "F0FBE068-24F2-4D1F-B3A2-D9A3CAFE6F9A";
name = Regular;
paths = (
{
closed = 1;
nodes = (
"216 23 LINE",
"263 -1 OFFCURVE",
"318 -13 OFFCURVE",
"378 -13 CURVE SMOOTH",
"566 -13 OFFCURVE",
"704 101 OFFCURVE",
"704 347 CURVE SMOOTH",
"704 474 OFFCURVE",
"667 567 OFFCURVE",
"604 626 CURVE",
"664 719 LINE",
"604 752 LINE",
"549 667 LINE",
"500 695 OFFCURVE",
"442 708 OFFCURVE",
"378 708 CURVE SMOOTH",
"190 708 OFFCURVE",
"52 592 OFFCURVE",
"52 347 CURVE SMOOTH",
"52 214 OFFCURVE",
"92 120 OFFCURVE",
"159 61 CURVE",
"84 -56 LINE",
"143 -90 LINE"
);
},
{
closed = 1;
nodes = (
"171 184 OFFCURVE",
"153 256 OFFCURVE",
"153 347 CURVE SMOOTH",
"153 534 OFFCURVE",
"231 642 OFFCURVE",
"377 642 CURVE SMOOTH",
"429 642 OFFCURVE",
"473 628 OFFCURVE",
"507 602 CURVE",
"207 134 LINE"
);
},
{
closed = 1;
nodes = (
"329 53 OFFCURVE",
"289 64 OFFCURVE",
"256 86 CURVE",
"555 549 LINE",
"586 500 OFFCURVE",
"602 431 OFFCURVE",
"602 347 CURVE SMOOTH",
"602 159 OFFCURVE",
"523 53 OFFCURVE",
"377 53 CURVE SMOOTH"
);
}
);
width = 756;
}
);
note = Oslash;
unicode = 00D8;
},
{
glyphname = Oslashacute;
lastChange = "2015-07-16 17:52:31 +0000";
layers = (
{
layerId = "F0FBE068-24F2-4D1F-B3A2-D9A3CAFE6F9A";
name = Regular;
paths = (
{
closed = 1;
nodes = (
"216 23 LINE",
"263 -1 OFFCURVE",
"318 -13 OFFCURVE",
"378 -13 CURVE SMOOTH",
"566 -13 OFFCURVE",
"704 101 OFFCURVE",
"704 347 CURVE SMOOTH",
"704 474 OFFCURVE",
"667 567 OFFCURVE",
"604 626 CURVE",
"664 719 LINE",
"604 752 LINE",
"549 667 LINE",
"500 695 OFFCURVE",
"442 708 OFFCURVE",
"378 708 CURVE SMOOTH",
"190 708 OFFCURVE",
"52 592 OFFCURVE",
"52 347 CURVE SMOOTH",
"52 214 OFFCURVE",
"92 120 OFFCURVE",
"159 61 CURVE",
"84 -56 LINE",
"143 -90 LINE"
);
},
{
closed = 1;
nodes = (
"171 184 OFFCURVE",
"153 256 OFFCURVE",
"153 347 CURVE SMOOTH",
"153 534 OFFCURVE",
"231 642 OFFCURVE",
"377 642 CURVE SMOOTH",
"429 642 OFFCURVE",
"473 628 OFFCURVE",
"507 602 CURVE",
"207 134 LINE"
);
},
{
closed = 1;
nodes = (
"329 53 OFFCURVE",
"289 64 OFFCURVE",
"256 86 CURVE",
"555 549 LINE",
"586 500 OFFCURVE",
"602 431 OFFCURVE",
"602 347 CURVE SMOOTH",
"602 159 OFFCURVE",
"523 53 OFFCURVE",
"377 53 CURVE SMOOTH"
);
},
{
closed = 1;
nodes = (
"472 898 LINE",
"399 945 LINE",
"305 788 LINE",
"360 752 LINE"
);
}
);
width = 756;
}
);
note = Oslashacute;
unicode = 01FE;
},
{
glyphname = Otilde;
lastChange = "2015-07-16 17:52:31 +0000";
layers = (
{
layerId = "F0FBE068-24F2-4D1F-B3A2-D9A3CAFE6F9A";
name = Regular;
paths = (
{
closed = 1;
nodes = (
"561 -13 OFFCURVE",
"699 101 OFFCURVE",
"699 347 CURVE SMOOTH",
"699 592 OFFCURVE",
"561 708 OFFCURVE",
"373 708 CURVE SMOOTH",
"185 708 OFFCURVE",
"47 592 OFFCURVE",
"47 347 CURVE SMOOTH",
"47 101 OFFCURVE",
"185 -13 OFFCURVE",
"373 -13 CURVE SMOOTH"
);
},
{
closed = 1;
nodes = (
"226 53 OFFCURVE",
"148 159 OFFCURVE",
"148 347 CURVE SMOOTH",
"148 534 OFFCURVE",
"226 642 OFFCURVE",
"372 642 CURVE SMOOTH",
"518 642 OFFCURVE",
"597 534 OFFCURVE",
"597 347 CURVE SMOOTH",
"597 159 OFFCURVE",
"518 53 OFFCURVE",
"372 53 CURVE SMOOTH"
);
},
{
closed = 1;
nodes = (
"466 763 OFFCURVE",
"501 782 OFFCURVE",
"530 810 CURVE",
"496 856 LINE",
"476 841 OFFCURVE",
"456 831 OFFCURVE",
"433 831 CURVE SMOOTH",
"395 831 OFFCURVE",
"357 868 OFFCURVE",
"315 868 CURVE SMOOTH",
"283 868 OFFCURVE",
"245 846 OFFCURVE",
"216 820 CURVE",
"249 774 LINE",
"270 789 OFFCURVE",
"289 800 OFFCURVE",
"314 800 CURVE SMOOTH",
"356 800 OFFCURVE",
"389 763 OFFCURVE",
"434 763 CURVE SMOOTH"
);
}
);
width = 745;
}
);
note = Otilde;
unicode = 00D5;
},
{
glyphname = OE;
lastChange = "2015-07-16 17:52:32 +0000";
layers = (
{
layerId = "F0FBE068-24F2-4D1F-B3A2-D9A3CAFE6F9A";
name = Regular;
paths = (
{
closed = 1;
nodes = (
"457 -13 OFFCURVE",
"505 -8 OFFCURVE",
"547 0 CURVE",
"1018 0 LINE",
"1018 142 LINE SMOOTH",
"1018 152 OFFCURVE",
"1014 159 OFFCURVE",
"1001 159 CURVE SMOOTH",
"986 159 OFFCURVE",
"974 145 OFFCURVE",
"967 110 CURVE SMOOTH",
"958 64 LINE",
"622 64 LINE",
"622 324 LINE",
"886 324 LINE",
"899 281 LINE SMOOTH",
"905 262 OFFCURVE",
"914 251 OFFCURVE",
"925 251 CURVE SMOOTH",
"937 251 OFFCURVE",
"941 258 OFFCURVE",
"941 266 CURVE SMOOTH",
"941 445 LINE SMOOTH",
"941 453 OFFCURVE",
"937 460 OFFCURVE",
"925 460 CURVE SMOOTH",
"914 460 OFFCURVE",
"906 452 OFFCURVE",
"899 430 CURVE SMOOTH",
"886 387 LINE",
"622 387 LINE",
"622 631 LINE",
"944 631 LINE",
"954 588 LINE SMOOTH",
"962 553 OFFCURVE",
"972 538 OFFCURVE",
"987 538 CURVE SMOOTH",
"1000 538 OFFCURVE",
"1004 545 OFFCURVE",
"1004 555 CURVE SMOOTH",
"1004 695 LINE",
"489 695 LINE",
"458 703 OFFCURVE",
"416 708 OFFCURVE",
"383 708 CURVE SMOOTH",
"201 708 OFFCURVE",
"47 587 OFFCURVE",
"47 348 CURVE SMOOTH",
"47 95 OFFCURVE",
"212 -13 OFFCURVE",
"414 -13 CURVE SMOOTH"
);
},
{
closed = 1;
nodes = (
"258 53 OFFCURVE",
"148 156 OFFCURVE",
"148 348 CURVE SMOOTH",
"148 550 OFFCURVE",
"259 642 OFFCURVE",
"412 642 CURVE SMOOTH",
"447 642 OFFCURVE",
"487 638 OFFCURVE",
"522 629 CURVE",
"522 65 LINE",
"483 56 OFFCURVE",
"450 53 OFFCURVE",
"406 53 CURVE SMOOTH"
);
}
);
width = 1085;
}
);
note = OE;
unicode = 0152;
},
{
glyphname = P;
lastChange = "2015-07-16 17:52:31 +0000";
layers = (
{
layerId = "F0FBE068-24F2-4D1F-B3A2-D9A3CAFE6F9A";
name = Regular;
paths = (
{
closed = 1;
nodes = (
"298 0 LINE SMOOTH",
"309 0 OFFCURVE",
"312 6 OFFCURVE",
"312 15 CURVE SMOOTH",
"312 30 OFFCURVE",
"301 39 OFFCURVE",
"275 46 CURVE SMOOTH",
"228 59 LINE",
"228 282 LINE",
"373 282 LINE SMOOTH",
"510 282 OFFCURVE",
"605 356 OFFCURVE",
"605 488 CURVE SMOOTH",
"605 621 OFFCURVE",
"510 695 OFFCURVE",
"373 695 CURVE SMOOTH",
"71 695 LINE SMOOTH",
"62 695 OFFCURVE",
"55 689 OFFCURVE",
"55 675 CURVE SMOOTH",
"55 654 OFFCURVE",
"69 643 OFFCURVE",
"101 636 CURVE SMOOTH",
"128 630 LINE",
"128 60 LINE",
"102 60 LINE SMOOTH",
"75 60 OFFCURVE",
"57 48 OFFCURVE",
"57 25 CURVE SMOOTH",
"57 10 OFFCURVE",
"64 0 OFFCURVE",
"77 0 CURVE SMOOTH"
);
},
{
closed = 1;
nodes = (
"228 629 LINE",
"366 629 LINE SMOOTH",
"455 629 OFFCURVE",
"505 572 OFFCURVE",
"505 488 CURVE SMOOTH",
"505 405 OFFCURVE",
"455 348 OFFCURVE",
"366 348 CURVE SMOOTH",
"228 348 LINE"
);
}
);
width = 631;
}
);
note = P;
unicode = 0050;
},
{
glyphname = Thorn;
lastChange = "2015-07-16 17:52:31 +0000";
layers = (
{
layerId = "F0FBE068-24F2-4D1F-B3A2-D9A3CAFE6F9A";
name = Regular;
paths = (
{
closed = 1;
nodes = (
"290 0 LINE SMOOTH",
"301 0 OFFCURVE",
"304 6 OFFCURVE",
"304 15 CURVE SMOOTH",
"304 30 OFFCURVE",
"295 40 OFFCURVE",
"272 46 CURVE SMOOTH",
"225 59 LINE",
"225 147 LINE",
"270 133 OFFCURVE",
"317 127 OFFCURVE",
"361 127 CURVE SMOOTH",
"513 127 OFFCURVE",
"631 197 OFFCURVE",
"631 352 CURVE SMOOTH",
"631 507 OFFCURVE",
"513 577 OFFCURVE",
"361 577 CURVE SMOOTH",
"317 577 OFFCURVE",
"270 571 OFFCURVE",
"225 557 CURVE",
"225 636 LINE",
"272 649 LINE SMOOTH",
"293 655 OFFCURVE",
"304 665 OFFCURVE",
"304 680 CURVE SMOOTH",
"304 689 OFFCURVE",
"301 695 OFFCURVE",
"290 695 CURVE SMOOTH",
"100 695 LINE SMOOTH",
"73 695 OFFCURVE",
"55 683 OFFCURVE",
"55 661 CURVE SMOOTH",
"55 645 OFFCURVE",
"62 635 OFFCURVE",
"75 635 CURVE SMOOTH",
"125 635 LINE",
"125 60 LINE",
"100 60 LINE SMOOTH",
"73 60 OFFCURVE",
"55 48 OFFCURVE",
"55 25 CURVE SMOOTH",
"55 10 OFFCURVE",
"62 0 OFFCURVE",
"75 0 CURVE SMOOTH"
);
},
{
closed = 1;
nodes = (
"320 192 OFFCURVE",
"279 197 OFFCURVE",
"225 214 CURVE",
"225 491 LINE",
"279 508 OFFCURVE",
"320 513 OFFCURVE",
"361 513 CURVE SMOOTH",
"467 513 OFFCURVE",
"531 458 OFFCURVE",
"531 352 CURVE SMOOTH",
"531 246 OFFCURVE",
"467 192 OFFCURVE",
"361 192 CURVE SMOOTH"
);
}
);
width = 683;
}
);
note = Thorn;
unicode = 00DE;
},
{
glyphname = Q;
lastChange = "2015-07-16 17:52:32 +0000";
layers = (
{
layerId = "F0FBE068-24F2-4D1F-B3A2-D9A3CAFE6F9A";
name = Regular;
paths = (
{
closed = 1;
nodes = (
"573 -158 OFFCURVE",
"591 -144 OFFCURVE",
"591 -118 CURVE SMOOTH",
"591 -96 OFFCURVE",
"577 -88 OFFCURVE",
"548 -79 CURVE SMOOTH",
"515 -69 OFFCURVE",
"485 -56 OFFCURVE",
"457 -40 CURVE SMOOTH",
"442 -31 OFFCURVE",
"427 -22 OFFCURVE",
"413 -11 CURVE",
"580 4 OFFCURVE",
"699 119 OFFCURVE",
"699 347 CURVE SMOOTH",
"699 592 OFFCURVE",
"561 708 OFFCURVE",
"373 708 CURVE SMOOTH",
"185 708 OFFCURVE",
"47 592 OFFCURVE",
"47 347 CURVE SMOOTH",
"47 119 OFFCURVE",
"166 4 OFFCURVE",
"333 -11 CURVE",
"355 -38 OFFCURVE",
"381 -66 OFFCURVE",
"408 -90 CURVE SMOOTH",
"449 -126 OFFCURVE",
"499 -158 OFFCURVE",
"544 -158 CURVE SMOOTH"
);
},
{
closed = 1;
nodes = (
"226 53 OFFCURVE",
"148 159 OFFCURVE",
"148 347 CURVE SMOOTH",
"148 534 OFFCURVE",
"226 642 OFFCURVE",
"372 642 CURVE SMOOTH",
"518 642 OFFCURVE",
"597 534 OFFCURVE",
"597 347 CURVE SMOOTH",
"597 159 OFFCURVE",
"518 53 OFFCURVE",
"372 53 CURVE SMOOTH"
);
}
);
width = 745;
}
);
note = Q;
unicode = 0051;
},
{
glyphname = R;
lastChange = "2015-07-16 17:52:31 +0000";
layers = (
{
layerId = "F0FBE068-24F2-4D1F-B3A2-D9A3CAFE6F9A";
name = Regular;
paths = (
{
closed = 1;
nodes = (
"292 0 LINE SMOOTH",
"303 0 OFFCURVE",
"306 6 OFFCURVE",
"306 15 CURVE SMOOTH",
"306 30 OFFCURVE",
"297 39 OFFCURVE",
"274 46 CURVE SMOOTH",
"228 59 LINE",
"228 315 LINE",
"504 0 LINE",
"657 0 LINE SMOOTH",
"669 0 OFFCURVE",
"671 7 OFFCURVE",
"671 15 CURVE SMOOTH",
"671 30 OFFCURVE",
"660 39 OFFCURVE",
"638 45 CURVE SMOOTH",
"588 58 LINE",
"349 316 LINE",
"371 316 LINE SMOOTH",
"508 316 OFFCURVE",
"602 373 OFFCURVE",
"602 504 CURVE SMOOTH",
"602 635 OFFCURVE",
"508 695 OFFCURVE",
"371 695 CURVE SMOOTH",
"71 695 LINE SMOOTH",
"62 695 OFFCURVE",
"55 689 OFFCURVE",
"55 675 CURVE SMOOTH",
"55 655 OFFCURVE",
"72 648 OFFCURVE",
"101 640 CURVE SMOOTH",
"128 633 LINE",
"128 60 LINE",
"102 60 LINE SMOOTH",
"75 60 OFFCURVE",
"57 48 OFFCURVE",
"57 25 CURVE SMOOTH",
"57 10 OFFCURVE",
"64 0 OFFCURVE",
"77 0 CURVE SMOOTH"
);
},
{
closed = 1;
nodes = (
"228 633 LINE",
"364 633 LINE SMOOTH",
"453 633 OFFCURVE",
"501 586 OFFCURVE",
"501 504 CURVE SMOOTH",
"501 422 OFFCURVE",
"453 376 OFFCURVE",
"364 376 CURVE SMOOTH",
"228 376 LINE"
);
}
);
width = 688;
}
);
note = R;
unicode = 0052;
},
{
glyphname = Racute;
lastChange = "2015-07-16 17:52:31 +0000";
layers = (
{
components = (
{
name = R;
}
);
layerId = "F0FBE068-24F2-4D1F-B3A2-D9A3CAFE6F9A";
name = Regular;
paths = (
{
closed = 1;
nodes = (
"425 899 LINE",
"352 946 LINE",
"258 789 LINE",
"313 753 LINE"
);
}
);
width = 688;
}
);
note = Racute;
unicode = 0154;
},
{
glyphname = Rcaron;
lastChange = "2015-07-16 17:52:31 +0000";
layers = (
{
components = (
{
name = R;
}
);
layerId = "F0FBE068-24F2-4D1F-B3A2-D9A3CAFE6F9A";
name = Regular;
paths = (
{
closed = 1;
nodes = (
"339 752 LINE",
"451 895 LINE",
"407 932 LINE",
"314 830 LINE",
"222 932 LINE",
"178 895 LINE",
"290 752 LINE"
);
}
);
width = 688;
}
);
note = Rcaron;
unicode = 0158;
},
{
glyphname = Rcommaaccent;
lastChange = "2015-07-16 17:52:31 +0000";
layers = (
{
components = (
{
name = R;
}
);
layerId = "F0FBE068-24F2-4D1F-B3A2-D9A3CAFE6F9A";
name = Regular;
paths = (
{
closed = 1;
nodes = (
"368 -204 OFFCURVE",
"404 -127 OFFCURVE",
"419 -69 CURVE",
"335 -50 LINE SMOOTH",
"310 -44 OFFCURVE",
"293 -55 OFFCURVE",
"293 -76 CURVE SMOOTH",
"293 -86 OFFCURVE",
"299 -91 OFFCURVE",
"307 -94 CURVE SMOOTH",
"335 -103 LINE",
"331 -136 OFFCURVE",
"304 -194 OFFCURVE",
"279 -230 CURVE",
"321 -256 LINE"
);
}
);
width = 688;
}
);
note = Rcommaaccent;
unicode = 0156;
},
{
glyphname = Rdotbelow;
lastChange = "2015-07-16 17:52:31 +0000";
layers = (
{
layerId = "F0FBE068-24F2-4D1F-B3A2-D9A3CAFE6F9A";
name = Regular;
paths = (
{
closed = 1;
nodes = (
"292 0 LINE SMOOTH",
"303 0 OFFCURVE",
"306 6 OFFCURVE",
"306 15 CURVE SMOOTH",
"306 30 OFFCURVE",
"297 39 OFFCURVE",
"274 46 CURVE SMOOTH",
"228 59 LINE",
"228 315 LINE",
"504 0 LINE",
"657 0 LINE SMOOTH",
"669 0 OFFCURVE",
"671 7 OFFCURVE",
"671 15 CURVE SMOOTH",
"671 30 OFFCURVE",
"660 39 OFFCURVE",
"638 45 CURVE SMOOTH",
"588 58 LINE",
"349 316 LINE",
"371 316 LINE SMOOTH",
"508 316 OFFCURVE",
"602 373 OFFCURVE",
"602 504 CURVE SMOOTH",
"602 635 OFFCURVE",
"508 695 OFFCURVE",
"371 695 CURVE SMOOTH",
"71 695 LINE SMOOTH",
"62 695 OFFCURVE",
"55 689 OFFCURVE",
"55 675 CURVE SMOOTH",
"55 655 OFFCURVE",
"71 646 OFFCURVE",
"101 639 CURVE SMOOTH",
"128 633 LINE",
"128 60 LINE",
"102 60 LINE SMOOTH",
"75 60 OFFCURVE",
"57 48 OFFCURVE",
"57 25 CURVE SMOOTH",
"57 10 OFFCURVE",
"64 0 OFFCURVE",
"77 0 CURVE SMOOTH"
);
},
{
closed = 1;
nodes = (
"380 -177 OFFCURVE",
"404 -153 OFFCURVE",
"404 -121 CURVE SMOOTH",
"404 -89 OFFCURVE",
"380 -66 OFFCURVE",
"349 -66 CURVE SMOOTH",
"319 -66 OFFCURVE",
"294 -89 OFFCURVE",
"294 -121 CURVE SMOOTH",
"294 -153 OFFCURVE",
"319 -177 OFFCURVE",
"349 -177 CURVE SMOOTH"
);
},
{
closed = 1;
nodes = (
"228 633 LINE",
"364 633 LINE SMOOTH",
"453 633 OFFCURVE",
"501 586 OFFCURVE",
"501 504 CURVE SMOOTH",
"501 422 OFFCURVE",
"453 376 OFFCURVE",
"364 376 CURVE SMOOTH",
"228 376 LINE"
);
}
);
width = 688;
}
);
note = Rdotbelow;
unicode = 1E5A;
},
{
glyphname = Rdotbelowmacron;
lastChange = "2015-07-16 17:52:31 +0000";
layers = (
{
layerId = "F0FBE068-24F2-4D1F-B3A2-D9A3CAFE6F9A";
name = Regular;
paths = (
{
closed = 1;
nodes = (
"292 0 LINE SMOOTH",
"303 0 OFFCURVE",
"306 6 OFFCURVE",
"306 15 CURVE SMOOTH",
"306 30 OFFCURVE",
"297 39 OFFCURVE",
"274 46 CURVE SMOOTH",
"228 59 LINE",
"228 315 LINE",
"504 0 LINE",
"657 0 LINE SMOOTH",
"669 0 OFFCURVE",
"671 7 OFFCURVE",
"671 15 CURVE SMOOTH",
"671 30 OFFCURVE",
"660 39 OFFCURVE",
"638 45 CURVE SMOOTH",
"588 58 LINE",
"349 316 LINE",
"371 316 LINE SMOOTH",
"508 316 OFFCURVE",
"602 373 OFFCURVE",
"602 504 CURVE SMOOTH",
"602 635 OFFCURVE",
"508 695 OFFCURVE",
"371 695 CURVE SMOOTH",
"71 695 LINE SMOOTH",
"62 695 OFFCURVE",
"55 689 OFFCURVE",
"55 675 CURVE SMOOTH",
"55 655 OFFCURVE",
"71 646 OFFCURVE",
"101 639 CURVE SMOOTH",
"128 633 LINE",
"128 60 LINE",
"102 60 LINE SMOOTH",
"75 60 OFFCURVE",
"57 48 OFFCURVE",
"57 25 CURVE SMOOTH",
"57 10 OFFCURVE",
"64 0 OFFCURVE",
"77 0 CURVE SMOOTH"
);
},
{
closed = 1;
nodes = (
"380 -177 OFFCURVE",
"404 -153 OFFCURVE",
"404 -121 CURVE SMOOTH",
"404 -89 OFFCURVE",
"380 -66 OFFCURVE",
"349 -66 CURVE SMOOTH",
"319 -66 OFFCURVE",
"294 -89 OFFCURVE",
"294 -121 CURVE SMOOTH",
"294 -153 OFFCURVE",
"319 -177 OFFCURVE",
"349 -177 CURVE SMOOTH"
);
},
{
closed = 1;
nodes = (
"228 633 LINE",
"364 633 LINE SMOOTH",
"453 633 OFFCURVE",
"501 586 OFFCURVE",
"501 504 CURVE SMOOTH",
"501 422 OFFCURVE",
"453 376 OFFCURVE",
"364 376 CURVE SMOOTH",
"228 376 LINE"
);
},
{
closed = 1;
nodes = (
"475 781 LINE",
"475 847 LINE",
"188 847 LINE",
"188 781 LINE"
);
}
);
width = 688;
}
);
note = Rdotbelowmacron;
unicode = 1E5C;
},
{
glyphname = Rlinebelow;
lastChange = "2015-07-16 17:52:31 +0000";
layers = (
{
layerId = "F0FBE068-24F2-4D1F-B3A2-D9A3CAFE6F9A";
name = Regular;
paths = (
{
closed = 1;
nodes = (
"292 0 LINE SMOOTH",
"303 0 OFFCURVE",
"306 6 OFFCURVE",
"306 15 CURVE SMOOTH",
"306 30 OFFCURVE",
"297 39 OFFCURVE",
"274 46 CURVE SMOOTH",
"228 59 LINE",
"228 315 LINE",
"504 0 LINE",
"657 0 LINE SMOOTH",
"669 0 OFFCURVE",
"671 7 OFFCURVE",
"671 15 CURVE SMOOTH",
"671 30 OFFCURVE",
"660 39 OFFCURVE",
"638 45 CURVE SMOOTH",
"588 58 LINE",
"349 316 LINE",
"371 316 LINE SMOOTH",
"508 316 OFFCURVE",
"602 373 OFFCURVE",
"602 504 CURVE SMOOTH",
"602 635 OFFCURVE",
"508 695 OFFCURVE",
"371 695 CURVE SMOOTH",
"71 695 LINE SMOOTH",
"62 695 OFFCURVE",
"55 689 OFFCURVE",
"55 675 CURVE SMOOTH",
"55 655 OFFCURVE",
"72 648 OFFCURVE",
"101 639 CURVE",
"128 633 LINE",
"128 60 LINE",
"102 60 LINE SMOOTH",
"75 60 OFFCURVE",
"57 48 OFFCURVE",
"57 25 CURVE SMOOTH",
"57 10 OFFCURVE",
"64 0 OFFCURVE",
"77 0 CURVE SMOOTH"
);
},
{
closed = 1;
nodes = (
"553 -153 LINE",
"553 -88 LINE",
"165 -88 LINE",
"165 -153 LINE"
);
},
{
closed = 1;
nodes = (
"228 633 LINE",
"364 633 LINE SMOOTH",
"453 633 OFFCURVE",
"501 586 OFFCURVE",
"501 504 CURVE SMOOTH",
"501 422 OFFCURVE",
"453 376 OFFCURVE",
"364 376 CURVE SMOOTH",
"228 376 LINE"
);
}
);
width = 688;
}
);
note = Rlinebelow;
unicode = 1E5E;
},
{
glyphname = S;
lastChange = "2015-07-16 17:52:31 +0000";
layers = (
{
layerId = "F0FBE068-24F2-4D1F-B3A2-D9A3CAFE6F9A";
name = Regular;
paths = (
{
closed = 1;
nodes = (
"431 -13 OFFCURVE",
"548 40 OFFCURVE",
"548 169 CURVE SMOOTH",
"548 285 OFFCURVE",
"469 335 OFFCURVE",
"349 387 CURVE SMOOTH",
"226 442 OFFCURVE",
"153 470 OFFCURVE",
"153 543 CURVE SMOOTH",
"153 613 OFFCURVE",
"218 642 OFFCURVE",
"293 642 CURVE SMOOTH",
"354 642 OFFCURVE",
"407 627 OFFCURVE",
"442 602 CURVE",
"457 541 LINE SMOOTH",
"467 502 OFFCURVE",
"477 491 OFFCURVE",
"495 491 CURVE SMOOTH",
"507 491 OFFCURVE",
"512 499 OFFCURVE",
"512 508 CURVE SMOOTH",
"512 637 LINE",
"459 680 OFFCURVE",
"370 708 OFFCURVE",
"286 708 CURVE SMOOTH",
"168 708 OFFCURVE",
"52 657 OFFCURVE",
"52 531 CURVE SMOOTH",
"52 422 OFFCURVE",
"147 367 OFFCURVE",
"264 318 CURVE SMOOTH",
"397 263 OFFCURVE",
"447 233 OFFCURVE",
"447 159 CURVE SMOOTH",
"447 78 OFFCURVE",
"363 53 OFFCURVE",
"282 53 CURVE SMOOTH",
"226 53 OFFCURVE",
"156 67 OFFCURVE",
"119 94 CURVE",
"104 156 LINE SMOOTH",
"95 195 OFFCURVE",
"85 205 OFFCURVE",
"67 205 CURVE SMOOTH",
"54 205 OFFCURVE",
"49 197 OFFCURVE",
"49 188 CURVE SMOOTH",
"49 52 LINE",
"106 12 OFFCURVE",
"214 -13 OFFCURVE",
"291 -13 CURVE SMOOTH"
);
}
);
width = 596;
}
);
note = S;
unicode = 0053;
},
{
glyphname = Sacute;
lastChange = "2015-07-16 17:52:31 +0000";
layers = (
{
components = (
{
name = S;
}
);
layerId = "F0FBE068-24F2-4D1F-B3A2-D9A3CAFE6F9A";
name = Regular;
paths = (
{
closed = 1;
nodes = (
"379 898 LINE",
"306 945 LINE",
"212 788 LINE",
"267 752 LINE"
);
}
);
width = 596;
}
);
note = Sacute;
unicode = 015A;
},
{
glyphname = Scaron;
lastChange = "2015-07-16 17:52:31 +0000";
layers = (
{
components = (
{
name = S;
}
);
layerId = "F0FBE068-24F2-4D1F-B3A2-D9A3CAFE6F9A";
name = Regular;
paths = (
{
closed = 1;
nodes = (
"312 752 LINE",
"424 895 LINE",
"380 932 LINE",
"287 830 LINE",
"195 932 LINE",
"151 895 LINE",
"263 752 LINE"
);
}
);
width = 596;
}
);
note = Scaron;
unicode = 0160;
},
{
glyphname = Scedilla;
lastChange = "2015-07-16 17:52:31 +0000";
layers = (
{
layerId = "F0FBE068-24F2-4D1F-B3A2-D9A3CAFE6F9A";
name = Regular;
paths = (
{
closed = 1;
nodes = (
"294 -205 OFFCURVE",
"353 -166 OFFCURVE",
"353 -119 CURVE SMOOTH",
"353 -83 OFFCURVE",
"331 -64 OFFCURVE",
"304 -53 CURVE",
"322 -12 LINE",
"448 -5 OFFCURVE",
"548 50 OFFCURVE",
"548 169 CURVE SMOOTH",
"548 285 OFFCURVE",
"469 335 OFFCURVE",
"349 387 CURVE SMOOTH",
"226 442 OFFCURVE",
"153 470 OFFCURVE",
"153 543 CURVE SMOOTH",
"153 613 OFFCURVE",
"218 642 OFFCURVE",
"293 642 CURVE SMOOTH",
"354 642 OFFCURVE",
"407 627 OFFCURVE",
"442 602 CURVE",
"457 541 LINE SMOOTH",
"466 503 OFFCURVE",
"477 491 OFFCURVE",
"495 491 CURVE SMOOTH",
"507 491 OFFCURVE",
"512 499 OFFCURVE",
"512 508 CURVE SMOOTH",
"512 637 LINE",
"459 680 OFFCURVE",
"370 708 OFFCURVE",
"286 708 CURVE SMOOTH",
"168 708 OFFCURVE",
"52 657 OFFCURVE",
"52 531 CURVE SMOOTH",
"52 422 OFFCURVE",
"147 367 OFFCURVE",
"264 318 CURVE SMOOTH",
"397 263 OFFCURVE",
"447 233 OFFCURVE",
"447 159 CURVE SMOOTH",
"447 78 OFFCURVE",
"363 53 OFFCURVE",
"282 53 CURVE SMOOTH",
"226 53 OFFCURVE",
"156 67 OFFCURVE",
"119 94 CURVE",
"104 156 LINE SMOOTH",
"95 194 OFFCURVE",
"85 205 OFFCURVE",
"67 205 CURVE SMOOTH",
"54 205 OFFCURVE",
"49 197 OFFCURVE",
"49 188 CURVE SMOOTH",
"49 52 LINE",
"98 17 OFFCURVE",
"186 -6 OFFCURVE",
"259 -12 CURVE",
"240 -65 LINE",
"272 -74 OFFCURVE",
"285 -91 OFFCURVE",
"285 -116 CURVE SMOOTH",
"285 -144 OFFCURVE",
"264 -169 OFFCURVE",
"217 -184 CURVE",
"231 -218 LINE"
);
}
);
width = 596;
}
);
note = Scedilla;
unicode = 015E;
},
{
glyphname = Scircumflex;
lastChange = "2015-07-16 17:52:31 +0000";
layers = (
{
components = (
{
name = S;
}
);
layerId = "F0FBE068-24F2-4D1F-B3A2-D9A3CAFE6F9A";
name = Regular;
paths = (
{
closed = 1;
nodes = (
"282 854 LINE",
"375 752 LINE",
"419 789 LINE",
"307 932 LINE",
"258 932 LINE",
"146 789 LINE",
"190 752 LINE"
);
}
);
width = 596;
}
);
note = Scircumflex;
unicode = 015C;
},
{
glyphname = Scommaaccent;
lastChange = "2015-07-16 17:52:31 +0000";
layers = (
{
components = (
{
name = S;
}
);
layerId = "F0FBE068-24F2-4D1F-B3A2-D9A3CAFE6F9A";
name = Regular;
paths = (
{
closed = 1;
nodes = (
"314 -204 OFFCURVE",
"350 -127 OFFCURVE",
"365 -69 CURVE",
"281 -50 LINE SMOOTH",
"256 -44 OFFCURVE",
"239 -55 OFFCURVE",
"239 -76 CURVE SMOOTH",
"239 -86 OFFCURVE",
"245 -91 OFFCURVE",
"253 -94 CURVE",
"281 -103 LINE",
"277 -136 OFFCURVE",
"250 -194 OFFCURVE",
"225 -230 CURVE",
"267 -256 LINE"
);
}
);
width = 596;
}
);
note = Scommaaccent;
unicode = 0218;
},
{
glyphname = Sdotaccent;
lastChange = "2015-07-16 17:52:31 +0000";
layers = (
{
components = (
{
name = S;
}
);
layerId = "F0FBE068-24F2-4D1F-B3A2-D9A3CAFE6F9A";
name = Regular;
paths = (
{
closed = 1;
nodes = (
"318 769 OFFCURVE",
"342 793 OFFCURVE",
"342 824 CURVE SMOOTH",
"342 856 OFFCURVE",
"318 880 OFFCURVE",
"287 880 CURVE SMOOTH",
"257 880 OFFCURVE",
"232 856 OFFCURVE",
"232 824 CURVE SMOOTH",
"232 793 OFFCURVE",
"257 769 OFFCURVE",
"287 769 CURVE SMOOTH"
);
}
);
width = 596;
}
);
note = Sdotaccent;
unicode = 1E60;
},
{
glyphname = Sdotbelow;
lastChange = "2015-07-16 17:52:31 +0000";
layers = (
{
components = (
{
name = S;
}
);
layerId = "F0FBE068-24F2-4D1F-B3A2-D9A3CAFE6F9A";
name = Regular;
paths = (
{
closed = 1;
nodes = (
"328 -177 OFFCURVE",
"352 -153 OFFCURVE",
"352 -121 CURVE SMOOTH",
"352 -89 OFFCURVE",
"328 -66 OFFCURVE",
"297 -66 CURVE SMOOTH",
"267 -66 OFFCURVE",
"242 -89 OFFCURVE",
"242 -121 CURVE SMOOTH",
"242 -153 OFFCURVE",
"267 -177 OFFCURVE",
"297 -177 CURVE SMOOTH"
);
}
);
width = 596;
}
);
note = Sdotbelow;
unicode = 1E62;
},
{
glyphname = uni1E9E;
lastChange = "2015-07-16 17:52:31 +0000";
layers = (
{
layerId = "F0FBE068-24F2-4D1F-B3A2-D9A3CAFE6F9A";
name = Regular;
paths = (
{
closed = 1;
nodes = (
"560 -13 OFFCURVE",
"631 72 OFFCURVE",
"631 176 CURVE SMOOTH",
"631 282 OFFCURVE",
"571 365 OFFCURVE",
"437 365 CURVE SMOOTH",
"424 365 LINE",
"546 527 LINE",
"528 622 OFFCURVE",
"442 678 OFFCURVE",
"338 678 CURVE SMOOTH",
"214 678 OFFCURVE",
"120 608 OFFCURVE",
"120 475 CURVE SMOOTH",
"120 57 LINE",
"91 57 LINE SMOOTH",
"66 57 OFFCURVE",
"48 46 OFFCURVE",
"48 24 CURVE SMOOTH",
"48 9 OFFCURVE",
"55 0 OFFCURVE",
"67 0 CURVE SMOOTH",
"216 0 LINE",
"216 473 LINE SMOOTH",
"216 559 OFFCURVE",
"251 612 OFFCURVE",
"340 612 CURVE SMOOTH",
"402 612 OFFCURVE",
"460 577 OFFCURVE",
"460 531 CURVE",
"346 378 LINE",
"346 301 LINE",
"414 301 LINE SMOOTH",
"500 301 OFFCURVE",
"534 247 OFFCURVE",
"534 175 CURVE SMOOTH",
"534 101 OFFCURVE",
"486 52 OFFCURVE",
"420 52 CURVE SMOOTH",
"393 52 OFFCURVE",
"368 57 OFFCURVE",
"347 67 CURVE",
"338 111 LINE SMOOTH",
"333 132 OFFCURVE",
"326 145 OFFCURVE",
"308 145 CURVE SMOOTH",
"296 145 OFFCURVE",
"290 137 OFFCURVE",
"290 128 CURVE SMOOTH",
"290 24 LINE",
"326 0 OFFCURVE",
"383 -13 OFFCURVE",
"439 -13 CURVE SMOOTH"
);
}
);
width = 683;
}
);
note = uni1E9E;
unicode = 1E9E;
},
{
glyphname = uni018F;
lastChange = "2015-07-16 17:52:31 +0000";
layers = (
{
layerId = "F0FBE068-24F2-4D1F-B3A2-D9A3CAFE6F9A";
name = Regular;
paths = (
{
closed = 1;
nodes = (
"543 -13 OFFCURVE",
"676 115 OFFCURVE",
"676 349 CURVE SMOOTH",
"676 579 OFFCURVE",
"538 708 OFFCURVE",
"353 708 CURVE SMOOTH",
"279 708 OFFCURVE",
"209 692 OFFCURVE",
"142 655 CURVE SMOOTH",
"110 638 OFFCURVE",
"93 627 OFFCURVE",
"93 606 CURVE SMOOTH",
"93 582 OFFCURVE",
"110 574 OFFCURVE",
"125 574 CURVE SMOOTH",
"134 574 OFFCURVE",
"146 578 OFFCURVE",
"163 588 CURVE SMOOTH",
"223 623 OFFCURVE",
"286 642 OFFCURVE",
"349 642 CURVE SMOOTH",
"475 642 OFFCURVE",
"568 548 OFFCURVE",
"574 366 CURVE",
"69 366 LINE",
"57 341 OFFCURVE",
"47 300 OFFCURVE",
"47 269 CURVE SMOOTH",
"47 98 OFFCURVE",
"168 -13 OFFCURVE",
"351 -13 CURVE SMOOTH"
);
},
{
closed = 1;
nodes = (
"235 53 OFFCURVE",
"147 125 OFFCURVE",
"147 260 CURVE SMOOTH",
"147 273 OFFCURVE",
"149 290 OFFCURVE",
"153 301 CURVE",
"572 301 LINE",
"560 144 OFFCURVE",
"482 53 OFFCURVE",
"351 53 CURVE SMOOTH"
);
}
);
width = 723;
}
);
note = uni018F;
unicode = 018F;
},
{
glyphname = T;
lastChange = "2015-07-16 17:52:31 +0000";
layers = (
{
layerId = "F0FBE068-24F2-4D1F-B3A2-D9A3CAFE6F9A";
name = Regular;
paths = (
{
closed = 1;
nodes = (
"421 0 LINE SMOOTH",
"432 0 OFFCURVE",
"435 6 OFFCURVE",
"435 15 CURVE SMOOTH",
"435 30 OFFCURVE",
"426 40 OFFCURVE",
"403 46 CURVE SMOOTH",
"356 59 LINE",
"356 629 LINE",
"519 629 LINE",
"530 578 LINE SMOOTH",
"536 551 OFFCURVE",
"545 535 OFFCURVE",
"563 535 CURVE SMOOTH",
"574 535 OFFCURVE",
"583 540 OFFCURVE",
"583 553 CURVE SMOOTH",
"583 695 LINE",
"30 695 LINE",
"30 553 LINE SMOOTH",
"30 540 OFFCURVE",
"39 535 OFFCURVE",
"50 535 CURVE SMOOTH",
"68 535 OFFCURVE",
"75 550 OFFCURVE",
"82 578 CURVE SMOOTH",
"94 629 LINE",
"256 629 LINE",
"256 60 LINE",
"231 60 LINE SMOOTH",
"204 60 OFFCURVE",
"186 48 OFFCURVE",
"186 25 CURVE SMOOTH",
"186 10 OFFCURVE",
"193 0 OFFCURVE",
"206 0 CURVE SMOOTH"
);
}
);
width = 612;
}
);
note = T;
unicode = 0054;
},
{
glyphname = Tbar;
lastChange = "2015-07-16 17:52:31 +0000";
layers = (
{
layerId = "F0FBE068-24F2-4D1F-B3A2-D9A3CAFE6F9A";
name = Regular;
paths = (
{
closed = 1;
nodes = (
"424 0 LINE SMOOTH",
"435 0 OFFCURVE",
"438 6 OFFCURVE",
"438 15 CURVE SMOOTH",
"438 30 OFFCURVE",
"429 40 OFFCURVE",
"406 46 CURVE SMOOTH",
"359 59 LINE",
"359 320 LINE",
"508 320 LINE",
"508 387 LINE",
"359 387 LINE",
"359 629 LINE",
"522 629 LINE",
"533 576 LINE SMOOTH",
"540 547 OFFCURVE",
"548 532 OFFCURVE",
"566 532 CURVE SMOOTH",
"577 532 OFFCURVE",
"586 538 OFFCURVE",
"586 551 CURVE SMOOTH",
"586 695 LINE",
"33 695 LINE",
"33 551 LINE SMOOTH",
"33 538 OFFCURVE",
"42 532 OFFCURVE",
"53 532 CURVE SMOOTH",
"71 532 OFFCURVE",
"79 547 OFFCURVE",
"85 576 CURVE SMOOTH",
"97 629 LINE",
"259 629 LINE",
"259 387 LINE",
"112 387 LINE",
"112 320 LINE",
"259 320 LINE",
"259 60 LINE",
"234 60 LINE SMOOTH",
"207 60 OFFCURVE",
"189 48 OFFCURVE",
"189 25 CURVE SMOOTH",
"189 10 OFFCURVE",
"196 0 OFFCURVE",
"209 0 CURVE SMOOTH"
);
}
);
width = 618;
}
);
note = Tbar;
unicode = 0166;
},
{
glyphname = Tcaron;
lastChange = "2015-07-16 17:52:31 +0000";
layers = (
{
components = (
{
name = T;
}
);
layerId = "F0FBE068-24F2-4D1F-B3A2-D9A3CAFE6F9A";
name = Regular;
paths = (
{
closed = 1;
nodes = (
"331 752 LINE",
"443 895 LINE",
"399 932 LINE",
"306 830 LINE",
"214 932 LINE",
"170 895 LINE",
"282 752 LINE"
);
}
);
width = 612;
}
);
note = Tcaron;
unicode = 0164;
},
{
glyphname = Tcedilla;
lastChange = "2015-07-16 17:52:31 +0000";
layers = (
{
layerId = "F0FBE068-24F2-4D1F-B3A2-D9A3CAFE6F9A";
name = Regular;
paths = (
{
closed = 1;
nodes = (
"324 -198 OFFCURVE",
"383 -160 OFFCURVE",
"383 -112 CURVE SMOOTH",
"383 -77 OFFCURVE",
"361 -57 OFFCURVE",
"334 -46 CURVE",
"355 0 LINE",
"421 0 LINE SMOOTH",
"432 0 OFFCURVE",
"435 6 OFFCURVE",
"435 15 CURVE SMOOTH",
"435 30 OFFCURVE",
"426 40 OFFCURVE",
"403 46 CURVE SMOOTH",
"356 59 LINE",
"356 629 LINE",
"519 629 LINE",
"530 576 LINE SMOOTH",
"537 547 OFFCURVE",
"545 532 OFFCURVE",
"563 532 CURVE SMOOTH",
"574 532 OFFCURVE",
"583 538 OFFCURVE",
"583 551 CURVE SMOOTH",
"583 695 LINE",
"30 695 LINE",
"30 551 LINE SMOOTH",
"30 538 OFFCURVE",
"39 532 OFFCURVE",
"50 532 CURVE SMOOTH",
"68 532 OFFCURVE",
"76 547 OFFCURVE",
"82 576 CURVE SMOOTH",
"94 629 LINE",
"256 629 LINE",
"256 60 LINE",
"231 60 LINE SMOOTH",
"204 60 OFFCURVE",
"186 48 OFFCURVE",
"186 25 CURVE SMOOTH",
"186 10 OFFCURVE",
"193 0 OFFCURVE",
"206 0 CURVE SMOOTH",
"291 0 LINE",
"270 -58 LINE",
"302 -68 OFFCURVE",
"315 -85 OFFCURVE",
"315 -110 CURVE SMOOTH",
"315 -138 OFFCURVE",
"294 -162 OFFCURVE",
"247 -177 CURVE",
"261 -212 LINE"
);
}
);
width = 612;
}
);
note = Tcedilla;
unicode = 0162;
},
{
glyphname = Tcommaaccent;
lastChange = "2015-07-16 17:52:31 +0000";
layers = (
{
components = (
{
name = T;
}
);
layerId = "F0FBE068-24F2-4D1F-B3A2-D9A3CAFE6F9A";
name = Regular;
paths = (
{
closed = 1;
nodes = (
"316 -204 OFFCURVE",
"352 -127 OFFCURVE",
"367 -69 CURVE",
"283 -50 LINE SMOOTH",
"258 -44 OFFCURVE",
"241 -55 OFFCURVE",
"241 -76 CURVE SMOOTH",
"241 -86 OFFCURVE",
"247 -91 OFFCURVE",
"255 -94 CURVE",
"283 -103 LINE",
"279 -136 OFFCURVE",
"252 -194 OFFCURVE",
"227 -230 CURVE",
"269 -256 LINE"
);
}
);
width = 612;
}
);
note = Tcommaaccent;
unicode = 021A;
},
{
glyphname = Tdotbelow;
lastChange = "2015-07-16 17:52:31 +0000";
layers = (
{
components = (
{
name = T;
}
);
layerId = "F0FBE068-24F2-4D1F-B3A2-D9A3CAFE6F9A";
name = Regular;
paths = (
{
closed = 1;
nodes = (
"337 -177 OFFCURVE",
"361 -153 OFFCURVE",
"361 -121 CURVE SMOOTH",
"361 -89 OFFCURVE",
"337 -66 OFFCURVE",
"306 -66 CURVE SMOOTH",
"276 -66 OFFCURVE",
"251 -89 OFFCURVE",
"251 -121 CURVE SMOOTH",
"251 -153 OFFCURVE",
"276 -177 OFFCURVE",
"306 -177 CURVE SMOOTH"
);
}
);
width = 612;
}
);
note = Tdotbelow;
unicode = 1E6C;
},
{
glyphname = Tlinebelow;
lastChange = "2015-07-16 17:52:31 +0000";
layers = (
{
components = (
{
name = T;
}
);
layerId = "F0FBE068-24F2-4D1F-B3A2-D9A3CAFE6F9A";
name = Regular;
paths = (
{
closed = 1;
nodes = (
"503 -153 LINE",
"503 -88 LINE",
"115 -88 LINE",
"115 -153 LINE"
);
}
);
width = 612;
}
);
note = Tlinebelow;
unicode = 1E6E;
},
{
glyphname = U;
lastChange = "2015-07-16 17:52:31 +0000";
layers = (
{
layerId = "F0FBE068-24F2-4D1F-B3A2-D9A3CAFE6F9A";
name = Regular;
paths = (
{
closed = 1;
nodes = (
"568 -13 OFFCURVE",
"680 84 OFFCURVE",
"680 265 CURVE SMOOTH",
"680 636 LINE",
"723 652 LINE SMOOTH",
"743 660 OFFCURVE",
"753 669 OFFCURVE",
"753 681 CURVE SMOOTH",
"753 690 OFFCURVE",
"750 695 OFFCURVE",
"739 695 CURVE SMOOTH",
"568 695 LINE SMOOTH",
"541 695 OFFCURVE",
"523 683 OFFCURVE",
"523 661 CURVE SMOOTH",
"523 645 OFFCURVE",
"530 635 OFFCURVE",
"543 635 CURVE SMOOTH",
"601 635 LINE",
"601 257 LINE SMOOTH",
"601 124 OFFCURVE",
"527 54 OFFCURVE",
"404 54 CURVE SMOOTH",
"283 54 OFFCURVE",
"210 124 OFFCURVE",
"210 257 CURVE SMOOTH",
"210 636 LINE",
"257 649 LINE SMOOTH",
"280 655 OFFCURVE",
"289 665 OFFCURVE",
"289 680 CURVE SMOOTH",
"289 689 OFFCURVE",
"286 695 OFFCURVE",
"275 695 CURVE SMOOTH",
"85 695 LINE SMOOTH",
"58 695 OFFCURVE",
"40 683 OFFCURVE",
"40 661 CURVE SMOOTH",
"40 645 OFFCURVE",
"47 635 OFFCURVE",
"60 635 CURVE SMOOTH",
"110 635 LINE",
"110 265 LINE SMOOTH",
"110 86 OFFCURVE",
"228 -13 OFFCURVE",
"400 -13 CURVE SMOOTH"
);
}
);
width = 793;
}
);
note = U;
unicode = 0055;
},
{
glyphname = Uacute;
lastChange = "2015-07-16 17:52:31 +0000";
layers = (
{
components = (
{
name = U;
}
);
layerId = "F0FBE068-24F2-4D1F-B3A2-D9A3CAFE6F9A";
name = Regular;
paths = (
{
closed = 1;
nodes = (
"494 898 LINE",
"421 945 LINE",
"327 788 LINE",
"382 752 LINE"
);
}
);
width = 793;
}
);
note = Uacute;
unicode = 00DA;
},
{
glyphname = Ubreve;
lastChange = "2015-07-16 17:52:31 +0000";
layers = (
{
components = (
{
name = U;
}
);
layerId = "F0FBE068-24F2-4D1F-B3A2-D9A3CAFE6F9A";
name = Regular;
paths = (
{
closed = 1;
nodes = (
"471 747 OFFCURVE",
"533 782 OFFCURVE",
"559 874 CURVE",
"504 893 LINE",
"489 844 OFFCURVE",
"454 813 OFFCURVE",
"404 813 CURVE SMOOTH",
"355 813 OFFCURVE",
"320 844 OFFCURVE",
"304 893 CURVE",
"250 874 LINE",
"276 782 OFFCURVE",
"338 747 OFFCURVE",
"404 747 CURVE SMOOTH"
);
}
);
width = 793;
}
);
note = Ubreve;
unicode = 016C;
},
{
glyphname = Ucaron;
lastChange = "2015-07-16 17:52:31 +0000";
layers = (
{
components = (
{
name = U;
}
);
layerId = "F0FBE068-24F2-4D1F-B3A2-D9A3CAFE6F9A";
name = Regular;
paths = (
{
closed = 1;
nodes = (
"425 752 LINE",
"537 895 LINE",
"493 932 LINE",
"400 830 LINE",
"308 932 LINE",
"264 895 LINE",
"376 752 LINE"
);
}
);
width = 793;
}
);
note = Ucaron;
unicode = 01D3;
},
{
glyphname = Ucircumflex;
lastChange = "2015-07-16 17:52:31 +0000";
layers = (
{
components = (
{
name = U;
}
);
layerId = "F0FBE068-24F2-4D1F-B3A2-D9A3CAFE6F9A";
name = Regular;
paths = (
{
closed = 1;
nodes = (
"401 854 LINE",
"494 752 LINE",
"538 789 LINE",
"426 932 LINE",
"377 932 LINE",
"265 789 LINE",
"309 752 LINE"
);
}
);
width = 793;
}
);
note = Ucircumflex;
unicode = 00DB;
},
{
glyphname = Udieresis;
lastChange = "2015-07-16 17:52:31 +0000";
layers = (
{
components = (
{
name = U;
}
);
layerId = "F0FBE068-24F2-4D1F-B3A2-D9A3CAFE6F9A";
name = Regular;
paths = (
{
closed = 1;
nodes = (
"331 763 OFFCURVE",
"357 786 OFFCURVE",
"357 818 CURVE SMOOTH",
"357 850 OFFCURVE",
"331 873 OFFCURVE",
"302 873 CURVE SMOOTH",
"272 873 OFFCURVE",
"247 850 OFFCURVE",
"247 818 CURVE SMOOTH",
"247 786 OFFCURVE",
"272 763 OFFCURVE",
"302 763 CURVE SMOOTH"
);
},
{
closed = 1;
nodes = (
"529 763 OFFCURVE",
"555 786 OFFCURVE",
"555 818 CURVE SMOOTH",
"555 850 OFFCURVE",
"529 873 OFFCURVE",
"500 873 CURVE SMOOTH",
"470 873 OFFCURVE",
"445 850 OFFCURVE",
"445 818 CURVE SMOOTH",
"445 786 OFFCURVE",
"470 763 OFFCURVE",
"500 763 CURVE SMOOTH"
);
}
);
width = 793;
}
);
note = Udieresis;
unicode = 00DC;
},
{
glyphname = Udieresisacute;
lastChange = "2015-07-16 17:52:31 +0000";
layers = (
{
components = (
{
name = U;
}
);
layerId = "F0FBE068-24F2-4D1F-B3A2-D9A3CAFE6F9A";
name = Regular;
paths = (
{
closed = 1;
nodes = (
"329 763 OFFCURVE",
"355 786 OFFCURVE",
"355 818 CURVE SMOOTH",
"355 850 OFFCURVE",
"329 873 OFFCURVE",
"300 873 CURVE SMOOTH",
"270 873 OFFCURVE",
"245 850 OFFCURVE",
"245 818 CURVE SMOOTH",
"245 786 OFFCURVE",
"270 763 OFFCURVE",
"300 763 CURVE SMOOTH"
);
},
{
closed = 1;
nodes = (
"526 763 OFFCURVE",
"552 786 OFFCURVE",
"552 818 CURVE SMOOTH",
"552 850 OFFCURVE",
"526 873 OFFCURVE",
"497 873 CURVE SMOOTH",
"467 873 OFFCURVE",
"442 850 OFFCURVE",
"442 818 CURVE SMOOTH",
"442 786 OFFCURVE",
"467 763 OFFCURVE",
"497 763 CURVE SMOOTH"
);
},
{
closed = 1;
nodes = (
"513 1018 LINE",
"445 1061 LINE",
"360 916 LINE",
"410 884 LINE"
);
}
);
width = 793;
}
);
note = Udieresisacute;
unicode = 01D7;
},
{
glyphname = Udieresiscaron;
lastChange = "2015-07-16 17:52:31 +0000";
layers = (
{
components = (
{
name = U;
}
);
layerId = "F0FBE068-24F2-4D1F-B3A2-D9A3CAFE6F9A";
name = Regular;
paths = (
{
closed = 1;
nodes = (
"332 763 OFFCURVE",
"358 786 OFFCURVE",
"358 818 CURVE SMOOTH",
"358 850 OFFCURVE",
"332 873 OFFCURVE",
"303 873 CURVE SMOOTH",
"273 873 OFFCURVE",
"248 850 OFFCURVE",
"248 818 CURVE SMOOTH",
"248 786 OFFCURVE",
"273 763 OFFCURVE",
"303 763 CURVE SMOOTH"
);
},
{
closed = 1;
nodes = (
"530 763 OFFCURVE",
"556 786 OFFCURVE",
"556 818 CURVE SMOOTH",
"556 850 OFFCURVE",
"530 873 OFFCURVE",
"501 873 CURVE SMOOTH",
"471 873 OFFCURVE",
"446 850 OFFCURVE",
"446 818 CURVE SMOOTH",
"446 786 OFFCURVE",
"471 763 OFFCURVE",
"501 763 CURVE SMOOTH"
);
},
{
closed = 1;
nodes = (
"427 894 LINE",
"539 1038 LINE",
"495 1074 LINE",
"402 972 LINE",
"310 1074 LINE",
"266 1038 LINE",
"378 894 LINE"
);
}
);
width = 793;
}
);
note = Udieresiscaron;
unicode = 01D9;
},
{
glyphname = Udieresisgrave;
lastChange = "2015-07-16 17:52:31 +0000";
layers = (
{
components = (
{
name = U;
}
);
layerId = "F0FBE068-24F2-4D1F-B3A2-D9A3CAFE6F9A";
name = Regular;
paths = (
{
closed = 1;
nodes = (
"334 763 OFFCURVE",
"360 786 OFFCURVE",
"360 818 CURVE SMOOTH",
"360 850 OFFCURVE",
"334 873 OFFCURVE",
"304 873 CURVE SMOOTH",
"275 873 OFFCURVE",
"250 850 OFFCURVE",
"250 818 CURVE SMOOTH",
"250 786 OFFCURVE",
"275 763 OFFCURVE",
"304 763 CURVE SMOOTH"
);
},
{
closed = 1;
nodes = (
"531 763 OFFCURVE",
"557 786 OFFCURVE",
"557 818 CURVE SMOOTH",
"557 850 OFFCURVE",
"531 873 OFFCURVE",
"501 873 CURVE SMOOTH",
"472 873 OFFCURVE",
"447 850 OFFCURVE",
"447 818 CURVE SMOOTH",
"447 786 OFFCURVE",
"472 763 OFFCURVE",
"501 763 CURVE SMOOTH"
);
},
{
closed = 1;
nodes = (
"442 916 LINE",
"357 1061 LINE",
"289 1018 LINE",
"392 884 LINE"
);
}
);
width = 793;
}
);
note = Udieresisgrave;
unicode = 01DB;
},
{
glyphname = Udieresismacron;
lastChange = "2015-07-16 17:52:31 +0000";
layers = (
{
components = (
{
name = U;
}
);
layerId = "F0FBE068-24F2-4D1F-B3A2-D9A3CAFE6F9A";
name = Regular;
paths = (
{
closed = 1;
nodes = (
"335 763 OFFCURVE",
"361 786 OFFCURVE",
"361 818 CURVE SMOOTH",
"361 850 OFFCURVE",
"335 873 OFFCURVE",
"306 873 CURVE SMOOTH",
"276 873 OFFCURVE",
"251 850 OFFCURVE",
"251 818 CURVE SMOOTH",
"251 786 OFFCURVE",
"276 763 OFFCURVE",
"306 763 CURVE SMOOTH"
);
},
{
closed = 1;
nodes = (
"532 763 OFFCURVE",
"558 786 OFFCURVE",
"558 818 CURVE SMOOTH",
"558 850 OFFCURVE",
"532 873 OFFCURVE",
"503 873 CURVE SMOOTH",
"473 873 OFFCURVE",
"448 850 OFFCURVE",
"448 818 CURVE SMOOTH",
"448 786 OFFCURVE",
"473 763 OFFCURVE",
"503 763 CURVE SMOOTH"
);
},
{
closed = 1;
nodes = (
"549 929 LINE",
"549 994 LINE",
"262 994 LINE",
"262 929 LINE"
);
}
);
width = 793;
}
);
note = Udieresismacron;
unicode = 01D5;
},
{
glyphname = Udotbelow;
lastChange = "2015-07-16 17:52:31 +0000";
layers = (
{
components = (
{
name = U;
}
);
layerId = "F0FBE068-24F2-4D1F-B3A2-D9A3CAFE6F9A";
name = Regular;
paths = (
{
closed = 1;
nodes = (
"431 -177 OFFCURVE",
"455 -153 OFFCURVE",
"455 -121 CURVE SMOOTH",
"455 -89 OFFCURVE",
"431 -66 OFFCURVE",
"400 -66 CURVE SMOOTH",
"370 -66 OFFCURVE",
"345 -89 OFFCURVE",
"345 -121 CURVE SMOOTH",
"345 -153 OFFCURVE",
"370 -177 OFFCURVE",
"400 -177 CURVE SMOOTH"
);
}
);
width = 793;
}
);
note = Udotbelow;
unicode = 1EE4;
},
{
glyphname = Ugrave;
lastChange = "2015-07-16 17:52:31 +0000";
layers = (
{
components = (
{
name = U;
}
);
layerId = "F0FBE068-24F2-4D1F-B3A2-D9A3CAFE6F9A";
name = Regular;
paths = (
{
closed = 1;
nodes = (
"469 789 LINE",
"375 946 LINE",
"302 899 LINE",
"414 753 LINE"
);
}
);
width = 793;
}
);
note = Ugrave;
unicode = 00D9;
},
{
glyphname = Uhookabove;
lastChange = "2015-07-16 17:52:31 +0000";
layers = (
{
components = (
{
name = U;
}
);
layerId = "F0FBE068-24F2-4D1F-B3A2-D9A3CAFE6F9A";
name = Regular;
paths = (
{
closed = 1;
nodes = (
"423 750 LINE",
"429 796 LINE",
"468 810 OFFCURVE",
"492 837 OFFCURVE",
"492 871 CURVE SMOOTH",
"492 912 OFFCURVE",
"456 943 OFFCURVE",
"403 943 CURVE SMOOTH",
"380 943 OFFCURVE",
"352 935 OFFCURVE",
"336 928 CURVE",
"343 890 LINE",
"360 895 OFFCURVE",
"377 899 OFFCURVE",
"394 899 CURVE SMOOTH",
"416 899 OFFCURVE",
"427 889 OFFCURVE",
"427 870 CURVE SMOOTH",
"427 847 OFFCURVE",
"406 831 OFFCURVE",
"371 819 CURVE",
"377 750 LINE"
);
}
);
width = 793;
}
);
note = Uhookabove;
unicode = 1EE6;
},
{
glyphname = Uhorn;
lastChange = "2015-07-16 17:52:31 +0000";
layers = (
{
layerId = "F0FBE068-24F2-4D1F-B3A2-D9A3CAFE6F9A";
name = Regular;
paths = (
{
closed = 1;
nodes = (
"568 -13 OFFCURVE",
"680 84 OFFCURVE",
"680 265 CURVE SMOOTH",
"680 439 LINE",
"797 491 OFFCURVE",
"904 587 OFFCURVE",
"904 763 CURVE",
"825 763 LINE",
"825 627 OFFCURVE",
"769 550 OFFCURVE",
"680 509 CURVE",
"680 637 LINE",
"717 648 LINE SMOOTH",
"738 654 OFFCURVE",
"753 666 OFFCURVE",
"753 680 CURVE SMOOTH",
"753 689 OFFCURVE",
"750 695 OFFCURVE",
"739 695 CURVE SMOOTH",
"568 695 LINE SMOOTH",
"541 695 OFFCURVE",
"523 683 OFFCURVE",
"523 661 CURVE SMOOTH",
"523 645 OFFCURVE",
"530 635 OFFCURVE",
"543 635 CURVE SMOOTH",
"601 635 LINE",
"601 257 LINE SMOOTH",
"601 124 OFFCURVE",
"527 54 OFFCURVE",
"404 54 CURVE SMOOTH",
"283 54 OFFCURVE",
"210 124 OFFCURVE",
"210 257 CURVE SMOOTH",
"210 636 LINE",
"257 649 LINE SMOOTH",
"280 655 OFFCURVE",
"289 665 OFFCURVE",
"289 680 CURVE SMOOTH",
"289 689 OFFCURVE",
"286 695 OFFCURVE",
"275 695 CURVE SMOOTH",
"85 695 LINE SMOOTH",
"58 695 OFFCURVE",
"40 683 OFFCURVE",
"40 661 CURVE SMOOTH",
"40 645 OFFCURVE",
"47 635 OFFCURVE",
"60 635 CURVE SMOOTH",
"110 635 LINE",
"110 265 LINE SMOOTH",
"110 86 OFFCURVE",
"228 -13 OFFCURVE",
"400 -13 CURVE SMOOTH"
);
}
);
width = 916;
}
);
note = Uhorn;
unicode = 01AF;
},
{
glyphname = Uhornacute;
lastChange = "2015-07-16 17:52:31 +0000";
layers = (
{
components = (
{
name = Uhorn;
}
);
layerId = "F0FBE068-24F2-4D1F-B3A2-D9A3CAFE6F9A";
name = Regular;
paths = (
{
closed = 1;
nodes = (
"498 898 LINE",
"425 945 LINE",
"331 788 LINE",
"386 752 LINE"
);
}
);
width = 916;
}
);
note = Uhornacute;
unicode = 1EE8;
},
{
glyphname = Uhorndotbelow;
lastChange = "2015-07-16 17:52:31 +0000";
layers = (
{
components = (
{
name = Uhorn;
}
);
layerId = "F0FBE068-24F2-4D1F-B3A2-D9A3CAFE6F9A";
name = Regular;
paths = (
{
closed = 1;
nodes = (
"437 -177 OFFCURVE",
"461 -153 OFFCURVE",
"461 -121 CURVE SMOOTH",
"461 -89 OFFCURVE",
"437 -66 OFFCURVE",
"406 -66 CURVE SMOOTH",
"376 -66 OFFCURVE",
"351 -89 OFFCURVE",
"351 -121 CURVE SMOOTH",
"351 -153 OFFCURVE",
"376 -177 OFFCURVE",
"406 -177 CURVE SMOOTH"
);
}
);
width = 916;
}
);
note = Uhorndotbelow;
unicode = 1EF0;
},
{
glyphname = Uhorngrave;
lastChange = "2015-07-16 17:52:31 +0000";
layers = (
{
components = (
{
name = Uhorn;
}
);
layerId = "F0FBE068-24F2-4D1F-B3A2-D9A3CAFE6F9A";
name = Regular;
paths = (
{
closed = 1;
nodes = (
"452 789 LINE",
"358 946 LINE",
"285 899 LINE",
"397 753 LINE"
);
}
);
width = 916;
}
);
note = Uhorngrave;
unicode = 1EEA;
},
{
glyphname = Uhornhookabove;
lastChange = "2015-07-16 17:52:31 +0000";
layers = (
{
components = (
{
name = Uhorn;
}
);
layerId = "F0FBE068-24F2-4D1F-B3A2-D9A3CAFE6F9A";
name = Regular;
paths = (
{
closed = 1;
nodes = (
"429 750 LINE",
"435 796 LINE",
"474 810 OFFCURVE",
"498 837 OFFCURVE",
"498 871 CURVE SMOOTH",
"498 912 OFFCURVE",
"462 943 OFFCURVE",
"409 943 CURVE SMOOTH",
"386 943 OFFCURVE",
"358 935 OFFCURVE",
"342 928 CURVE",
"349 890 LINE",
"366 895 OFFCURVE",
"383 899 OFFCURVE",
"400 899 CURVE SMOOTH",
"422 899 OFFCURVE",
"433 889 OFFCURVE",
"433 870 CURVE SMOOTH",
"433 847 OFFCURVE",
"412 831 OFFCURVE",
"377 819 CURVE",
"383 750 LINE"
);
}
);
width = 916;
}
);
note = Uhornhookabove;
unicode = 1EEC;
},
{
glyphname = Uhorntilde;
lastChange = "2015-07-16 17:52:31 +0000";
layers = (
{
components = (
{
name = Uhorn;
}
);
layerId = "F0FBE068-24F2-4D1F-B3A2-D9A3CAFE6F9A";
name = Regular;
paths = (
{
closed = 1;
nodes = (
"494 763 OFFCURVE",
"529 782 OFFCURVE",
"558 810 CURVE",
"524 856 LINE",
"504 841 OFFCURVE",
"484 831 OFFCURVE",
"461 831 CURVE SMOOTH",
"423 831 OFFCURVE",
"385 868 OFFCURVE",
"343 868 CURVE SMOOTH",
"311 868 OFFCURVE",
"273 846 OFFCURVE",
"244 820 CURVE",
"277 774 LINE",
"298 789 OFFCURVE",
"317 800 OFFCURVE",
"342 800 CURVE SMOOTH",
"384 800 OFFCURVE",
"417 763 OFFCURVE",
"462 763 CURVE SMOOTH"
);
}
);
width = 916;
}
);
note = Uhorntilde;
unicode = 1EEE;
},
{
glyphname = Uhungarumlaut;
lastChange = "2015-07-16 17:52:31 +0000";
layers = (
{
components = (
{
name = U;
}
);
layerId = "F0FBE068-24F2-4D1F-B3A2-D9A3CAFE6F9A";
name = Regular;
paths = (
{
closed = 1;
nodes = (
"431 941 LINE",
"369 979 LINE",
"251 793 LINE",
"293 764 LINE"
);
},
{
closed = 1;
nodes = (
"614 941 LINE",
"552 979 LINE",
"434 793 LINE",
"476 764 LINE"
);
}
);
width = 793;
}
);
note = Uhungarumlaut;
unicode = 0170;
},
{
glyphname = Umacron;
lastChange = "2015-07-16 17:52:31 +0000";
layers = (
{
components = (
{
name = U;
}
);
layerId = "F0FBE068-24F2-4D1F-B3A2-D9A3CAFE6F9A";
name = Regular;
paths = (
{
closed = 1;
nodes = (
"548 781 LINE",
"548 847 LINE",
"261 847 LINE",
"261 781 LINE"
);
}
);
width = 793;
}
);
note = Umacron;
unicode = 016A;
},
{
glyphname = Uogonek;
lastChange = "2015-07-16 17:52:31 +0000";
layers = (
{
layerId = "F0FBE068-24F2-4D1F-B3A2-D9A3CAFE6F9A";
name = Regular;
paths = (
{
closed = 1;
nodes = (
"460 -215 OFFCURVE",
"484 -211 OFFCURVE",
"503 -201 CURVE",
"494 -160 LINE",
"482 -164 OFFCURVE",
"469 -167 OFFCURVE",
"453 -167 CURVE SMOOTH",
"415 -167 OFFCURVE",
"391 -147 OFFCURVE",
"391 -111 CURVE SMOOTH",
"391 -70 OFFCURVE",
"423 -29 OFFCURVE",
"460 -8 CURVE",
"594 13 OFFCURVE",
"680 107 OFFCURVE",
"680 265 CURVE SMOOTH",
"680 636 LINE",
"723 652 LINE SMOOTH",
"743 660 OFFCURVE",
"753 669 OFFCURVE",
"753 681 CURVE SMOOTH",
"753 690 OFFCURVE",
"750 695 OFFCURVE",
"739 695 CURVE SMOOTH",
"568 695 LINE SMOOTH",
"541 695 OFFCURVE",
"523 683 OFFCURVE",
"523 661 CURVE SMOOTH",
"523 645 OFFCURVE",
"530 635 OFFCURVE",
"543 635 CURVE SMOOTH",
"601 635 LINE",
"601 257 LINE SMOOTH",
"601 124 OFFCURVE",
"527 54 OFFCURVE",
"404 54 CURVE SMOOTH",
"283 54 OFFCURVE",
"210 124 OFFCURVE",
"210 257 CURVE SMOOTH",
"210 636 LINE",
"257 649 LINE SMOOTH",
"278 655 OFFCURVE",
"289 665 OFFCURVE",
"289 680 CURVE SMOOTH",
"289 689 OFFCURVE",
"286 695 OFFCURVE",
"275 695 CURVE SMOOTH",
"85 695 LINE SMOOTH",
"58 695 OFFCURVE",
"40 683 OFFCURVE",
"40 661 CURVE SMOOTH",
"40 645 OFFCURVE",
"47 635 OFFCURVE",
"60 635 CURVE SMOOTH",
"110 635 LINE",
"110 265 LINE SMOOTH",
"110 91 OFFCURVE",
"221 -7 OFFCURVE",
"386 -13 CURVE",
"348 -37 OFFCURVE",
"324 -75 OFFCURVE",
"324 -114 CURVE SMOOTH",
"324 -178 OFFCURVE",
"373 -215 OFFCURVE",
"440 -215 CURVE SMOOTH"
);
}
);
width = 793;
}
);
note = Uogonek;
unicode = 0172;
},
{
glyphname = Uring;
lastChange = "2015-07-16 17:52:31 +0000";
layers = (
{
components = (
{
name = U;
}
);
layerId = "F0FBE068-24F2-4D1F-B3A2-D9A3CAFE6F9A";
name = Regular;
paths = (
{
closed = 1;
nodes = (
"460 744 OFFCURVE",
"498 786 OFFCURVE",
"498 837 CURVE SMOOTH",
"498 888 OFFCURVE",
"460 931 OFFCURVE",
"398 931 CURVE SMOOTH",
"337 931 OFFCURVE",
"299 888 OFFCURVE",
"299 837 CURVE SMOOTH",
"299 786 OFFCURVE",
"337 744 OFFCURVE",
"398 744 CURVE SMOOTH"
);
},
{
closed = 1;
nodes = (
"374 792 OFFCURVE",
"354 808 OFFCURVE",
"354 837 CURVE SMOOTH",
"354 867 OFFCURVE",
"374 883 OFFCURVE",
"399 883 CURVE SMOOTH",
"423 883 OFFCURVE",
"443 867 OFFCURVE",
"443 837 CURVE SMOOTH",
"443 808 OFFCURVE",
"423 792 OFFCURVE",
"399 792 CURVE SMOOTH"
);
}
);
width = 793;
}
);
note = Uring;
unicode = 016E;
},
{
glyphname = Utilde;
lastChange = "2015-07-16 17:52:31 +0000";
layers = (
{
components = (
{
name = U;
}
);
layerId = "F0FBE068-24F2-4D1F-B3A2-D9A3CAFE6F9A";
name = Regular;
paths = (
{
closed = 1;
nodes = (
"492 763 OFFCURVE",
"527 782 OFFCURVE",
"556 810 CURVE",
"522 856 LINE",
"502 841 OFFCURVE",
"482 831 OFFCURVE",
"459 831 CURVE SMOOTH",
"421 831 OFFCURVE",
"383 868 OFFCURVE",
"341 868 CURVE SMOOTH",
"309 868 OFFCURVE",
"271 846 OFFCURVE",
"242 820 CURVE",
"275 774 LINE",
"296 789 OFFCURVE",
"315 800 OFFCURVE",
"340 800 CURVE SMOOTH",
"382 800 OFFCURVE",
"415 763 OFFCURVE",
"460 763 CURVE SMOOTH"
);
}
);
width = 793;
}
);
note = Utilde;
unicode = 0168;
},
{
glyphname = V;
lastChange = "2015-07-16 17:52:32 +0000";
layers = (
{
layerId = "F0FBE068-24F2-4D1F-B3A2-D9A3CAFE6F9A";
name = Regular;
paths = (
{
closed = 1;
nodes = (
"425 0 LINE",
"655 635 LINE",
"706 651 LINE SMOOTH",
"723 657 OFFCURVE",
"734 666 OFFCURVE",
"734 680 CURVE SMOOTH",
"734 688 OFFCURVE",
"731 695 OFFCURVE",
"720 695 CURVE SMOOTH",
"541 695 LINE SMOOTH",
"514 695 OFFCURVE",
"496 683 OFFCURVE",
"496 661 CURVE SMOOTH",
"496 645 OFFCURVE",
"504 635 OFFCURVE",
"517 635 CURVE SMOOTH",
"577 635 LINE",
"395 124 LINE SMOOTH",
"384 95 OFFCURVE",
"380 64 OFFCURVE",
"380 64 CURVE SMOOTH",
"375 64 LINE SMOOTH",
"375 64 OFFCURVE",
"370 95 OFFCURVE",
"360 124 CURVE SMOOTH",
"184 636 LINE",
"234 647 LINE SMOOTH",
"258 652 OFFCURVE",
"271 663 OFFCURVE",
"271 680 CURVE SMOOTH",
"271 689 OFFCURVE",
"267 695 OFFCURVE",
"257 695 CURVE SMOOTH",
"53 695 LINE SMOOTH",
"26 695 OFFCURVE",
"8 683 OFFCURVE",
"8 661 CURVE SMOOTH",
"8 645 OFFCURVE",
"15 635 OFFCURVE",
"28 635 CURVE SMOOTH",
"77 635 LINE",
"305 0 LINE"
);
}
);
width = 742;
}
);
note = V;
unicode = 0056;
},
{
glyphname = W;
lastChange = "2015-07-16 17:52:31 +0000";
layers = (
{
layerId = "F0FBE068-24F2-4D1F-B3A2-D9A3CAFE6F9A";
name = Regular;
paths = (
{
closed = 1;
nodes = (
"394 0 LINE",
"535 507 LINE SMOOTH",
"545 543 OFFCURVE",
"550 595 OFFCURVE",
"550 595 CURVE",
"554 595 LINE",
"554 595 OFFCURVE",
"558 543 OFFCURVE",
"569 507 CURVE SMOOTH",
"719 0 LINE",
"840 0 LINE",
"1023 635 LINE",
"1073 651 LINE SMOOTH",
"1091 657 OFFCURVE",
"1102 666 OFFCURVE",
"1102 680 CURVE SMOOTH",
"1102 688 OFFCURVE",
"1098 695 OFFCURVE",
"1088 695 CURVE SMOOTH",
"907 695 LINE SMOOTH",
"879 695 OFFCURVE",
"862 683 OFFCURVE",
"862 661 CURVE SMOOTH",
"862 645 OFFCURVE",
"869 635 OFFCURVE",
"882 635 CURVE SMOOTH",
"946 635 LINE",
"808 138 LINE SMOOTH",
"799 107 OFFCURVE",
"795 67 OFFCURVE",
"795 67 CURVE SMOOTH",
"790 67 LINE SMOOTH",
"790 67 OFFCURVE",
"787 107 OFFCURVE",
"778 138 CURVE SMOOTH",
"611 695 LINE",
"513 695 LINE",
"358 138 LINE SMOOTH",
"349 107 OFFCURVE",
"345 67 OFFCURVE",
"345 67 CURVE SMOOTH",
"340 67 LINE SMOOTH",
"340 67 OFFCURVE",
"337 107 OFFCURVE",
"328 138 CURVE SMOOTH",
"179 636 LINE",
"230 647 LINE SMOOTH",
"254 652 OFFCURVE",
"267 663 OFFCURVE",
"267 680 CURVE SMOOTH",
"267 689 OFFCURVE",
"263 695 OFFCURVE",
"253 695 CURVE SMOOTH",
"54 695 LINE SMOOTH",
"27 695 OFFCURVE",
"9 683 OFFCURVE",
"9 661 CURVE SMOOTH",
"9 645 OFFCURVE",
"16 635 OFFCURVE",
"29 635 CURVE SMOOTH",
"79 635 LINE",
"273 0 LINE"
);
}
);
width = 1110;
}
);
note = W;
unicode = 0057;
},
{
glyphname = Wacute;
lastChange = "2015-07-16 17:52:31 +0000";
layers = (
{
components = (
{
name = W;
}
);
layerId = "F0FBE068-24F2-4D1F-B3A2-D9A3CAFE6F9A";
name = Regular;
paths = (
{
closed = 1;
nodes = (
"668 898 LINE",
"595 945 LINE",
"501 788 LINE",
"556 752 LINE"
);
}
);
width = 1110;
}
);
note = Wacute;
unicode = 1E82;
},
{
glyphname = Wcircumflex;
lastChange = "2015-07-16 17:52:31 +0000";
layers = (
{
components = (
{
name = W;
}
);
layerId = "F0FBE068-24F2-4D1F-B3A2-D9A3CAFE6F9A";
name = Regular;
paths = (
{
closed = 1;
nodes = (
"551 854 LINE",
"644 752 LINE",
"688 789 LINE",
"576 932 LINE",
"527 932 LINE",
"415 789 LINE",
"459 752 LINE"
);
}
);
width = 1110;
}
);
note = Wcircumflex;
unicode = 0174;
},
{
glyphname = Wdieresis;
lastChange = "2015-07-16 17:52:31 +0000";
layers = (
{
components = (
{
name = W;
}
);
layerId = "F0FBE068-24F2-4D1F-B3A2-D9A3CAFE6F9A";
name = Regular;
paths = (
{
closed = 1;
nodes = (
"493 763 OFFCURVE",
"519 786 OFFCURVE",
"519 818 CURVE SMOOTH",
"519 850 OFFCURVE",
"493 873 OFFCURVE",
"464 873 CURVE SMOOTH",
"434 873 OFFCURVE",
"409 850 OFFCURVE",
"409 818 CURVE SMOOTH",
"409 786 OFFCURVE",
"434 763 OFFCURVE",
"464 763 CURVE SMOOTH"
);
},
{
closed = 1;
nodes = (
"691 763 OFFCURVE",
"717 786 OFFCURVE",
"717 818 CURVE SMOOTH",
"717 850 OFFCURVE",
"691 873 OFFCURVE",
"662 873 CURVE SMOOTH",
"632 873 OFFCURVE",
"607 850 OFFCURVE",
"607 818 CURVE SMOOTH",
"607 786 OFFCURVE",
"632 763 OFFCURVE",
"662 763 CURVE SMOOTH"
);
}
);
width = 1110;
}
);
note = Wdieresis;
unicode = 1E84;
},
{
glyphname = Wgrave;
lastChange = "2015-07-16 17:52:31 +0000";
layers = (
{
components = (
{
name = W;
}
);
layerId = "F0FBE068-24F2-4D1F-B3A2-D9A3CAFE6F9A";
name = Regular;
paths = (
{
closed = 1;
nodes = (
"613 789 LINE",
"519 946 LINE",
"446 899 LINE",
"558 753 LINE"
);
}
);
width = 1110;
}
);
note = Wgrave;
unicode = 1E80;
},
{
glyphname = X;
lastChange = "2015-07-16 17:52:31 +0000";
layers = (
{
layerId = "F0FBE068-24F2-4D1F-B3A2-D9A3CAFE6F9A";
name = Regular;
paths = (
{
closed = 1;
nodes = (
"239 0 LINE SMOOTH",
"250 0 OFFCURVE",
"253 7 OFFCURVE",
"253 15 CURVE SMOOTH",
"253 29 OFFCURVE",
"243 39 OFFCURVE",
"225 44 CURVE SMOOTH",
"168 60 LINE",
"341 308 LINE",
"511 60 LINE",
"473 60 LINE SMOOTH",
"445 60 OFFCURVE",
"428 48 OFFCURVE",
"428 25 CURVE SMOOTH",
"428 10 OFFCURVE",
"435 0 OFFCURVE",
"448 0 CURVE SMOOTH",
"696 0 LINE SMOOTH",
"706 0 OFFCURVE",
"710 6 OFFCURVE",
"710 15 CURVE SMOOTH",
"710 32 OFFCURVE",
"697 43 OFFCURVE",
"673 48 CURVE SMOOTH",
"636 56 LINE",
"420 370 LINE",
"608 635 LINE",
"657 651 LINE SMOOTH",
"675 657 OFFCURVE",
"686 666 OFFCURVE",
"686 680 CURVE SMOOTH",
"686 688 OFFCURVE",
"682 695 OFFCURVE",
"672 695 CURVE SMOOTH",
"500 695 LINE SMOOTH",
"472 695 OFFCURVE",
"455 683 OFFCURVE",
"455 661 CURVE SMOOTH",
"455 645 OFFCURVE",
"462 635 OFFCURVE",
"475 635 CURVE SMOOTH",
"527 635 LINE",
"371 416 LINE",
"220 639 LINE",
"264 647 LINE SMOOTH",
"288 651 OFFCURVE",
"301 663 OFFCURVE",
"301 680 CURVE SMOOTH",
"301 689 OFFCURVE",
"297 695 OFFCURVE",
"288 695 CURVE SMOOTH",
"80 695 LINE SMOOTH",
"53 695 OFFCURVE",
"35 683 OFFCURVE",
"35 661 CURVE SMOOTH",
"35 645 OFFCURVE",
"42 635 OFFCURVE",
"55 635 CURVE SMOOTH",
"102 635 LINE",
"292 354 LINE",
"88 60 LINE",
"57 60 LINE SMOOTH",
"30 60 OFFCURVE",
"12 48 OFFCURVE",
"12 25 CURVE SMOOTH",
"12 10 OFFCURVE",
"19 0 OFFCURVE",
"32 0 CURVE SMOOTH"
);
}
);
width = 721;
}
);
note = X;
unicode = 0058;
},
{
glyphname = Y;
lastChange = "2015-07-16 17:52:31 +0000";
layers = (
{
layerId = "F0FBE068-24F2-4D1F-B3A2-D9A3CAFE6F9A";
name = Regular;
paths = (
{
closed = 1;
nodes = (
"461 0 LINE SMOOTH",
"472 0 OFFCURVE",
"475 6 OFFCURVE",
"475 15 CURVE SMOOTH",
"475 30 OFFCURVE",
"466 40 OFFCURVE",
"443 46 CURVE SMOOTH",
"396 59 LINE",
"396 304 LINE",
"618 635 LINE",
"668 651 LINE SMOOTH",
"685 657 OFFCURVE",
"696 666 OFFCURVE",
"696 680 CURVE SMOOTH",
"696 688 OFFCURVE",
"693 695 OFFCURVE",
"682 695 CURVE SMOOTH",
"510 695 LINE SMOOTH",
"483 695 OFFCURVE",
"466 683 OFFCURVE",
"466 661 CURVE SMOOTH",
"466 645 OFFCURVE",
"473 635 OFFCURVE",
"486 635 CURVE SMOOTH",
"539 635 LINE",
"363 373 LINE",
"196 636 LINE",
"249 647 LINE SMOOTH",
"270 651 OFFCURVE",
"282 661 OFFCURVE",
"282 679 CURVE SMOOTH",
"282 688 OFFCURVE",
"278 695 OFFCURVE",
"268 695 CURVE SMOOTH",
"54 695 LINE SMOOTH",
"27 695 OFFCURVE",
"9 683 OFFCURVE",
"9 661 CURVE SMOOTH",
"9 645 OFFCURVE",
"16 635 OFFCURVE",
"29 635 CURVE SMOOTH",
"76 635 LINE",
"296 291 LINE",
"296 60 LINE",
"271 60 LINE SMOOTH",
"244 60 OFFCURVE",
"226 48 OFFCURVE",
"226 25 CURVE SMOOTH",
"226 10 OFFCURVE",
"233 0 OFFCURVE",
"246 0 CURVE SMOOTH"
);
}
);
width = 705;
}
);
note = Y;
unicode = 0059;
},
{
glyphname = Yacute;
lastChange = "2015-07-16 17:52:31 +0000";
layers = (
{
components = (
{
name = Y;
}
);
layerId = "F0FBE068-24F2-4D1F-B3A2-D9A3CAFE6F9A";
name = Regular;
paths = (
{
closed = 1;
nodes = (
"451 899 LINE",
"378 946 LINE",
"284 789 LINE",
"339 753 LINE"
);
}
);
width = 705;
}
);
note = Yacute;
unicode = 00DD;
},
{
glyphname = Ycircumflex;
lastChange = "2015-07-16 17:52:31 +0000";
layers = (
{
components = (
{
name = Y;
}
);
layerId = "F0FBE068-24F2-4D1F-B3A2-D9A3CAFE6F9A";
name = Regular;
paths = (
{
closed = 1;
nodes = (
"351 854 LINE",
"444 752 LINE",
"488 789 LINE",
"376 932 LINE",
"327 932 LINE",
"215 789 LINE",
"259 752 LINE"
);
}
);
width = 705;
}
);
note = Ycircumflex;
unicode = 0176;
},
{
glyphname = Ydieresis;
lastChange = "2015-07-16 17:52:31 +0000";
layers = (
{
components = (
{
name = Y;
}
);
layerId = "F0FBE068-24F2-4D1F-B3A2-D9A3CAFE6F9A";
name = Regular;
paths = (
{
closed = 1;
nodes = (
"278 763 OFFCURVE",
"304 786 OFFCURVE",
"304 818 CURVE SMOOTH",
"304 850 OFFCURVE",
"278 873 OFFCURVE",
"249 873 CURVE SMOOTH",
"219 873 OFFCURVE",
"194 850 OFFCURVE",
"194 818 CURVE SMOOTH",
"194 786 OFFCURVE",
"219 763 OFFCURVE",
"249 763 CURVE SMOOTH"
);
},
{
closed = 1;
nodes = (
"475 763 OFFCURVE",
"501 786 OFFCURVE",
"501 818 CURVE SMOOTH",
"501 850 OFFCURVE",
"475 873 OFFCURVE",
"446 873 CURVE SMOOTH",
"416 873 OFFCURVE",
"391 850 OFFCURVE",
"391 818 CURVE SMOOTH",
"391 786 OFFCURVE",
"416 763 OFFCURVE",
"446 763 CURVE SMOOTH"
);
}
);
width = 705;
}
);
note = Ydieresis;
unicode = 0178;
},
{
glyphname = Ydotaccent;
lastChange = "2015-07-16 17:52:31 +0000";
layers = (
{
components = (
{
name = Y;
}
);
layerId = "F0FBE068-24F2-4D1F-B3A2-D9A3CAFE6F9A";
name = Regular;
paths = (
{
closed = 1;
nodes = (
"393 769 OFFCURVE",
"417 793 OFFCURVE",
"417 824 CURVE SMOOTH",
"417 856 OFFCURVE",
"393 880 OFFCURVE",
"362 880 CURVE SMOOTH",
"332 880 OFFCURVE",
"307 856 OFFCURVE",
"307 824 CURVE SMOOTH",
"307 793 OFFCURVE",
"332 769 OFFCURVE",
"362 769 CURVE SMOOTH"
);
}
);
width = 705;
}
);
note = Ydotaccent;
unicode = 1E8E;
},
{
glyphname = Ydotbelow;
lastChange = "2015-07-16 17:52:31 +0000";
layers = (
{
components = (
{
name = Y;
}
);
layerId = "F0FBE068-24F2-4D1F-B3A2-D9A3CAFE6F9A";
name = Regular;
paths = (
{
closed = 1;
nodes = (
"377 -177 OFFCURVE",
"401 -153 OFFCURVE",
"401 -121 CURVE SMOOTH",
"401 -89 OFFCURVE",
"377 -66 OFFCURVE",
"346 -66 CURVE SMOOTH",
"316 -66 OFFCURVE",
"291 -89 OFFCURVE",
"291 -121 CURVE SMOOTH",
"291 -153 OFFCURVE",
"316 -177 OFFCURVE",
"346 -177 CURVE SMOOTH"
);
}
);
width = 705;
}
);
note = Ydotbelow;
unicode = 1EF4;
},
{
glyphname = Ygrave;
lastChange = "2015-07-16 17:52:31 +0000";
layers = (
{
components = (
{
name = Y;
}
);
layerId = "F0FBE068-24F2-4D1F-B3A2-D9A3CAFE6F9A";
name = Regular;
paths = (
{
closed = 1;
nodes = (
"400 789 LINE",
"306 946 LINE",
"233 899 LINE",
"345 753 LINE"
);
}
);
width = 705;
}
);
note = Ygrave;
unicode = 1EF2;
},
{
glyphname = Yhookabove;
lastChange = "2015-07-16 17:52:31 +0000";
layers = (
{
components = (
{
name = Y;
}
);
layerId = "F0FBE068-24F2-4D1F-B3A2-D9A3CAFE6F9A";
name = Regular;
paths = (
{
closed = 1;
nodes = (
"378 750 LINE",
"384 796 LINE",
"423 810 OFFCURVE",
"447 837 OFFCURVE",
"447 871 CURVE SMOOTH",
"447 912 OFFCURVE",
"411 943 OFFCURVE",
"358 943 CURVE SMOOTH",
"335 943 OFFCURVE",
"307 935 OFFCURVE",
"291 928 CURVE",
"298 890 LINE",
"315 895 OFFCURVE",
"332 899 OFFCURVE",
"349 899 CURVE SMOOTH",
"371 899 OFFCURVE",
"382 889 OFFCURVE",
"382 870 CURVE SMOOTH",
"382 847 OFFCURVE",
"361 831 OFFCURVE",
"326 819 CURVE",
"332 750 LINE"
);
}
);
width = 705;
}
);
note = Yhookabove;
unicode = 1EF6;
},
{
glyphname = Ytilde;
lastChange = "2015-07-16 17:52:31 +0000";
layers = (
{
components = (
{
name = Y;
}
);
layerId = "F0FBE068-24F2-4D1F-B3A2-D9A3CAFE6F9A";
name = Regular;
paths = (
{
closed = 1;
nodes = (
"445 763 OFFCURVE",
"480 782 OFFCURVE",
"509 810 CURVE",
"475 856 LINE",
"455 841 OFFCURVE",
"435 831 OFFCURVE",
"412 831 CURVE SMOOTH",
"374 831 OFFCURVE",
"336 868 OFFCURVE",
"294 868 CURVE SMOOTH",
"262 868 OFFCURVE",
"224 846 OFFCURVE",
"195 820 CURVE",
"228 774 LINE",
"249 789 OFFCURVE",
"268 800 OFFCURVE",
"293 800 CURVE SMOOTH",
"335 800 OFFCURVE",
"368 763 OFFCURVE",
"413 763 CURVE SMOOTH"
);
}
);
width = 705;
}
);
note = Ytilde;
unicode = 1EF8;
},
{
glyphname = Z;
lastChange = "2015-07-16 17:52:31 +0000";
layers = (
{
layerId = "F0FBE068-24F2-4D1F-B3A2-D9A3CAFE6F9A";
name = Regular;
paths = (
{
closed = 1;
nodes = (
"583 0 LINE",
"583 146 LINE SMOOTH",
"583 159 OFFCURVE",
"574 164 OFFCURVE",
"563 164 CURVE SMOOTH",
"545 164 OFFCURVE",
"537 148 OFFCURVE",
"531 120 CURVE SMOOTH",
"519 66 LINE",
"168 66 LINE",
"578 627 LINE",
"578 695 LINE",
"62 695 LINE",
"62 549 LINE SMOOTH",
"62 536 OFFCURVE",
"72 531 OFFCURVE",
"82 531 CURVE SMOOTH",
"100 531 OFFCURVE",
"109 547 OFFCURVE",
"115 575 CURVE SMOOTH",
"126 629 LINE",
"456 629 LINE",
"46 68 LINE",
"46 0 LINE"
);
}
);
width = 632;
}
);
note = Z;
unicode = 005A;
},
{
glyphname = Zacute;
lastChange = "2015-07-16 17:52:31 +0000";
layers = (
{
components = (
{
name = Z;
}
);
layerId = "F0FBE068-24F2-4D1F-B3A2-D9A3CAFE6F9A";
name = Regular;
paths = (
{
closed = 1;
nodes = (
"417 898 LINE",
"344 945 LINE",
"250 788 LINE",
"305 752 LINE"
);
}
);
width = 632;
}
);
note = Zacute;
unicode = 0179;
},
{
glyphname = Zcaron;
lastChange = "2015-07-16 17:52:31 +0000";
layers = (
{
components = (
{
name = Z;
}
);
layerId = "F0FBE068-24F2-4D1F-B3A2-D9A3CAFE6F9A";
name = Regular;
paths = (
{
closed = 1;
nodes = (
"349 752 LINE",
"461 895 LINE",
"417 932 LINE",
"324 830 LINE",
"232 932 LINE",
"188 895 LINE",
"300 752 LINE"
);
}
);
width = 632;
}
);
note = Zcaron;
unicode = 017D;
},
{
glyphname = Zdotaccent;
lastChange = "2015-07-16 17:52:31 +0000";
layers = (
{
components = (
{
name = Z;
}
);
layerId = "F0FBE068-24F2-4D1F-B3A2-D9A3CAFE6F9A";
name = Regular;
paths = (
{
closed = 1;
nodes = (
"354 769 OFFCURVE",
"378 793 OFFCURVE",
"378 824 CURVE SMOOTH",
"378 856 OFFCURVE",
"354 880 OFFCURVE",
"323 880 CURVE SMOOTH",
"293 880 OFFCURVE",
"268 856 OFFCURVE",
"268 824 CURVE SMOOTH",
"268 793 OFFCURVE",
"293 769 OFFCURVE",
"323 769 CURVE SMOOTH"
);
}
);
width = 632;
}
);
note = Zdotaccent;
unicode = 017B;
},
{
glyphname = Zdotbelow;
lastChange = "2015-07-16 17:52:31 +0000";
layers = (
{
components = (
{
name = Z;
}
);
layerId = "F0FBE068-24F2-4D1F-B3A2-D9A3CAFE6F9A";
name = Regular;
paths = (
{
closed = 1;
nodes = (
"352 -177 OFFCURVE",
"376 -153 OFFCURVE",
"376 -121 CURVE SMOOTH",
"376 -89 OFFCURVE",
"352 -66 OFFCURVE",
"321 -66 CURVE SMOOTH",
"291 -66 OFFCURVE",
"266 -89 OFFCURVE",
"266 -121 CURVE SMOOTH",
"266 -153 OFFCURVE",
"291 -177 OFFCURVE",
"321 -177 CURVE SMOOTH"
);
}
);
width = 632;
}
);
note = Zdotbelow;
unicode = 1E92;
},
{
glyphname = a;
lastChange = "2015-07-16 17:52:31 +0000";
layers = (
{
layerId = "F0FBE068-24F2-4D1F-B3A2-D9A3CAFE6F9A";
name = Regular;
paths = (
{
closed = 1;
nodes = (
"266 -13 OFFCURVE",
"323 19 OFFCURVE",
"357 63 CURVE",
"361 63 LINE",
"361 0 LINE",
"506 0 LINE SMOOTH",
"516 0 OFFCURVE",
"519 6 OFFCURVE",
"519 14 CURVE SMOOTH",
"519 29 OFFCURVE",
"509 36 OFFCURVE",
"488 43 CURVE SMOOTH",
"453 54 LINE",
"453 338 LINE SMOOTH",
"453 445 OFFCURVE",
"372 500 OFFCURVE",
"267 500 CURVE SMOOTH",
"198 500 OFFCURVE",
"121 475 OFFCURVE",
"69 444 CURVE",
"69 346 LINE SMOOTH",
"69 337 OFFCURVE",
"75 330 OFFCURVE",
"87 330 CURVE SMOOTH",
"104 330 OFFCURVE",
"113 342 OFFCURVE",
"118 363 CURVE SMOOTH",
"128 406 LINE",
"157 424 OFFCURVE",
"212 440 OFFCURVE",
"252 440 CURVE SMOOTH",
"320 440 OFFCURVE",
"359 400 OFFCURVE",
"359 340 CURVE SMOOTH",
"359 300 LINE",
"228 280 LINE SMOOTH",
"136 266 OFFCURVE",
"41 232 OFFCURVE",
"41 125 CURVE SMOOTH",
"41 32 OFFCURVE",
"116 -13 OFFCURVE",
"195 -13 CURVE SMOOTH"
);
},
{
closed = 1;
nodes = (
"172 49 OFFCURVE",
"135 77 OFFCURVE",
"135 130 CURVE SMOOTH",
"135 188 OFFCURVE",
"181 214 OFFCURVE",
"247 225 CURVE SMOOTH",
"359 243 LINE",
"359 169 LINE SMOOTH",
"359 103 OFFCURVE",
"293 49 OFFCURVE",
"224 49 CURVE SMOOTH"
);
}
);
width = 537;
}
);
note = a;
unicode = 0061;
},
{
glyphname = aacute;
lastChange = "2015-07-16 17:52:31 +0000";
layers = (
{
components = (
{
name = a;
}
);
layerId = "F0FBE068-24F2-4D1F-B3A2-D9A3CAFE6F9A";
name = Regular;
paths = (
{
closed = 1;
nodes = (
"361 706 LINE",
"288 753 LINE",
"194 596 LINE",
"249 560 LINE"
);
}
);
width = 537;
}
);
note = aacute;
unicode = 00E1;
},
{
glyphname = abreve;
lastChange = "2015-07-16 17:52:31 +0000";
layers = (
{
components = (
{
name = a;
}
);
layerId = "F0FBE068-24F2-4D1F-B3A2-D9A3CAFE6F9A";
name = Regular;
paths = (
{
closed = 1;
nodes = (
"332 550 OFFCURVE",
"394 585 OFFCURVE",
"420 677 CURVE",
"365 696 LINE",
"350 647 OFFCURVE",
"315 616 OFFCURVE",
"265 616 CURVE SMOOTH",
"216 616 OFFCURVE",
"181 647 OFFCURVE",
"165 696 CURVE",
"111 677 LINE",
"137 585 OFFCURVE",
"199 550 OFFCURVE",
"265 550 CURVE SMOOTH"
);
}
);
width = 537;
}
);
note = abreve;
unicode = 0103;
},
{
glyphname = abreveacute;
lastChange = "2015-07-16 17:52:31 +0000";
layers = (
{
components = (
{
name = a;
}
);
layerId = "F0FBE068-24F2-4D1F-B3A2-D9A3CAFE6F9A";
name = Regular;
paths = (
{
closed = 1;
nodes = (
"330 550 OFFCURVE",
"392 585 OFFCURVE",
"418 677 CURVE",
"363 696 LINE",
"348 647 OFFCURVE",
"313 616 OFFCURVE",
"263 616 CURVE SMOOTH",
"214 616 OFFCURVE",
"179 647 OFFCURVE",
"163 696 CURVE",
"109 677 LINE",
"135 585 OFFCURVE",
"197 550 OFFCURVE",
"263 550 CURVE SMOOTH"
);
},
{
closed = 1;
nodes = (
"374 814 LINE",
"306 857 LINE",
"224 715 LINE",
"274 683 LINE"
);
}
);
width = 537;
}
);
note = abreveacute;
unicode = 1EAF;
},
{
glyphname = abrevedotbelow;
lastChange = "2015-07-16 17:52:31 +0000";
layers = (
{
components = (
{
name = a;
}
);
layerId = "F0FBE068-24F2-4D1F-B3A2-D9A3CAFE6F9A";
name = Regular;
paths = (
{
closed = 1;
nodes = (
"303 -177 OFFCURVE",
"327 -153 OFFCURVE",
"327 -121 CURVE SMOOTH",
"327 -89 OFFCURVE",
"303 -66 OFFCURVE",
"272 -66 CURVE SMOOTH",
"242 -66 OFFCURVE",
"217 -89 OFFCURVE",
"217 -121 CURVE SMOOTH",
"217 -153 OFFCURVE",
"242 -177 OFFCURVE",
"272 -177 CURVE SMOOTH"
);
},
{
closed = 1;
nodes = (
"328 550 OFFCURVE",
"390 585 OFFCURVE",
"416 677 CURVE",
"361 696 LINE",
"346 647 OFFCURVE",
"311 616 OFFCURVE",
"261 616 CURVE SMOOTH",
"212 616 OFFCURVE",
"177 647 OFFCURVE",
"161 696 CURVE",
"107 677 LINE",
"133 585 OFFCURVE",
"195 550 OFFCURVE",
"261 550 CURVE SMOOTH"
);
}
);
width = 537;
}
);
note = abrevedotbelow;
unicode = 1EB7;
},
{
glyphname = abrevegrave;
lastChange = "2015-07-16 17:52:31 +0000";
layers = (
{
components = (
{
name = a;
}
);
layerId = "F0FBE068-24F2-4D1F-B3A2-D9A3CAFE6F9A";
name = Regular;
paths = (
{
closed = 1;
nodes = (
"330 550 OFFCURVE",
"392 585 OFFCURVE",
"418 677 CURVE",
"363 696 LINE",
"348 647 OFFCURVE",
"313 616 OFFCURVE",
"263 616 CURVE SMOOTH",
"214 616 OFFCURVE",
"179 647 OFFCURVE",
"163 696 CURVE",
"109 677 LINE",
"135 585 OFFCURVE",
"197 550 OFFCURVE",
"263 550 CURVE SMOOTH"
);
},
{
closed = 1;
nodes = (
"302 715 LINE",
"220 857 LINE",
"152 814 LINE",
"252 683 LINE"
);
}
);
width = 537;
}
);
note = abrevegrave;
unicode = 1EB1;
},
{
glyphname = abrevehookabove;
lastChange = "2015-07-16 17:52:32 +0000";
layers = (
{
components = (
{
name = a;
}
);
layerId = "F0FBE068-24F2-4D1F-B3A2-D9A3CAFE6F9A";
name = Regular;
paths = (
{
closed = 1;
nodes = (
"330 550 OFFCURVE",
"392 585 OFFCURVE",
"418 677 CURVE",
"363 696 LINE",
"348 647 OFFCURVE",
"313 616 OFFCURVE",
"263 616 CURVE SMOOTH",
"214 616 OFFCURVE",
"179 647 OFFCURVE",
"163 696 CURVE",
"109 677 LINE",
"135 585 OFFCURVE",
"197 550 OFFCURVE",
"263 550 CURVE SMOOTH"
);
},
{
closed = 1;
nodes = (
"285 683 LINE",
"291 728 LINE",
"328 742 OFFCURVE",
"351 767 OFFCURVE",
"351 801 CURVE SMOOTH",
"351 841 OFFCURVE",
"317 871 OFFCURVE",
"265 871 CURVE SMOOTH",
"243 871 OFFCURVE",
"216 863 OFFCURVE",
"200 857 CURVE",
"207 819 LINE",
"224 824 OFFCURVE",
"239 828 OFFCURVE",
"256 828 CURVE SMOOTH",
"277 828 OFFCURVE",
"288 818 OFFCURVE",
"288 800 CURVE SMOOTH",
"288 777 OFFCURVE",
"268 762 OFFCURVE",
"234 750 CURVE",
"239 683 LINE"
);
}
);
width = 537;
}
);
note = abrevehookabove;
unicode = 1EB3;
},
{
glyphname = abrevetilde;
lastChange = "2015-07-16 17:52:31 +0000";
layers = (
{
components = (
{
name = a;
}
);
layerId = "F0FBE068-24F2-4D1F-B3A2-D9A3CAFE6F9A";
name = Regular;
paths = (
{
closed = 1;
nodes = (
"331 550 OFFCURVE",
"393 585 OFFCURVE",
"419 677 CURVE",
"364 696 LINE",
"349 647 OFFCURVE",
"314 616 OFFCURVE",
"264 616 CURVE SMOOTH",
"215 616 OFFCURVE",
"180 647 OFFCURVE",
"164 696 CURVE",
"110 677 LINE",
"136 585 OFFCURVE",
"198 550 OFFCURVE",
"264 550 CURVE SMOOTH"
);
},
{
closed = 1;
nodes = (
"338 732 OFFCURVE",
"365 747 OFFCURVE",
"388 770 CURVE",
"361 811 LINE",
"346 799 OFFCURVE",
"330 791 OFFCURVE",
"312 791 CURVE SMOOTH",
"282 791 OFFCURVE",
"252 820 OFFCURVE",
"219 820 CURVE SMOOTH",
"195 820 OFFCURVE",
"165 803 OFFCURVE",
"142 783 CURVE",
"169 741 LINE",
"184 753 OFFCURVE",
"199 762 OFFCURVE",
"219 762 CURVE SMOOTH",
"252 762 OFFCURVE",
"277 732 OFFCURVE",
"313 732 CURVE SMOOTH"
);
}
);
width = 537;
}
);
note = abrevetilde;
unicode = 1EB5;
},
{
glyphname = acaron;
lastChange = "2015-07-16 17:52:31 +0000";
layers = (
{
components = (
{
name = a;
}
);
layerId = "F0FBE068-24F2-4D1F-B3A2-D9A3CAFE6F9A";
name = Regular;
paths = (
{
closed = 1;
nodes = (
"290 560 LINE",
"402 703 LINE",
"358 740 LINE",
"265 638 LINE",
"173 740 LINE",
"129 703 LINE",
"241 560 LINE"
);
}
);
width = 537;
}
);
note = acaron;
unicode = 01CE;
},
{
glyphname = acircumflex;
lastChange = "2015-07-16 17:52:31 +0000";
layers = (
{
components = (
{
name = a;
}
);
layerId = "F0FBE068-24F2-4D1F-B3A2-D9A3CAFE6F9A";
name = Regular;
paths = (
{
closed = 1;
nodes = (
"261 662 LINE",
"354 560 LINE",
"398 597 LINE",
"286 740 LINE",
"237 740 LINE",
"125 597 LINE",
"169 560 LINE"
);
}
);
width = 537;
}
);
note = acircumflex;
unicode = 00E2;
},
{
glyphname = acircumflexacute;
lastChange = "2015-07-16 17:52:32 +0000";
layers = (
{
components = (
{
name = a;
}
);
layerId = "F0FBE068-24F2-4D1F-B3A2-D9A3CAFE6F9A";
name = Regular;
paths = (
{
closed = 1;
nodes = (
"260 662 LINE",
"353 560 LINE",
"397 597 LINE",
"285 740 LINE",
"236 740 LINE",
"124 597 LINE",
"168 560 LINE"
);
},
{
closed = 1;
nodes = (
"489 771 LINE",
"424 813 LINE",
"359 698 LINE",
"403 669 LINE"
);
}
);
width = 537;
}
);
note = acircumflexacute;
unicode = 1EA5;
},
{
glyphname = acircumflexdotbelow;
lastChange = "2015-07-16 17:52:31 +0000";
layers = (
{
components = (
{
name = a;
}
);
layerId = "F0FBE068-24F2-4D1F-B3A2-D9A3CAFE6F9A";
name = Regular;
paths = (
{
closed = 1;
nodes = (
"298 -177 OFFCURVE",
"322 -153 OFFCURVE",
"322 -121 CURVE SMOOTH",
"322 -89 OFFCURVE",
"298 -66 OFFCURVE",
"267 -66 CURVE SMOOTH",
"237 -66 OFFCURVE",
"212 -89 OFFCURVE",
"212 -121 CURVE SMOOTH",
"212 -153 OFFCURVE",
"237 -177 OFFCURVE",
"267 -177 CURVE SMOOTH"
);
},
{
closed = 1;
nodes = (
"261 662 LINE",
"354 560 LINE",
"398 597 LINE",
"286 740 LINE",
"237 740 LINE",
"125 597 LINE",
"169 560 LINE"
);
}
);
width = 537;
}
);
note = acircumflexdotbelow;
unicode = 1EAD;
},
{
glyphname = acircumflexgrave;
lastChange = "2015-07-16 17:52:31 +0000";
layers = (
{
components = (
{
name = a;
transform = "{1, 0, 0, 1, 20, 0}";
}
);
layerId = "F0FBE068-24F2-4D1F-B3A2-D9A3CAFE6F9A";
name = Regular;
paths = (
{
closed = 1;
nodes = (
"185 698 LINE",
"120 813 LINE",
"55 771 LINE",
"141 669 LINE"
);
},
{
closed = 1;
nodes = (
"283 662 LINE",
"376 560 LINE",
"420 597 LINE",
"308 740 LINE",
"259 740 LINE",
"147 597 LINE",
"191 560 LINE"
);
}
);
width = 557;
}
);
note = acircumflexgrave;
unicode = 1EA7;
},
{
glyphname = acircumflexhookabove;
lastChange = "2015-07-16 17:52:31 +0000";
layers = (
{
components = (
{
name = a;
}
);
layerId = "F0FBE068-24F2-4D1F-B3A2-D9A3CAFE6F9A";
name = Regular;
paths = (
{
closed = 1;
nodes = (
"266 662 LINE",
"359 560 LINE",
"403 597 LINE",
"291 740 LINE",
"242 740 LINE",
"130 597 LINE",
"174 560 LINE"
);
},
{
closed = 1;
nodes = (
"444 665 LINE",
"450 710 LINE",
"487 724 OFFCURVE",
"510 749 OFFCURVE",
"510 782 CURVE SMOOTH",
"510 823 OFFCURVE",
"476 852 OFFCURVE",
"424 852 CURVE SMOOTH",
"402 852 OFFCURVE",
"375 845 OFFCURVE",
"359 838 CURVE",
"366 801 LINE",
"383 806 OFFCURVE",
"398 810 OFFCURVE",
"415 810 CURVE SMOOTH",
"436 810 OFFCURVE",
"447 800 OFFCURVE",
"447 782 CURVE SMOOTH",
"447 759 OFFCURVE",
"427 744 OFFCURVE",
"393 732 CURVE",
"398 665 LINE"
);
}
);
width = 550;
}
);
note = acircumflexhookabove;
unicode = 1EA9;
},
{
glyphname = acircumflextilde;
lastChange = "2015-07-16 17:52:31 +0000";
layers = (
{
components = (
{
name = a;
}
);
layerId = "F0FBE068-24F2-4D1F-B3A2-D9A3CAFE6F9A";
name = Regular;
paths = (
{
closed = 1;
nodes = (
"266 662 LINE",
"359 560 LINE",
"403 597 LINE",
"291 740 LINE",
"242 740 LINE",
"130 597 LINE",
"174 560 LINE"
);
},
{
closed = 1;
nodes = (
"341 770 OFFCURVE",
"368 785 OFFCURVE",
"391 808 CURVE",
"364 848 LINE",
"349 836 OFFCURVE",
"333 829 OFFCURVE",
"315 829 CURVE SMOOTH",
"285 829 OFFCURVE",
"255 858 OFFCURVE",
"222 858 CURVE SMOOTH",
"198 858 OFFCURVE",
"168 841 OFFCURVE",
"145 821 CURVE",
"172 779 LINE",
"187 790 OFFCURVE",
"202 800 OFFCURVE",
"222 800 CURVE SMOOTH",
"255 800 OFFCURVE",
"280 770 OFFCURVE",
"316 770 CURVE SMOOTH"
);
}
);
width = 537;
}
);
note = acircumflextilde;
unicode = 1EAB;
},
{
glyphname = adieresis;
lastChange = "2015-07-16 17:52:31 +0000";
layers = (
{
components = (
{
name = a;
}
);
layerId = "F0FBE068-24F2-4D1F-B3A2-D9A3CAFE6F9A";
name = Regular;
paths = (
{
closed = 1;
nodes = (
"200 565 OFFCURVE",
"226 588 OFFCURVE",
"226 620 CURVE SMOOTH",
"226 652 OFFCURVE",
"200 675 OFFCURVE",
"171 675 CURVE SMOOTH",
"141 675 OFFCURVE",
"116 652 OFFCURVE",
"116 620 CURVE SMOOTH",
"116 588 OFFCURVE",
"141 565 OFFCURVE",
"171 565 CURVE SMOOTH"
);
},
{
closed = 1;
nodes = (
"397 565 OFFCURVE",
"423 588 OFFCURVE",
"423 620 CURVE SMOOTH",
"423 652 OFFCURVE",
"397 675 OFFCURVE",
"368 675 CURVE SMOOTH",
"338 675 OFFCURVE",
"313 652 OFFCURVE",
"313 620 CURVE SMOOTH",
"313 588 OFFCURVE",
"338 565 OFFCURVE",
"368 565 CURVE SMOOTH"
);
}
);
width = 537;
}
);
note = adieresis;
unicode = 00E4;
},
{
glyphname = adotbelow;
lastChange = "2015-07-16 17:52:31 +0000";
layers = (
{
components = (
{
name = a;
}
);
layerId = "F0FBE068-24F2-4D1F-B3A2-D9A3CAFE6F9A";
name = Regular;
paths = (
{
closed = 1;
nodes = (
"298 -177 OFFCURVE",
"322 -153 OFFCURVE",
"322 -121 CURVE SMOOTH",
"322 -89 OFFCURVE",
"298 -66 OFFCURVE",
"267 -66 CURVE SMOOTH",
"237 -66 OFFCURVE",
"212 -89 OFFCURVE",
"212 -121 CURVE SMOOTH",
"212 -153 OFFCURVE",
"237 -177 OFFCURVE",
"267 -177 CURVE SMOOTH"
);
}
);
width = 537;
}
);
note = adotbelow;
unicode = 1EA1;
},
{
glyphname = agrave;
lastChange = "2015-07-16 17:52:31 +0000";
layers = (
{
components = (
{
name = a;
}
);
layerId = "F0FBE068-24F2-4D1F-B3A2-D9A3CAFE6F9A";
name = Regular;
paths = (
{
closed = 1;
nodes = (
"336 596 LINE",
"242 753 LINE",
"169 706 LINE",
"281 560 LINE"
);
}
);
width = 537;
}
);
note = agrave;
unicode = 00E0;
},
{
glyphname = ahookabove;
lastChange = "2015-07-16 17:52:32 +0000";
layers = (
{
components = (
{
name = a;
}
);
layerId = "F0FBE068-24F2-4D1F-B3A2-D9A3CAFE6F9A";
name = Regular;
paths = (
{
closed = 1;
nodes = (
"292 557 LINE",
"298 603 LINE",
"337 617 OFFCURVE",
"361 644 OFFCURVE",
"361 678 CURVE SMOOTH",
"361 719 OFFCURVE",
"325 750 OFFCURVE",
"272 750 CURVE SMOOTH",
"249 750 OFFCURVE",
"221 742 OFFCURVE",
"205 735 CURVE",
"212 697 LINE",
"229 702 OFFCURVE",
"246 706 OFFCURVE",
"263 706 CURVE SMOOTH",
"285 706 OFFCURVE",
"296 696 OFFCURVE",
"296 677 CURVE SMOOTH",
"296 654 OFFCURVE",
"275 638 OFFCURVE",
"240 626 CURVE",
"246 557 LINE"
);
}
);
width = 537;
}
);
note = ahookabove;
unicode = 1EA3;
},
{
glyphname = amacron;
lastChange = "2015-07-16 17:52:31 +0000";
layers = (
{
components = (
{
name = a;
}
);
layerId = "F0FBE068-24F2-4D1F-B3A2-D9A3CAFE6F9A";
name = Regular;
paths = (
{
closed = 1;
nodes = (
"409 584 LINE",
"409 650 LINE",
"122 650 LINE",
"122 584 LINE"
);
}
);
width = 537;
}
);
note = amacron;
unicode = 0101;
},
{
glyphname = aogonek;
lastChange = "2015-07-16 17:52:31 +0000";
layers = (
{
layerId = "F0FBE068-24F2-4D1F-B3A2-D9A3CAFE6F9A";
name = Regular;
paths = (
{
closed = 1;
nodes = (
"423 -209 OFFCURVE",
"447 -204 OFFCURVE",
"466 -195 CURVE",
"457 -154 LINE",
"445 -158 OFFCURVE",
"432 -161 OFFCURVE",
"416 -161 CURVE SMOOTH",
"378 -161 OFFCURVE",
"354 -140 OFFCURVE",
"354 -105 CURVE SMOOTH",
"354 -61 OFFCURVE",
"389 -18 OFFCURVE",
"428 0 CURVE",
"506 0 LINE SMOOTH",
"516 0 OFFCURVE",
"519 6 OFFCURVE",
"519 14 CURVE SMOOTH",
"519 29 OFFCURVE",
"510 36 OFFCURVE",
"488 43 CURVE SMOOTH",
"453 54 LINE",
"453 338 LINE SMOOTH",
"453 445 OFFCURVE",
"372 500 OFFCURVE",
"267 500 CURVE SMOOTH",
"198 500 OFFCURVE",
"121 475 OFFCURVE",
"69 444 CURVE",
"69 346 LINE SMOOTH",
"69 337 OFFCURVE",
"75 330 OFFCURVE",
"87 330 CURVE SMOOTH",
"104 330 OFFCURVE",
"113 342 OFFCURVE",
"118 363 CURVE SMOOTH",
"128 406 LINE",
"157 424 OFFCURVE",
"212 440 OFFCURVE",
"252 440 CURVE SMOOTH",
"320 440 OFFCURVE",
"359 400 OFFCURVE",
"359 340 CURVE SMOOTH",
"359 300 LINE",
"228 280 LINE SMOOTH",
"136 266 OFFCURVE",
"41 232 OFFCURVE",
"41 125 CURVE SMOOTH",
"41 32 OFFCURVE",
"116 -13 OFFCURVE",
"195 -13 CURVE SMOOTH",
"266 -13 OFFCURVE",
"323 19 OFFCURVE",
"357 63 CURVE",
"361 63 LINE",
"361 0 LINE",
"360 0 LINE",
"316 -24 OFFCURVE",
"287 -65 OFFCURVE",
"287 -108 CURVE SMOOTH",
"287 -172 OFFCURVE",
"336 -209 OFFCURVE",
"403 -209 CURVE SMOOTH"
);
},
{
closed = 1;
nodes = (
"172 49 OFFCURVE",
"135 77 OFFCURVE",
"135 130 CURVE SMOOTH",
"135 188 OFFCURVE",
"181 214 OFFCURVE",
"247 225 CURVE SMOOTH",
"359 243 LINE",
"359 169 LINE SMOOTH",
"359 103 OFFCURVE",
"293 49 OFFCURVE",
"224 49 CURVE SMOOTH"
);
}
);
width = 537;
}
);
note = aogonek;
unicode = 0105;
},
{
glyphname = aring;
lastChange = "2015-07-31 07:37:01 +0000";
layers = (
{
components = (
{
name = a;
}
);
layerId = "F0FBE068-24F2-4D1F-B3A2-D9A3CAFE6F9A";
name = Regular;
paths = (
{
closed = 1;
nodes = (
"335 552 OFFCURVE",
"373 594 OFFCURVE",
"373 645 CURVE SMOOTH",
"373 696 OFFCURVE",
"335 739 OFFCURVE",
"273 739 CURVE SMOOTH",
"212 739 OFFCURVE",
"174 696 OFFCURVE",
"174 645 CURVE SMOOTH",
"174 594 OFFCURVE",
"212 552 OFFCURVE",
"273 552 CURVE SMOOTH"
);
},
{
closed = 1;
nodes = (
"248 600 OFFCURVE",
"228 616 OFFCURVE",
"228 645 CURVE SMOOTH",
"228 675 OFFCURVE",
"248 691 OFFCURVE",
"273 691 CURVE SMOOTH",
"297 691 OFFCURVE",
"317 675 OFFCURVE",
"317 645 CURVE SMOOTH",
"317 616 OFFCURVE",
"297 600 OFFCURVE",
"273 600 CURVE SMOOTH"
);
}
);
width = 537;
}
);
note = aring;
unicode = 00E5;
},
{
glyphname = aringacute;
lastChange = "2015-07-31 07:37:11 +0000";
layers = (
{
components = (
{
name = a;
}
);
layerId = "F0FBE068-24F2-4D1F-B3A2-D9A3CAFE6F9A";
name = Regular;
paths = (
{
closed = 1;
nodes = (
"327 552 OFFCURVE",
"365 595 OFFCURVE",
"365 646 CURVE SMOOTH",
"365 697 OFFCURVE",
"327 740 OFFCURVE",
"265 740 CURVE SMOOTH",
"204 740 OFFCURVE",
"166 697 OFFCURVE",
"166 646 CURVE SMOOTH",
"166 595 OFFCURVE",
"204 552 OFFCURVE",
"265 552 CURVE SMOOTH"
);
},
{
closed = 1;
nodes = (
"241 600 OFFCURVE",
"221 616 OFFCURVE",
"221 646 CURVE SMOOTH",
"221 676 OFFCURVE",
"241 692 OFFCURVE",
"266 692 CURVE SMOOTH",
"290 692 OFFCURVE",
"310 676 OFFCURVE",
"310 646 CURVE SMOOTH",
"310 616 OFFCURVE",
"290 600 OFFCURVE",
"266 600 CURVE SMOOTH"
);
},
{
closed = 1;
nodes = (
"424 905 LINE",
"351 952 LINE",
"257 805 LINE",
"312 769 LINE"
);
}
);
width = 537;
}
);
note = aringacute;
unicode = 01FB;
},
{
glyphname = ascript;
lastChange = "2015-07-16 17:52:31 +0000";
layers = (
{
layerId = "F0FBE068-24F2-4D1F-B3A2-D9A3CAFE6F9A";
name = Regular;
paths = (
{
closed = 1;
nodes = (
"331 -13 OFFCURVE",
"379 19 OFFCURVE",
"408 60 CURVE",
"412 60 LINE",
"412 0 LINE",
"557 0 LINE SMOOTH",
"568 0 OFFCURVE",
"570 6 OFFCURVE",
"570 14 CURVE SMOOTH",
"570 29 OFFCURVE",
"560 35 OFFCURVE",
"539 43 CURVE SMOOTH",
"501 56 LINE",
"501 490 LINE",
"440 490 LINE SMOOTH",
"424 490 OFFCURVE",
"412 483 OFFCURVE",
"409 458 CURVE",
"370 483 OFFCURVE",
"323 500 OFFCURVE",
"269 500 CURVE SMOOTH",
"139 500 OFFCURVE",
"36 402 OFFCURVE",
"36 240 CURVE SMOOTH",
"36 64 OFFCURVE",
"140 -13 OFFCURVE",
"257 -13 CURVE SMOOTH"
);
},
{
closed = 1;
nodes = (
"185 47 OFFCURVE",
"130 115 OFFCURVE",
"130 240 CURVE SMOOTH",
"130 373 OFFCURVE",
"200 440 OFFCURVE",
"286 440 CURVE SMOOTH",
"332 440 OFFCURVE",
"375 423 OFFCURVE",
"407 396 CURVE",
"407 173 LINE SMOOTH",
"407 98 OFFCURVE",
"350 47 OFFCURVE",
"279 47 CURVE SMOOTH"
);
}
);
width = 594;
}
);
note = ascript;
unicode = 0251;
},
{
glyphname = atilde;
lastChange = "2015-07-16 17:52:31 +0000";
layers = (
{
components = (
{
name = a;
}
);
layerId = "F0FBE068-24F2-4D1F-B3A2-D9A3CAFE6F9A";
name = Regular;
paths = (
{
closed = 1;
nodes = (
"355 569 OFFCURVE",
"390 588 OFFCURVE",
"419 616 CURVE",
"385 662 LINE",
"365 647 OFFCURVE",
"345 637 OFFCURVE",
"322 637 CURVE SMOOTH",
"284 637 OFFCURVE",
"246 674 OFFCURVE",
"204 674 CURVE SMOOTH",
"172 674 OFFCURVE",
"134 652 OFFCURVE",
"105 626 CURVE",
"138 580 LINE",
"159 595 OFFCURVE",
"178 606 OFFCURVE",
"203 606 CURVE SMOOTH",
"245 606 OFFCURVE",
"278 569 OFFCURVE",
"323 569 CURVE SMOOTH"
);
}
);
width = 537;
}
);
note = atilde;
unicode = 00E3;
},
{
glyphname = ae;
lastChange = "2015-07-16 17:52:31 +0000";
layers = (
{
layerId = "F0FBE068-24F2-4D1F-B3A2-D9A3CAFE6F9A";
name = Regular;
paths = (
{
closed = 1;
nodes = (
"282 -13 OFFCURVE",
"355 28 OFFCURVE",
"393 97 CURVE",
"435 25 OFFCURVE",
"511 -13 OFFCURVE",
"602 -13 CURVE SMOOTH",
"655 -13 OFFCURVE",
"704 -1 OFFCURVE",
"747 25 CURVE SMOOTH",
"768 38 OFFCURVE",
"781 50 OFFCURVE",
"781 67 CURVE SMOOTH",
"781 84 OFFCURVE",
"770 95 OFFCURVE",
"756 95 CURVE SMOOTH",
"749 95 OFFCURVE",
"743 92 OFFCURVE",
"731 85 CURVE SMOOTH",
"690 60 OFFCURVE",
"656 47 OFFCURVE",
"606 47 CURVE SMOOTH",
"515 47 OFFCURVE",
"451 111 OFFCURVE",
"449 226 CURVE",
"791 226 LINE",
"800 245 OFFCURVE",
"807 271 OFFCURVE",
"807 295 CURVE SMOOTH",
"807 414 OFFCURVE",
"724 500 OFFCURVE",
"592 500 CURVE SMOOTH",
"518 500 OFFCURVE",
"460 466 OFFCURVE",
"422 412 CURVE",
"394 468 OFFCURVE",
"336 500 OFFCURVE",
"267 500 CURVE SMOOTH",
"198 500 OFFCURVE",
"121 475 OFFCURVE",
"69 444 CURVE",
"69 346 LINE SMOOTH",
"69 337 OFFCURVE",
"75 330 OFFCURVE",
"87 330 CURVE SMOOTH",
"104 330 OFFCURVE",
"113 342 OFFCURVE",
"118 363 CURVE SMOOTH",
"128 406 LINE",
"157 424 OFFCURVE",
"212 440 OFFCURVE",
"252 440 CURVE SMOOTH",
"316 440 OFFCURVE",
"359 405 OFFCURVE",
"359 340 CURVE SMOOTH",
"359 295 LINE",
"222 274 LINE SMOOTH",
"133 261 OFFCURVE",
"41 228 OFFCURVE",
"41 123 CURVE SMOOTH",
"41 32 OFFCURVE",
"116 -13 OFFCURVE",
"195 -13 CURVE SMOOTH"
);
},
{
closed = 1;
nodes = (
"172 49 OFFCURVE",
"135 77 OFFCURVE",
"135 127 CURVE SMOOTH",
"135 185 OFFCURVE",
"181 210 OFFCURVE",
"241 220 CURVE SMOOTH",
"355 238 LINE",
"354 230 OFFCURVE",
"355 222 OFFCURVE",
"355 214 CURVE",
"356 199 OFFCURVE",
"358 191 OFFCURVE",
"360 175 CURVE",
"360 110 OFFCURVE",
"293 49 OFFCURVE",
"224 49 CURVE SMOOTH"
);
},
{
closed = 1;
nodes = (
"456 387 OFFCURVE",
"513 440 OFFCURVE",
"590 440 CURVE SMOOTH",
"665 440 OFFCURVE",
"713 390 OFFCURVE",
"713 314 CURVE SMOOTH",
"713 305 OFFCURVE",
"711 293 OFFCURVE",
"708 285 CURVE",
"449 285 LINE"
);
}
);
width = 842;
}
);
note = ae;
unicode = 00E6;
},
{
glyphname = aeacute;
lastChange = "2015-07-16 17:52:31 +0000";
layers = (
{
layerId = "F0FBE068-24F2-4D1F-B3A2-D9A3CAFE6F9A";
name = Regular;
paths = (
{
closed = 1;
nodes = (
"282 -13 OFFCURVE",
"355 28 OFFCURVE",
"393 97 CURVE",
"435 25 OFFCURVE",
"511 -13 OFFCURVE",
"602 -13 CURVE SMOOTH",
"655 -13 OFFCURVE",
"704 -1 OFFCURVE",
"747 25 CURVE SMOOTH",
"768 38 OFFCURVE",
"781 50 OFFCURVE",
"781 67 CURVE SMOOTH",
"781 84 OFFCURVE",
"770 95 OFFCURVE",
"756 95 CURVE SMOOTH",
"749 95 OFFCURVE",
"743 94 OFFCURVE",
"731 85 CURVE SMOOTH",
"691 57 OFFCURVE",
"656 47 OFFCURVE",
"606 47 CURVE SMOOTH",
"515 47 OFFCURVE",
"451 111 OFFCURVE",
"449 226 CURVE",
"791 226 LINE",
"800 245 OFFCURVE",
"807 271 OFFCURVE",
"807 295 CURVE SMOOTH",
"807 414 OFFCURVE",
"724 500 OFFCURVE",
"592 500 CURVE SMOOTH",
"518 500 OFFCURVE",
"460 466 OFFCURVE",
"422 412 CURVE",
"394 468 OFFCURVE",
"336 500 OFFCURVE",
"267 500 CURVE SMOOTH",
"198 500 OFFCURVE",
"121 475 OFFCURVE",
"69 444 CURVE",
"69 346 LINE SMOOTH",
"69 337 OFFCURVE",
"75 330 OFFCURVE",
"87 330 CURVE SMOOTH",
"104 330 OFFCURVE",
"113 342 OFFCURVE",
"118 363 CURVE SMOOTH",
"128 406 LINE",
"157 424 OFFCURVE",
"212 440 OFFCURVE",
"252 440 CURVE SMOOTH",
"316 440 OFFCURVE",
"359 405 OFFCURVE",
"359 340 CURVE SMOOTH",
"359 295 LINE",
"222 274 LINE SMOOTH",
"133 261 OFFCURVE",
"41 228 OFFCURVE",
"41 123 CURVE SMOOTH",
"41 32 OFFCURVE",
"116 -13 OFFCURVE",
"195 -13 CURVE SMOOTH"
);
},
{
closed = 1;
nodes = (
"172 49 OFFCURVE",
"135 77 OFFCURVE",
"135 127 CURVE SMOOTH",
"135 185 OFFCURVE",
"181 210 OFFCURVE",
"241 220 CURVE SMOOTH",
"355 238 LINE",
"354 230 OFFCURVE",
"355 222 OFFCURVE",
"355 214 CURVE",
"356 199 OFFCURVE",
"358 191 OFFCURVE",
"360 175 CURVE",
"360 110 OFFCURVE",
"293 49 OFFCURVE",
"224 49 CURVE SMOOTH"
);
},
{
closed = 1;
nodes = (
"456 387 OFFCURVE",
"513 440 OFFCURVE",
"590 440 CURVE SMOOTH",
"665 440 OFFCURVE",
"713 390 OFFCURVE",
"713 314 CURVE SMOOTH",
"713 305 OFFCURVE",
"711 293 OFFCURVE",
"708 285 CURVE",
"449 285 LINE"
);
},
{
closed = 1;
nodes = (
"529 706 LINE",
"456 753 LINE",
"362 596 LINE",
"417 560 LINE"
);
}
);
width = 842;
}
);
note = aeacute;
unicode = 01FD;
},
{
glyphname = b;
lastChange = "2015-07-16 17:52:31 +0000";
layers = (
{
layerId = "F0FBE068-24F2-4D1F-B3A2-D9A3CAFE6F9A";
name = Regular;
paths = (
{
closed = 1;
nodes = (
"440 -13 OFFCURVE",
"552 65 OFFCURVE",
"552 240 CURVE SMOOTH",
"552 421 OFFCURVE",
"456 500 OFFCURVE",
"337 500 CURVE SMOOTH",
"274 500 OFFCURVE",
"219 475 OFFCURVE",
"179 431 CURVE",
"176 433 LINE",
"176 710 LINE",
"61 710 LINE SMOOTH",
"36 710 OFFCURVE",
"18 700 OFFCURVE",
"18 677 CURVE SMOOTH",
"18 662 OFFCURVE",
"25 654 OFFCURVE",
"37 654 CURVE SMOOTH",
"86 654 LINE",
"86 46 LINE",
"146 10 OFFCURVE",
"229 -13 OFFCURVE",
"301 -13 CURVE SMOOTH"
);
},
{
closed = 1;
nodes = (
"260 47 OFFCURVE",
"212 58 OFFCURVE",
"178 78 CURVE",
"178 324 LINE SMOOTH",
"178 391 OFFCURVE",
"243 440 OFFCURVE",
"311 440 CURVE SMOOTH",
"397 440 OFFCURVE",
"457 385 OFFCURVE",
"457 239 CURVE SMOOTH",
"457 112 OFFCURVE",
"405 47 OFFCURVE",
"296 47 CURVE SMOOTH"
);
}
);
width = 590;
}
);
note = b;
unicode = 0062;
},
{
glyphname = c;
lastChange = "2015-07-16 17:52:31 +0000";
layers = (
{
layerId = "F0FBE068-24F2-4D1F-B3A2-D9A3CAFE6F9A";
name = Regular;
paths = (
{
closed = 1;
nodes = (
"336 -13 OFFCURVE",
"383 -1 OFFCURVE",
"420 22 CURVE SMOOTH",
"441 36 OFFCURVE",
"456 50 OFFCURVE",
"456 66 CURVE SMOOTH",
"456 83 OFFCURVE",
"445 95 OFFCURVE",
"431 95 CURVE SMOOTH",
"424 95 OFFCURVE",
"420 91 OFFCURVE",
"409 84 CURVE SMOOTH",
"375 61 OFFCURVE",
"338 47 OFFCURVE",
"291 47 CURVE SMOOTH",
"198 47 OFFCURVE",
"130 114 OFFCURVE",
"130 244 CURVE SMOOTH",
"130 374 OFFCURVE",
"196 440 OFFCURVE",
"285 440 CURVE SMOOTH",
"324 440 OFFCURVE",
"366 428 OFFCURVE",
"389 409 CURVE",
"399 361 LINE SMOOTH",
"404 339 OFFCURVE",
"413 328 OFFCURVE",
"430 328 CURVE SMOOTH",
"442 328 OFFCURVE",
"448 335 OFFCURVE",
"448 344 CURVE SMOOTH",
"448 440 LINE",
"416 469 OFFCURVE",
"346 500 OFFCURVE",
"274 500 CURVE SMOOTH",
"138 500 OFFCURVE",
"36 409 OFFCURVE",
"36 245 CURVE SMOOTH",
"36 85 OFFCURVE",
"135 -13 OFFCURVE",
"285 -13 CURVE SMOOTH"
);
}
);
width = 490;
}
);
note = c;
unicode = 0063;
},
{
glyphname = cacute;
lastChange = "2015-07-16 17:52:31 +0000";
layers = (
{
components = (
{
name = c;
}
);
layerId = "F0FBE068-24F2-4D1F-B3A2-D9A3CAFE6F9A";
name = Regular;
paths = (
{
closed = 1;
nodes = (
"362 706 LINE",
"289 753 LINE",
"195 596 LINE",
"250 560 LINE"
);
}
);
width = 490;
}
);
note = cacute;
unicode = 0107;
},
{
glyphname = ccaron;
lastChange = "2015-07-16 17:52:31 +0000";
layers = (
{
components = (
{
name = c;
}
);
layerId = "F0FBE068-24F2-4D1F-B3A2-D9A3CAFE6F9A";
name = Regular;
paths = (
{
closed = 1;
nodes = (
"290 560 LINE",
"402 703 LINE",
"358 740 LINE",
"265 638 LINE",
"173 740 LINE",
"129 703 LINE",
"241 560 LINE"
);
}
);
width = 490;
}
);
note = ccaron;
unicode = 010D;
},
{
glyphname = ccedilla;
lastChange = "2015-07-16 17:52:31 +0000";
layers = (
{
layerId = "F0FBE068-24F2-4D1F-B3A2-D9A3CAFE6F9A";
name = Regular;
paths = (
{
closed = 1;
nodes = (
"278 -203 OFFCURVE",
"337 -165 OFFCURVE",
"337 -117 CURVE SMOOTH",
"337 -81 OFFCURVE",
"315 -62 OFFCURVE",
"288 -51 CURVE",
"306 -12 LINE",
"349 -10 OFFCURVE",
"388 2 OFFCURVE",
"420 22 CURVE SMOOTH",
"441 36 OFFCURVE",
"456 50 OFFCURVE",
"456 66 CURVE SMOOTH",
"456 83 OFFCURVE",
"445 95 OFFCURVE",
"431 95 CURVE SMOOTH",
"424 95 OFFCURVE",
"420 91 OFFCURVE",
"409 84 CURVE SMOOTH",
"375 61 OFFCURVE",
"338 47 OFFCURVE",
"291 47 CURVE SMOOTH",
"198 47 OFFCURVE",
"130 114 OFFCURVE",
"130 244 CURVE SMOOTH",
"130 374 OFFCURVE",
"196 440 OFFCURVE",
"285 440 CURVE SMOOTH",
"324 440 OFFCURVE",
"366 428 OFFCURVE",
"389 409 CURVE",
"399 361 LINE SMOOTH",
"404 339 OFFCURVE",
"413 328 OFFCURVE",
"430 328 CURVE SMOOTH",
"442 328 OFFCURVE",
"448 335 OFFCURVE",
"448 344 CURVE SMOOTH",
"448 440 LINE",
"416 469 OFFCURVE",
"346 500 OFFCURVE",
"274 500 CURVE SMOOTH",
"138 500 OFFCURVE",
"36 409 OFFCURVE",
"36 245 CURVE SMOOTH",
"36 100 OFFCURVE",
"117 6 OFFCURVE",
"243 -10 CURVE",
"224 -63 LINE",
"256 -73 OFFCURVE",
"269 -90 OFFCURVE",
"269 -115 CURVE SMOOTH",
"269 -142 OFFCURVE",
"248 -167 OFFCURVE",
"201 -182 CURVE",
"215 -216 LINE"
);
}
);
width = 490;
}
);
note = ccedilla;
unicode = 00E7;
},
{
glyphname = ccircumflex;
lastChange = "2015-07-16 17:52:31 +0000";
layers = (
{
components = (
{
name = c;
}
);
layerId = "F0FBE068-24F2-4D1F-B3A2-D9A3CAFE6F9A";
name = Regular;
paths = (
{
closed = 1;
nodes = (
"264 662 LINE",
"357 560 LINE",
"401 597 LINE",
"289 740 LINE",
"240 740 LINE",
"128 597 LINE",
"172 560 LINE"
);
}
);
width = 490;
}
);
note = ccircumflex;
unicode = 0109;
},
{
glyphname = cdotaccent;
lastChange = "2015-07-16 17:52:31 +0000";
layers = (
{
components = (
{
name = c;
}
);
layerId = "F0FBE068-24F2-4D1F-B3A2-D9A3CAFE6F9A";
name = Regular;
paths = (
{
closed = 1;
nodes = (
"296 553 OFFCURVE",
"320 577 OFFCURVE",
"320 608 CURVE SMOOTH",
"320 640 OFFCURVE",
"296 664 OFFCURVE",
"265 664 CURVE SMOOTH",
"235 664 OFFCURVE",
"210 640 OFFCURVE",
"210 608 CURVE SMOOTH",
"210 577 OFFCURVE",
"235 553 OFFCURVE",
"265 553 CURVE SMOOTH"
);
}
);
width = 490;
}
);
note = cdotaccent;
unicode = 010B;
},
{
glyphname = d;
lastChange = "2015-07-16 17:52:31 +0000";
layers = (
{
layerId = "F0FBE068-24F2-4D1F-B3A2-D9A3CAFE6F9A";
name = Regular;
paths = (
{
closed = 1;
nodes = (
"333 -13 OFFCURVE",
"382 21 OFFCURVE",
"412 62 CURVE",
"416 62 LINE",
"416 0 LINE",
"560 0 LINE SMOOTH",
"571 0 OFFCURVE",
"574 6 OFFCURVE",
"574 14 CURVE SMOOTH",
"574 29 OFFCURVE",
"565 36 OFFCURVE",
"543 43 CURVE SMOOTH",
"504 56 LINE",
"504 710 LINE",
"388 710 LINE SMOOTH",
"362 710 OFFCURVE",
"345 700 OFFCURVE",
"345 677 CURVE SMOOTH",
"345 662 OFFCURVE",
"352 654 OFFCURVE",
"364 654 CURVE SMOOTH",
"412 654 LINE",
"412 459 LINE",
"373 484 OFFCURVE",
"326 500 OFFCURVE",
"272 500 CURVE SMOOTH",
"138 500 OFFCURVE",
"36 402 OFFCURVE",
"36 240 CURVE SMOOTH",
"36 64 OFFCURVE",
"141 -13 OFFCURVE",
"260 -13 CURVE SMOOTH"
);
},
{
closed = 1;
nodes = (
"186 47 OFFCURVE",
"130 115 OFFCURVE",
"130 240 CURVE SMOOTH",
"130 373 OFFCURVE",
"202 440 OFFCURVE",
"289 440 CURVE SMOOTH",
"335 440 OFFCURVE",
"379 423 OFFCURVE",
"411 396 CURVE",
"411 171 LINE SMOOTH",
"411 96 OFFCURVE",
"353 47 OFFCURVE",
"282 47 CURVE SMOOTH"
);
}
);
width = 598;
}
);
note = d;
unicode = 0064;
},
{
glyphname = eth;
lastChange = "2015-07-16 17:52:31 +0000";
layers = (
{
layerId = "F0FBE068-24F2-4D1F-B3A2-D9A3CAFE6F9A";
name = Regular;
paths = (
{
closed = 1;
nodes = (
"452 -10 OFFCURVE",
"535 120 OFFCURVE",
"535 325 CURVE SMOOTH",
"535 428 OFFCURVE",
"509 518 OFFCURVE",
"457 584 CURVE",
"563 632 LINE",
"541 680 LINE",
"418 625 LINE",
"365 669 OFFCURVE",
"295 695 OFFCURVE",
"206 695 CURVE SMOOTH",
"179 695 OFFCURVE",
"153 691 OFFCURVE",
"127 685 CURVE",
"127 621 LINE",
"154 628 OFFCURVE",
"178 630 OFFCURVE",
"204 630 CURVE SMOOTH",
"256 630 OFFCURVE",
"303 617 OFFCURVE",
"340 590 CURVE",
"245 548 LINE",
"267 499 LINE",
"381 550 LINE",
"416 505 OFFCURVE",
"436 442 OFFCURVE",
"436 361 CURVE",
"391 390 OFFCURVE",
"333 416 OFFCURVE",
"265 416 CURVE SMOOTH",
"129 416 OFFCURVE",
"50 336 OFFCURVE",
"50 215 CURVE SMOOTH",
"50 69 OFFCURVE",
"155 -10 OFFCURVE",
"282 -10 CURVE SMOOTH"
);
},
{
closed = 1;
nodes = (
"201 55 OFFCURVE",
"150 123 OFFCURVE",
"150 212 CURVE SMOOTH",
"150 306 OFFCURVE",
"202 350 OFFCURVE",
"286 350 CURVE SMOOTH",
"336 350 OFFCURVE",
"396 324 OFFCURVE",
"435 293 CURVE",
"435 152 OFFCURVE",
"385 55 OFFCURVE",
"285 55 CURVE SMOOTH"
);
}
);
width = 613;
}
);
note = eth;
unicode = 00F0;
},
{
glyphname = dcaron;
lastChange = "2015-07-16 17:52:31 +0000";
layers = (
{
components = (
{
name = d;
}
);
layerId = "F0FBE068-24F2-4D1F-B3A2-D9A3CAFE6F9A";
name = Regular;
paths = (
{
closed = 1;
nodes = (
"643 552 OFFCURVE",
"679 630 OFFCURVE",
"694 687 CURVE",
"610 706 LINE SMOOTH",
"585 712 OFFCURVE",
"568 702 OFFCURVE",
"568 680 CURVE SMOOTH",
"568 670 OFFCURVE",
"574 665 OFFCURVE",
"582 662 CURVE SMOOTH",
"610 653 LINE",
"606 620 OFFCURVE",
"579 562 OFFCURVE",
"554 526 CURVE",
"596 500 LINE"
);
}
);
width = 684;
}
);
note = dcaron;
unicode = 010F;
},
{
glyphname = dcroat;
lastChange = "2015-07-16 17:52:31 +0000";
layers = (
{
layerId = "F0FBE068-24F2-4D1F-B3A2-D9A3CAFE6F9A";
name = Regular;
paths = (
{
closed = 1;
nodes = (
"334 -13 OFFCURVE",
"383 21 OFFCURVE",
"413 62 CURVE",
"417 62 LINE",
"417 0 LINE",
"561 0 LINE SMOOTH",
"572 0 OFFCURVE",
"575 6 OFFCURVE",
"575 14 CURVE SMOOTH",
"575 29 OFFCURVE",
"565 36 OFFCURVE",
"544 43 CURVE SMOOTH",
"505 56 LINE",
"505 555 LINE",
"590 555 LINE",
"590 597 LINE",
"505 597 LINE",
"505 710 LINE",
"389 710 LINE SMOOTH",
"363 710 OFFCURVE",
"346 700 OFFCURVE",
"346 677 CURVE SMOOTH",
"346 662 OFFCURVE",
"353 654 OFFCURVE",
"365 654 CURVE SMOOTH",
"413 654 LINE",
"413 597 LINE",
"294 597 LINE",
"294 555 LINE",
"413 555 LINE",
"413 459 LINE",
"374 484 OFFCURVE",
"327 500 OFFCURVE",
"273 500 CURVE SMOOTH",
"139 500 OFFCURVE",
"37 402 OFFCURVE",
"37 240 CURVE SMOOTH",
"37 64 OFFCURVE",
"142 -13 OFFCURVE",
"261 -13 CURVE SMOOTH"
);
},
{
closed = 1;
nodes = (
"187 47 OFFCURVE",
"131 115 OFFCURVE",
"131 240 CURVE SMOOTH",
"131 373 OFFCURVE",
"203 440 OFFCURVE",
"290 440 CURVE SMOOTH",
"336 440 OFFCURVE",
"380 423 OFFCURVE",
"412 396 CURVE",
"412 171 LINE SMOOTH",
"412 96 OFFCURVE",
"354 47 OFFCURVE",
"283 47 CURVE SMOOTH"
);
}
);
width = 580;
}
);
note = dcroat;
unicode = 0111;
},
{
glyphname = ddotbelow;
lastChange = "2015-07-16 17:52:31 +0000";
layers = (
{
components = (
{
name = d;
}
);
layerId = "F0FBE068-24F2-4D1F-B3A2-D9A3CAFE6F9A";
name = Regular;
paths = (
{
closed = 1;
nodes = (
"329 -177 OFFCURVE",
"353 -153 OFFCURVE",
"353 -121 CURVE SMOOTH",
"353 -89 OFFCURVE",
"329 -66 OFFCURVE",
"298 -66 CURVE SMOOTH",
"268 -66 OFFCURVE",
"243 -89 OFFCURVE",
"243 -121 CURVE SMOOTH",
"243 -153 OFFCURVE",
"268 -177 OFFCURVE",
"298 -177 CURVE SMOOTH"
);
}
);
width = 598;
}
);
note = ddotbelow;
unicode = 1E0D;
},
{
glyphname = dlinebelow;
lastChange = "2015-07-16 17:52:31 +0000";
layers = (
{
components = (
{
name = d;
}
);
layerId = "F0FBE068-24F2-4D1F-B3A2-D9A3CAFE6F9A";
name = Regular;
paths = (
{
closed = 1;
nodes = (
"498 -153 LINE",
"498 -88 LINE",
"110 -88 LINE",
"110 -153 LINE"
);
}
);
width = 600;
}
);
note = dlinebelow;
unicode = 1E0F;
},
{
glyphname = e;
lastChange = "2015-07-16 17:52:31 +0000";
layers = (
{
layerId = "F0FBE068-24F2-4D1F-B3A2-D9A3CAFE6F9A";
name = Regular;
paths = (
{
closed = 1;
nodes = (
"339 -13 OFFCURVE",
"388 -1 OFFCURVE",
"430 25 CURVE SMOOTH",
"451 38 OFFCURVE",
"465 50 OFFCURVE",
"465 67 CURVE SMOOTH",
"465 84 OFFCURVE",
"453 95 OFFCURVE",
"439 95 CURVE SMOOTH",
"432 95 OFFCURVE",
"427 93 OFFCURVE",
"415 85 CURVE SMOOTH",
"376 60 OFFCURVE",
"339 47 OFFCURVE",
"289 47 CURVE SMOOTH",
"207 47 OFFCURVE",
"132 101 OFFCURVE",
"132 220 CURVE",
"475 220 LINE",
"484 239 OFFCURVE",
"491 266 OFFCURVE",
"491 290 CURVE SMOOTH",
"491 417 OFFCURVE",
"406 500 OFFCURVE",
"275 500 CURVE SMOOTH",
"132 500 OFFCURVE",
"38 402 OFFCURVE",
"38 240 CURVE SMOOTH",
"38 79 OFFCURVE",
"142 -13 OFFCURVE",
"285 -13 CURVE SMOOTH"
);
},
{
closed = 1;
nodes = (
"140 381 OFFCURVE",
"197 440 OFFCURVE",
"274 440 CURVE SMOOTH",
"347 440 OFFCURVE",
"397 394 OFFCURVE",
"397 309 CURVE SMOOTH",
"397 300 OFFCURVE",
"396 288 OFFCURVE",
"393 280 CURVE",
"133 280 LINE"
);
}
);
width = 526;
}
);
note = e;
unicode = 0065;
},
{
glyphname = eacute;
lastChange = "2015-07-16 17:52:31 +0000";
layers = (
{
components = (
{
name = e;
}
);
layerId = "F0FBE068-24F2-4D1F-B3A2-D9A3CAFE6F9A";
name = Regular;
paths = (
{
closed = 1;
nodes = (
"361 706 LINE",
"288 753 LINE",
"194 596 LINE",
"249 560 LINE"
);
}
);
width = 526;
}
);
note = eacute;
unicode = 00E9;
},
{
glyphname = ebreve;
lastChange = "2015-07-16 17:52:31 +0000";
layers = (
{
components = (
{
name = e;
}
);
layerId = "F0FBE068-24F2-4D1F-B3A2-D9A3CAFE6F9A";
name = Regular;
paths = (
{
closed = 1;
nodes = (
"329 550 OFFCURVE",
"391 585 OFFCURVE",
"417 677 CURVE",
"362 696 LINE",
"347 647 OFFCURVE",
"312 616 OFFCURVE",
"262 616 CURVE SMOOTH",
"213 616 OFFCURVE",
"178 647 OFFCURVE",
"162 696 CURVE",
"108 677 LINE",
"134 585 OFFCURVE",
"196 550 OFFCURVE",
"262 550 CURVE SMOOTH"
);
}
);
width = 526;
}
);
note = ebreve;
unicode = 0115;
},
{
glyphname = ecaron;
lastChange = "2015-07-16 17:52:31 +0000";
layers = (
{
components = (
{
name = e;
}
);
layerId = "F0FBE068-24F2-4D1F-B3A2-D9A3CAFE6F9A";
name = Regular;
paths = (
{
closed = 1;
nodes = (
"285 560 LINE",
"397 703 LINE",
"353 740 LINE",
"260 638 LINE",
"168 740 LINE",
"124 703 LINE",
"236 560 LINE"
);
}
);
width = 526;
}
);
note = ecaron;
unicode = 011B;
},
{
glyphname = ecircumflex;
lastChange = "2015-07-16 17:52:31 +0000";
layers = (
{
components = (
{
name = e;
}
);
layerId = "F0FBE068-24F2-4D1F-B3A2-D9A3CAFE6F9A";
name = Regular;
paths = (
{
closed = 1;
nodes = (
"268 662 LINE",
"361 560 LINE",
"405 597 LINE",
"293 740 LINE",
"244 740 LINE",
"132 597 LINE",
"176 560 LINE"
);
}
);
width = 526;
}
);
note = ecircumflex;
unicode = 00EA;
},
